<?xml version="1.0" standalone="no"?>
<!DOCTYPE svg PUBLIC "-//W3C//DTD SVG 1.1//EN" "http://www.w3.org/Graphics/SVG/1.1/DTD/svg11.dtd" >
<svg xmlns="http://www.w3.org/2000/svg" xmlns:xlink="http://www.w3.org/1999/xlink" version="1.1">
<metadata>
Created by FontForge 20170910 at Tue May  3 15:16:54 2016
 By Jimmy Wärting
Copyright (c) 2016 by S-Core Co., Ltd.. All rights reserved.
</metadata>
<defs>
<font id="CoreGothicD-7ExtraBold" horiz-adv-x="920" >
  <font-face 
    font-family="Core Gothic D 7 ExtraBold"
    font-weight="700"
    font-stretch="normal"
    units-per-em="1000"
    panose-1="2 11 8 3 3 3 2 2 2 4"
    ascent="800"
    descent="-200"
    x-height="541"
    cap-height="762"
    bbox="-19 -294 1219 997"
    underline-thickness="33"
    underline-position="-200"
    stemh="114"
    stemv="132"
    unicode-range="U+0020-FFE6"
  />
<missing-glyph horiz-adv-x="286" 
 />
    <glyph glyph-name=".notdef" horiz-adv-x="286" 
 />
    <glyph glyph-name="_1" unicode=" " horiz-adv-x="286" 
 />
    <glyph glyph-name="_2" unicode="!" horiz-adv-x="351" 
d="M132 231l-24 418v113h134v-113l-23 -418h-87zM110 -8v135h131v-135h-131z" />
    <glyph glyph-name="_3" unicode="&#x22;" horiz-adv-x="484" 
d="M100 531l-17 231h122l-17 -231h-88zM295 531l-18 231h124l-18 -231h-88z" />
    <glyph glyph-name="_4" unicode="#" horiz-adv-x="768" 
d="M231 -7h-132l41 188h-100v113h125l36 166h-123v112h147l41 189h132l-41 -189h138l41 189h133l-42 -189h100v-112h-124l-36 -166h122v-113h-147l-40 -188h-132l41 188h-139zM470 460h-137l-36 -166h138z" />
    <glyph glyph-name="_5" unicode="$" horiz-adv-x="645" 
d="M602 209c0 -122 -80 -215 -225 -228v-82h-104v87c-116 21 -200 99 -231 224l140 22c15 -58 46 -97 91 -116v213c-140 29 -211 105 -211 222c0 105 70 205 211 222v82h104v-85c108 -21 184 -96 208 -209l-139 -21c-11 44 -33 78 -69 96v-199c161 -31 225 -112 225 -228z
M462 208c0 48 -26 82 -85 100v-200c53 12 85 48 85 100zM204 552c0 -41 20 -73 69 -92v185c-46 -14 -69 -52 -69 -93z" />
    <glyph glyph-name="_6" unicode="%" horiz-adv-x="930" 
d="M677 761l-319 -768h-109l318 768h110zM277 529v74c0 50 -19 78 -53 78c-36 0 -54 -28 -54 -78v-74c0 -50 18 -78 54 -78c34 0 53 28 53 78zM385 612v-92c0 -88 -56 -163 -161 -163c-103 0 -161 75 -161 163v92c0 88 58 163 161 163c105 0 161 -75 161 -163zM649 224v-73
c0 -50 17 -79 53 -79c35 0 53 29 53 79v73c0 50 -18 77 -53 77c-36 0 -53 -27 -53 -77zM541 142v91c0 88 58 163 162 163s161 -75 161 -163v-91c0 -88 -57 -162 -161 -162s-162 74 -162 162z" />
    <glyph glyph-name="_7" unicode="&#x26;" horiz-adv-x="765" 
d="M63 192c0 91 45 161 148 234c-63 73 -85 117 -85 175c0 101 75 176 193 176c117 0 189 -73 189 -176c0 -72 -31 -128 -107 -195l116 -135c14 43 20 92 20 141l138 -10c-1 -96 -18 -182 -53 -251l140 -161h-175l-50 55c-54 -44 -127 -68 -214 -68c-160 0 -260 93 -260 215
zM326 102c49 0 91 17 121 46l-150 177c-61 -44 -87 -84 -87 -130c0 -54 45 -93 116 -93zM265 599c0 -27 17 -59 52 -96c33 29 53 60 53 96c0 33 -23 55 -51 55c-33 0 -54 -21 -54 -55z" />
    <glyph glyph-name="_8" unicode="'" horiz-adv-x="288" 
d="M100 531l-17 231h122l-17 -231h-88z" />
    <glyph glyph-name="_9" unicode="(" horiz-adv-x="362" 
d="M321 -8l-39 -118c-122 42 -198 148 -198 292v411c0 145 76 252 198 294l39 -118c-61 -27 -105 -93 -105 -196v-370c0 -104 44 -169 105 -195z" />
    <glyph glyph-name="_10" unicode=")" horiz-adv-x="362" 
d="M79 -126l-38 118c61 26 104 91 104 195v370c0 103 -43 169 -104 196l38 118c122 -42 197 -149 197 -294v-411c0 -144 -75 -250 -197 -292z" />
    <glyph glyph-name="_11" unicode="*" horiz-adv-x="574" 
d="M236 268l-145 -93l-53 94l159 81l-159 79l53 96l145 -93l-11 167h123l-11 -167l144 93l51 -96l-156 -79l156 -81l-51 -94l-144 93l11 -167h-123z" />
    <glyph glyph-name="_12" unicode="+" horiz-adv-x="598" 
d="M55 298v105h182v198h125v-198h181v-105h-181v-199h-125v199h-182z" />
    <glyph glyph-name="_13" unicode="," horiz-adv-x="296" 
d="M222 133v-138c0 -75 -48 -131 -147 -138v58c53 8 77 27 77 77h-77v141h147z" />
    <glyph glyph-name="_14" unicode="-" horiz-adv-x="462" 
d="M55 293v114h351v-114h-351z" />
    <glyph glyph-name="_15" unicode="." horiz-adv-x="296" 
d="M222 133v-141h-147v141h147z" />
    <glyph glyph-name="_16" unicode="/" horiz-adv-x="489" 
d="M488 853l-352 -962h-136l352 962h136z" />
    <glyph glyph-name="_17" unicode="0" horiz-adv-x="592" 
d="M407 258v237c0 126 -51 163 -111 163c-62 0 -112 -37 -112 -163v-221c0 -139 47 -178 112 -178c60 0 111 36 111 162zM539 509v-265c0 -167 -96 -264 -243 -264s-244 97 -244 264v265c0 168 97 266 244 266s243 -98 243 -266z" />
    <glyph glyph-name="_18" unicode="1" horiz-adv-x="592" 
d="M536 -8h-430v116h149v514l-149 -62v124l170 78h112v-654h148v-116z" />
    <glyph glyph-name="_19" unicode="2" horiz-adv-x="592" 
d="M535 542c0 -78 -28 -125 -77 -181l-223 -254h300v-115h-475v97l297 342c35 39 45 72 45 110c0 79 -43 120 -105 120c-64 0 -106 -41 -106 -120v-25l-131 8v18c0 133 89 234 237 234c144 0 238 -101 238 -234z" />
    <glyph glyph-name="_20" unicode="3" horiz-adv-x="592" 
d="M295 377c-20 0 -38 -5 -54 -13l-65 71l178 213h-277v114h434v-107l-160 -189c119 -6 189 -94 189 -233c0 -145 -83 -254 -243 -254c-161 0 -244 107 -244 253v3l132 9v-10c0 -97 46 -141 112 -141c65 0 111 44 111 141s-44 143 -113 143z" />
    <glyph glyph-name="_21" unicode="4" horiz-adv-x="592" 
d="M171 263h171v293zM557 263v-114h-83v-157h-132v157h-306v109l293 504h145v-499h83z" />
    <glyph glyph-name="_22" unicode="5" horiz-adv-x="592" 
d="M55 234l132 9v-5c0 -92 38 -145 112 -145c73 0 111 52 111 152c0 108 -45 151 -114 151c-33 0 -64 -18 -81 -44h-128v410h413v-114h-280v-179c25 26 61 42 104 42c125 0 218 -90 218 -267c0 -163 -87 -265 -243 -265c-158 0 -244 103 -244 255z" />
    <glyph glyph-name="_23" unicode="6" horiz-adv-x="592" 
d="M49 226c0 41 10 80 27 115l204 420h140l-144 -294c7 1 15 1 23 1c147 0 248 -107 248 -243c0 -137 -100 -245 -249 -245s-249 108 -249 246zM178 226c0 -83 49 -135 120 -135s120 52 120 135c0 81 -49 132 -120 132s-120 -52 -120 -132z" />
    <glyph glyph-name="_24" unicode="7" horiz-adv-x="592" 
d="M60 648v114h474v-97l-248 -673h-138l244 656h-332z" />
    <glyph glyph-name="_25" unicode="8" horiz-adv-x="592" 
d="M297 -21c-150 0 -250 109 -250 247c0 84 43 158 110 192c-47 30 -82 87 -82 150c0 116 89 208 222 208c132 0 221 -92 221 -209c0 -64 -35 -120 -82 -149c66 -34 109 -109 109 -193c0 -138 -99 -246 -248 -246zM297 362c-71 0 -119 -58 -119 -136s48 -134 119 -134
c72 0 120 56 120 134s-48 136 -120 136zM297 663c-57 0 -94 -42 -94 -97s37 -97 94 -97c56 0 94 42 94 97s-38 97 -94 97z" />
    <glyph glyph-name="_26" unicode="9" horiz-adv-x="592" 
d="M543 528c0 -41 -10 -81 -27 -115l-204 -420h-140l143 294c-7 -1 -14 -2 -21 -2c-148 0 -250 108 -250 244s100 246 250 246c149 0 249 -110 249 -247zM415 528c0 83 -49 133 -121 133c-71 0 -120 -50 -120 -133c0 -82 49 -132 120 -132c72 0 121 51 121 132z" />
    <glyph glyph-name="_27" unicode=":" horiz-adv-x="296" 
d="M222 133v-141h-147v141h147zM222 596v-142h-147v142h147z" />
    <glyph glyph-name="_28" unicode=";" horiz-adv-x="296" 
d="M222 596v-142h-147v142h147zM222 133v-138c0 -75 -48 -131 -147 -138v58c53 8 77 27 77 77h-77v141h147z" />
    <glyph glyph-name="_29" unicode="&#x3c;" horiz-adv-x="598" 
d="M531 206v-117l-465 207v104l465 207v-117l-326 -142z" />
    <glyph glyph-name="_30" unicode="=" horiz-adv-x="598" 
d="M55 398v106h488v-106h-488zM55 198v105h488v-105h-488z" />
    <glyph glyph-name="_31" unicode="&#x3e;" horiz-adv-x="598" 
d="M531 400v-104l-465 -207v117l327 142l-327 142v117z" />
    <glyph glyph-name="_32" unicode="?" horiz-adv-x="581" 
d="M291 776c139 0 225 -94 225 -220c0 -91 -31 -144 -97 -200c-49 -40 -69 -72 -69 -129v-27h-130v36c0 84 20 126 99 191c51 42 68 73 68 123c0 67 -37 109 -98 109c-60 0 -100 -39 -107 -112l-129 10c10 124 97 219 238 219zM220 -8v134h130v-134h-130z" />
    <glyph glyph-name="_33" unicode="@" horiz-adv-x="824" 
d="M300 228v56c0 124 62 227 198 227c65 0 114 -30 141 -69v10c0 135 -101 219 -227 219s-229 -84 -229 -220v-343c0 -134 103 -219 229 -219c42 0 81 9 114 28l52 -90c-51 -29 -108 -42 -166 -42c-181 0 -337 131 -337 301v387c0 172 156 303 337 303
c179 0 336 -131 336 -302v-217c0 -162 -79 -257 -225 -257c-149 0 -223 101 -223 228zM639 252v85c-21 39 -59 63 -105 63c-77 0 -113 -52 -113 -138v-13c0 -89 31 -138 114 -138c61 0 104 48 104 141z" />
    <glyph glyph-name="_34" unicode="A" horiz-adv-x="667" 
d="M462 152h-258l-49 -159h-149l255 768h143l256 -768h-148zM241 273h184l-92 304z" />
    <glyph glyph-name="_35" unicode="B" horiz-adv-x="650" 
d="M352 -7h-278v768h261c132 0 250 -64 250 -213c0 -76 -40 -130 -98 -154c72 -28 120 -92 120 -177c0 -157 -117 -224 -255 -224zM215 445h104c68 0 125 31 125 97c0 72 -53 97 -125 97h-104v-194zM215 328v-215h125c79 0 126 34 126 107s-53 108 -125 108h-126z" />
    <glyph glyph-name="_36" unicode="C" horiz-adv-x="660" 
d="M53 284v185c0 179 112 307 283 307c153 0 259 -100 281 -252l-139 -20c-15 96 -65 146 -140 146c-91 0 -145 -70 -145 -199v-149c0 -128 54 -198 145 -198c75 0 125 51 140 147l139 -23c-22 -150 -128 -249 -281 -249c-171 0 -283 127 -283 305z" />
    <glyph glyph-name="_37" unicode="D" horiz-adv-x="664" 
d="M75 -7v768h249c171 0 282 -111 282 -293v-184c0 -180 -111 -291 -282 -291h-249zM466 302v149c0 128 -56 185 -147 185h-104v-519h104c91 0 147 57 147 185z" />
    <glyph glyph-name="_38" unicode="E" horiz-adv-x="609" 
d="M75 -8v770h486v-125h-345v-187h300v-125h-300v-208h345v-125h-486z" />
    <glyph glyph-name="_39" unicode="F" horiz-adv-x="587" 
d="M75 -8v770h486v-126h-345v-196h310v-126h-310v-322h-141z" />
    <glyph glyph-name="_40" unicode="G" horiz-adv-x="668" 
d="M193 451v-149c0 -128 53 -199 144 -199c98 0 141 80 141 186h-143v115h284v-119c0 -182 -110 -305 -284 -305c-170 0 -282 125 -282 304v184c0 180 112 307 282 307c154 0 259 -99 281 -251l-139 -20c-15 95 -65 146 -140 146c-91 0 -144 -71 -144 -199z" />
    <glyph glyph-name="_41" unicode="H" horiz-adv-x="691" 
d="M475 -8v332h-259v-332h-141v770h141v-312h259v312h140v-770h-140z" />
    <glyph glyph-name="_42" unicode="I" horiz-adv-x="298" 
d="M219 762v-770h-140v770h140z" />
    <glyph glyph-name="_43" unicode="J" horiz-adv-x="587" 
d="M382 252v510h140v-529c0 -166 -100 -254 -251 -254c-128 0 -224 74 -249 217l136 19c19 -83 64 -110 111 -110c61 0 113 35 113 147z" />
    <glyph glyph-name="_44" unicode="K" horiz-adv-x="661" 
d="M589 762v-14c0 -151 -35 -252 -169 -345l241 -411h-156l-194 338l-95 -62v-276h-141v770h141v-334l74 48c137 88 159 160 159 272v14h140z" />
    <glyph glyph-name="_45" unicode="L" horiz-adv-x="576" 
d="M75 -8v770h141v-644h345v-126h-486z" />
    <glyph glyph-name="_46" unicode="M" horiz-adv-x="845" 
d="M369 189l-154 284v-481h-140v770h119l228 -421l229 421h119v-770h-140v481l-154 -284h-107z" />
    <glyph glyph-name="_47" unicode="N" horiz-adv-x="724" 
d="M521 -8l-305 511v-511h-141v770h127l306 -510v510h140v-770h-127z" />
    <glyph glyph-name="_48" unicode="O" horiz-adv-x="673" 
d="M335 775c174 0 284 -127 284 -307v-184c0 -179 -110 -304 -284 -304c-172 0 -282 125 -282 304v184c0 180 110 307 282 307zM335 104c90 0 144 69 144 198v149c0 129 -54 199 -144 199c-87 0 -142 -70 -142 -199v-149c0 -129 55 -198 142 -198z" />
    <glyph glyph-name="_49" unicode="P" horiz-adv-x="650" 
d="M357 276h-142v-283h-141v768h282c123 0 251 -77 251 -243c0 -165 -128 -242 -250 -242zM467 518c0 80 -55 118 -128 118h-124v-235h124c73 0 128 40 128 117z" />
    <glyph glyph-name="_50" unicode="Q" horiz-adv-x="673" 
d="M658 41l-74 -82l-83 70c-44 -32 -101 -49 -166 -49c-172 0 -282 125 -282 304v184c0 180 110 307 282 307c174 0 284 -127 284 -307v-184c0 -65 -15 -125 -42 -172zM335 104c23 0 44 5 61 15l-70 61l76 85l64 -56c9 26 13 56 13 93v149c0 129 -54 199 -144 199
c-87 0 -142 -70 -142 -199v-149c0 -129 55 -198 142 -198z" />
    <glyph glyph-name="_51" unicode="R" horiz-adv-x="661" 
d="M325 287h-110v-294h-141v768h282c122 0 251 -76 251 -237c0 -114 -64 -184 -143 -217l177 -314h-154zM467 524c0 76 -55 112 -128 112h-124v-224h124c73 0 128 38 128 112z" />
    <glyph glyph-name="_52" unicode="S" horiz-adv-x="645" 
d="M602 209c0 -132 -93 -230 -263 -230c-149 0 -260 83 -297 231l140 22c22 -84 78 -128 157 -128c76 0 123 41 123 104c0 58 -37 93 -120 109l-62 11c-144 27 -218 104 -218 223c0 114 84 225 251 225c142 0 244 -81 272 -215l-139 -21c-16 67 -60 111 -133 111
c-72 0 -109 -46 -109 -99c0 -51 31 -87 109 -103l64 -12c161 -31 225 -112 225 -228z" />
    <glyph glyph-name="_53" unicode="T" horiz-adv-x="581" 
d="M14 636v126h552v-126h-206v-644h-140v644h-206z" />
    <glyph glyph-name="_54" unicode="U" horiz-adv-x="687" 
d="M344 105c92 0 135 64 135 195v462h141v-486c0 -180 -102 -297 -276 -297c-175 0 -278 117 -278 297v486h141v-462c0 -131 45 -195 137 -195z" />
    <glyph glyph-name="_55" unicode="V" horiz-adv-x="657" 
d="M398 -7h-143l-246 768h150l169 -555l167 555h151z" />
    <glyph glyph-name="_56" unicode="W" horiz-adv-x="1035" 
d="M448 761h137l146 -531l138 531h150l-215 -768h-138l-150 544l-149 -544h-139l-215 768h151l137 -531z" />
    <glyph glyph-name="_57" unicode="X" horiz-adv-x="678" 
d="M657 -7h-155l-164 287l-164 -287h-155l231 397l-214 371h154l148 -265l149 265h153l-214 -371z" />
    <glyph glyph-name="_58" unicode="Y" horiz-adv-x="645" 
d="M252 -7v347l-238 421h153l155 -286l154 286h153l-237 -421v-347h-140z" />
    <glyph glyph-name="_59" unicode="Z" horiz-adv-x="582" 
d="M43 99l326 537h-315v126h485v-106l-327 -538h327v-126h-496v107z" />
    <glyph glyph-name="_60" unicode="[" horiz-adv-x="373" 
d="M84 -109v962h249v-113h-117v-736h117v-113h-249z" />
    <glyph glyph-name="_61" unicode="\" horiz-adv-x="883" 
d="M17 420h67l-78 341h145l62 -341h87l74 341h136l74 -341h86l62 341h146l-77 -341h65v-69h-82l-81 -358h-138l-76 358h-94l-78 -358h-136l-82 358h-82v69zM442 558l-33 -138h64zM598 351l32 -136l28 136h-60zM226 351l27 -136l32 136h-59z" />
    <glyph glyph-name="_62" unicode="]" horiz-adv-x="373" 
d="M289 853v-962h-249v113h116v736h-116v113h249z" />
    <glyph glyph-name="_63" unicode="^" horiz-adv-x="549" 
d="M160 522h-132l181 239h130l181 -239h-133l-113 144z" />
    <glyph glyph-name="_64" unicode="_" horiz-adv-x="550" 
d="M0 -197v80h550v-80h-550z" />
    <glyph glyph-name="_65" unicode="`" horiz-adv-x="423" 
d="M245 618l-120 177h127l85 -177h-92z" />
    <glyph glyph-name="_66" unicode="a" horiz-adv-x="565" 
d="M42 138v14c0 89 65 167 238 167h95v15c0 71 -37 109 -95 109c-46 0 -80 -24 -100 -66l-121 32c40 88 120 147 228 147c139 0 219 -88 219 -212v-352h-131v57c-31 -42 -82 -70 -150 -70c-110 0 -183 67 -183 159zM253 91c53 0 101 25 122 63v66h-122
c-48 0 -82 -26 -82 -64v-6c0 -33 27 -59 82 -59z" />
    <glyph glyph-name="_67" unicode="b" horiz-adv-x="581" 
d="M195 -7h-132v782h132v-286c26 38 79 66 139 66c126 0 198 -97 198 -226v-125c0 -129 -72 -224 -198 -224c-60 0 -113 27 -139 64v-51zM195 378v-223c20 -40 53 -63 96 -63c79 0 109 49 109 137v74c0 90 -30 138 -109 138c-43 0 -76 -24 -96 -63z" />
    <glyph glyph-name="_68" unicode="c" horiz-adv-x="553" 
d="M286 -20c-139 0 -240 104 -240 229v115c0 125 101 231 240 231c121 0 207 -81 230 -183l-132 -20c-12 60 -52 89 -98 89c-58 0 -107 -42 -107 -134v-81c0 -92 49 -133 107 -133c45 0 86 28 98 88l132 -19c-23 -102 -109 -182 -230 -182z" />
    <glyph glyph-name="_69" unicode="d" horiz-adv-x="581" 
d="M515 -7h-132v51c-26 -37 -78 -64 -139 -64c-126 0 -198 95 -198 224v125c0 129 72 226 198 226c61 0 113 -28 139 -66v286h132v-782zM383 155v223c-20 39 -52 63 -95 63c-80 0 -110 -48 -110 -138v-74c0 -88 30 -137 110 -137c43 0 75 23 95 63z" />
    <glyph glyph-name="_70" unicode="e" horiz-adv-x="572" 
d="M525 222h-346v-7c0 -81 44 -122 110 -122c46 0 81 21 95 64l133 -15c-28 -98 -112 -163 -228 -163c-148 0 -243 106 -243 230v116c0 124 98 231 240 231c141 0 239 -107 239 -229v-105zM179 319h214v5c0 76 -47 118 -107 118c-59 0 -107 -42 -107 -118v-5z" />
    <glyph glyph-name="_71" unicode="f" horiz-adv-x="394" 
d="M36 428v114h76v15c0 159 51 219 220 219h40v-115h-43c-69 0 -85 -30 -85 -98v-21h128v-114h-128v-436h-132v436h-76z" />
    <glyph glyph-name="_72" unicode="g" horiz-adv-x="581" 
d="M383 44c-26 -37 -78 -64 -139 -64c-126 0 -198 95 -198 224v125c0 129 72 226 198 226c61 0 113 -27 139 -66v52h132v-558c0 -149 -81 -245 -228 -245c-106 0 -186 55 -220 150l125 29c17 -46 51 -67 95 -67c55 0 96 37 96 138v56zM383 155v223c-20 40 -52 63 -95 63
c-80 0 -109 -48 -109 -138v-74c0 -88 29 -137 109 -137c43 0 75 23 95 63z" />
    <glyph glyph-name="_73" unicode="h" horiz-adv-x="593" 
d="M535 331v-339h-133v319c0 85 -27 131 -102 131c-41 0 -86 -28 -104 -72v-378h-133v784h133v-297c27 44 81 77 149 77c121 0 190 -87 190 -225z" />
    <glyph glyph-name="_74" unicode="i" horiz-adv-x="282" 
d="M75 -8v550h132v-550h-132zM75 643v133h132v-133h-132z" />
    <glyph glyph-name="_75" unicode="j" horiz-adv-x="297" 
d="M90 643v133h132v-133h-132zM90 -55v597h132v-608c0 -118 -58 -175 -183 -175h-58v113h46c42 0 63 26 63 73z" />
    <glyph glyph-name="_76" unicode="k" horiz-adv-x="549" 
d="M492 541v-11c0 -110 -34 -169 -119 -233l179 -304h-143l-134 235l-79 -51v-184h-133v782h133v-455c120 73 166 119 166 209v12h130z" />
    <glyph glyph-name="_77" unicode="l" horiz-adv-x="324" 
d="M207 776v-597c0 -47 21 -72 64 -72h27v-115h-42c-124 0 -181 57 -181 174v610h132z" />
    <glyph glyph-name="_78" unicode="m" horiz-adv-x="932" 
d="M532 361c1 -14 2 -30 2 -44v-324h-133v317c0 85 -27 131 -101 131c-42 0 -86 -28 -105 -72v-376h-132v548h132v-62c27 43 82 76 149 76c76 0 130 -36 161 -94c37 52 100 94 177 94c121 0 191 -87 191 -226v-336h-133v317c0 86 -30 131 -102 131c-40 0 -81 -33 -106 -80z
" />
    <glyph glyph-name="_79" unicode="n" horiz-adv-x="593" 
d="M535 331v-339h-133v319c0 85 -27 131 -102 131c-41 0 -86 -28 -104 -72v-378h-133v549h133v-62c27 44 81 77 149 77c121 0 190 -87 190 -225z" />
    <glyph glyph-name="_80" unicode="o" horiz-adv-x="572" 
d="M179 309v-84c0 -91 49 -132 107 -132s108 41 108 132v84c0 92 -50 133 -108 133s-107 -41 -107 -133zM46 208v118c0 125 100 230 240 230c141 0 239 -105 239 -230v-118c0 -124 -98 -229 -239 -229c-140 0 -240 105 -240 229z" />
    <glyph glyph-name="_81" unicode="p" horiz-adv-x="581" 
d="M63 541h132v-52c26 38 79 66 139 66c126 0 198 -97 198 -226v-125c0 -129 -72 -224 -198 -224c-60 0 -113 27 -139 64v-291h-132v788zM195 378v-223c20 -40 53 -63 96 -63c79 0 109 49 109 137v74c0 90 -30 138 -109 138c-43 0 -76 -24 -96 -63z" />
    <glyph glyph-name="_82" unicode="q" horiz-adv-x="581" 
d="M383 541h132v-788h-132v291c-26 -37 -78 -64 -139 -64c-126 0 -198 95 -198 224v125c0 129 72 226 198 226c61 0 113 -28 139 -66v52zM383 155v223c-20 39 -52 63 -96 63c-79 0 -109 -48 -109 -138v-74c0 -88 30 -137 109 -137c44 0 76 23 96 63z" />
    <glyph glyph-name="_83" unicode="r" horiz-adv-x="423" 
d="M63 -8v550h133v-60c32 45 83 74 147 74c22 0 46 -5 64 -14v-114c-24 9 -47 14 -75 14c-56 0 -107 -28 -136 -75v-375h-133z" />
    <glyph glyph-name="_84" unicode="s" horiz-adv-x="534" 
d="M360 149c0 35 -21 57 -77 67l-48 9c-122 22 -177 75 -177 166c0 94 74 165 199 165c112 0 195 -60 223 -160l-128 -20c-8 43 -45 70 -91 70c-45 0 -73 -25 -73 -54c0 -35 28 -53 79 -63l50 -9c129 -25 175 -78 175 -168c0 -100 -78 -173 -209 -173
c-123 0 -210 62 -241 174l129 20c19 -58 57 -85 110 -85c49 0 79 26 79 61z" />
    <glyph glyph-name="_85" unicode="t" horiz-adv-x="397" 
d="M228 428v-249c0 -47 21 -72 64 -72h74v-115h-88c-123 0 -182 57 -182 175v261h-76v114h76v157h132v-157h129v-114h-129z" />
    <glyph glyph-name="_86" unicode="u" horiz-adv-x="593" 
d="M60 204v338h131v-318c0 -85 27 -131 101 -131c43 0 86 28 105 72v377h133v-550h-133v64c-26 -44 -81 -77 -147 -77c-122 0 -190 86 -190 225z" />
    <glyph glyph-name="_87" unicode="v" horiz-adv-x="549" 
d="M341 -7h-135l-200 548h137l130 -380l131 380h137z" />
    <glyph glyph-name="_88" unicode="w" horiz-adv-x="870" 
d="M9 541h137l110 -368l115 368h127l114 -368l111 368h138l-180 -548h-131l-115 376l-115 -376h-132z" />
    <glyph glyph-name="_89" unicode="x" horiz-adv-x="527" 
d="M20 541h147l97 -171l96 171h146l-158 -266l169 -282h-146l-107 187l-108 -187h-147l169 282z" />
    <glyph glyph-name="_90" unicode="y" horiz-adv-x="553" 
d="M194 -67l29 86l-214 523h141l133 -351l120 351h140l-229 -650c-38 -107 -89 -132 -191 -132h-46v113h37c41 0 65 13 80 60z" />
    <glyph glyph-name="_91" unicode="z" horiz-adv-x="530" 
d="M481 542v-97l-268 -338h279v-115h-455v97l268 339h-255v114h431z" />
    <glyph glyph-name="_92" unicode="{" horiz-adv-x="382" 
d="M44 316v110h22c43 0 64 28 64 68v191c0 115 59 168 193 168h25v-112h-29c-39 0 -58 -24 -58 -68v-189c0 -46 -23 -96 -72 -112c49 -17 72 -67 72 -115v-188c0 -45 21 -68 58 -68h29v-110h-25c-134 0 -193 49 -193 166v190c0 42 -22 69 -64 69h-22z" />
    <glyph glyph-name="_93" unicode="|" horiz-adv-x="346" 
d="M106 -109v962h135v-962h-135z" />
    <glyph glyph-name="_94" unicode="}" horiz-adv-x="382" 
d="M337 426v-110h-24c-41 0 -62 -26 -62 -69v-190c0 -117 -60 -166 -193 -166h-24v110h26c41 0 59 24 59 68v188c0 48 23 98 72 115c-49 16 -72 66 -72 112v189c0 45 -22 68 -59 68h-26v112h30c128 0 187 -53 187 -168v-191c0 -40 21 -68 62 -68h24z" />
    <glyph glyph-name="_95" unicode="~" horiz-adv-x="598" 
d="M448 446l119 -9c-3 -130 -75 -190 -170 -190c-107 0 -144 97 -193 97c-39 0 -52 -31 -55 -93l-119 9c4 130 75 190 170 190c107 0 144 -97 194 -97c38 0 51 31 54 93z" />
    <glyph glyph-name="_101" unicode="&#x3000;" 
 />
    <glyph glyph-name="_101" unicode="&#x3164;" 
 />
    <glyph glyph-name="_106" unicode="&#x2026;" 
d="M228 416v-149h-148v149h148zM534 416v-149h-148v149h148zM840 416v-149h-148v149h148z" />
    <glyph glyph-name="_107" unicode="&#xa8;" horiz-adv-x="460" 
d="M180 769v-130h-115v130h115zM395 769v-130h-114v130h114z" />
    <glyph glyph-name="_108" unicode="&#x3003;" 
d="M166 129l169 487l124 -47l-200 -472zM456 119l172 484l125 -44l-202 -475z" />
    <glyph glyph-name="_112" unicode="&#xff3c;" 
d="M99 806l808 -799l-84 -83l-810 800z" />
    <glyph glyph-name="_114" unicode="&#x2018;" horiz-adv-x="308" 
d="M77 612v146c0 77 50 138 154 144v-61c-55 -8 -81 -30 -81 -80h81v-149h-154z" />
    <glyph glyph-name="_115" unicode="&#x2019;" horiz-adv-x="308" 
d="M231 901v-145c0 -77 -51 -138 -154 -144v61c56 8 80 28 81 81h-81v147h154z" />
    <glyph glyph-name="_116" unicode="&#x201c;" horiz-adv-x="518" 
d="M286 612v146c0 77 50 138 153 144v-61c-55 -8 -80 -30 -81 -80h81v-149h-153zM77 612v146c0 77 50 138 154 144v-61c-55 -8 -81 -30 -81 -80h81v-149h-154z" />
    <glyph glyph-name="_117" unicode="&#x201d;" horiz-adv-x="518" 
d="M439 902v-146c0 -77 -52 -137 -153 -144v61c55 9 80 29 80 81h-80v148h153zM231 902v-146c0 -77 -52 -137 -154 -144v61c56 9 80 29 81 81h-81v148h154z" />
    <glyph glyph-name="_130" unicode="&#xb1;" horiz-adv-x="601" 
d="M237 178v188h-182v106h182v187h127v-187h181v-106h-181v-188h-127zM545 12h-490v105h490v-105z" />
    <glyph glyph-name="_131" unicode="&#xd7;" horiz-adv-x="601" 
d="M376 348l155 -156l-77 -76l-155 154l-154 -154l-78 76l155 156l-155 154l78 77l154 -155l155 155l77 -77z" />
    <glyph glyph-name="_132" unicode="&#xf7;" horiz-adv-x="601" 
d="M55 400h490v-105h-490v105zM360 612v-127h-120v127h120zM360 210v-126h-120v126h120z" />
    <glyph glyph-name="_133" unicode="&#x2260;" horiz-adv-x="601" 
d="M191 78h-86l63 112h-114v104h172l61 111h-233v105h291l63 113h86l-63 -113h114v-105h-172l-61 -111h233v-104h-292z" />
    <glyph glyph-name="_134" unicode="&#x2264;" horiz-adv-x="601" 
d="M545 12h-491v104h491v-104zM66 369v96l467 206v-117l-319 -136l319 -138v-116z" />
    <glyph glyph-name="_135" unicode="&#x2265;" horiz-adv-x="601" 
d="M545 12h-491v104h491v-104zM67 554v117l466 -206v-96l-466 -205v116l317 138z" />
    <glyph glyph-name="_136" unicode="&#x221e;" 
d="M398 340c-51 64 -87 81 -131 81s-77 -31 -77 -81s33 -81 77 -81s80 18 131 81zM844 340c0 -104 -72 -176 -183 -176c-66 0 -131 28 -201 110c-71 -82 -134 -110 -200 -110c-111 0 -184 72 -184 176s73 175 184 175c66 0 129 -27 200 -108c70 81 135 108 201 108
c111 0 183 -71 183 -175zM730 340c0 50 -32 81 -78 81c-42 0 -79 -17 -131 -81c52 -63 89 -81 131 -81c46 0 78 31 78 81z" />
    <glyph glyph-name="_137" unicode="&#x2234;" 
d="M534 675v-149h-148v149h148zM270 196v-149h-148v149h148zM650 47v149h148v-149h-148z" />
    <glyph glyph-name="_138" unicode="&#xb0;" horiz-adv-x="395" 
d="M338 634c0 -81 -59 -139 -140 -139c-82 0 -141 58 -141 139s59 138 141 138c81 0 140 -57 140 -138zM253 634c0 35 -25 59 -55 59c-31 0 -55 -24 -55 -59s24 -58 55 -58c30 0 55 23 55 58z" />
    <glyph glyph-name="_139" unicode="&#x2032;" horiz-adv-x="256" 
d="M134 498h-95l57 265h121z" />
    <glyph glyph-name="_140" unicode="&#x2033;" horiz-adv-x="440" 
d="M134 498h-95l57 265h121zM316 498h-95l57 265h121z" />
    <glyph glyph-name="_141" unicode="&#x2103;" 
d="M608 650c-91 0 -126 -74 -126 -221v-147c0 -118 46 -181 126 -181c75 0 115 52 126 149l138 -18c-19 -160 -115 -251 -264 -251c-153 0 -264 105 -264 287v215c0 183 111 290 264 290c149 0 245 -93 264 -253l-138 -17c-11 96 -51 147 -126 147zM325 636
c0 -78 -56 -132 -134 -132c-79 0 -135 54 -135 132s56 133 135 133c78 0 134 -55 134 -133zM244 636c0 35 -24 57 -53 57c-30 0 -53 -22 -53 -57c0 -33 23 -56 53 -56c29 0 53 23 53 56z" />
    <glyph glyph-name="_142" unicode="&#x212b;" 
d="M340 814c0 73 53 116 120 116c65 0 118 -43 118 -116c0 -37 -15 -66 -39 -83l246 -737h-146l-50 157h-260l-49 -157h-146l245 736c-24 18 -39 46 -39 84zM556 266l-96 315l-96 -315h192zM417 814c0 -28 19 -45 43 -45c23 0 40 17 40 45c0 27 -17 45 -40 45
c-24 0 -43 -18 -43 -45z" />
    <glyph glyph-name="_143" unicode="&#xffe0;" 
d="M412 -102v88c-111 21 -187 114 -187 223v115c0 108 76 203 187 225v89h92v-87c100 -16 170 -89 190 -180l-132 -19c-8 41 -30 68 -58 80v-332c28 12 50 39 58 81l132 -19c-20 -91 -90 -163 -190 -179v-85h-92zM358 225c0 -61 22 -101 54 -119v321
c-32 -19 -54 -58 -54 -120v-82z" />
    <glyph glyph-name="_144" unicode="&#xffe1;" 
d="M486 774c139 0 227 -78 243 -223l-139 -19c-10 91 -48 120 -104 120c-59 0 -95 -43 -95 -138v-116h196v-85h-196v-51c0 -67 -16 -113 -43 -146h388v-122h-549v102c41 41 65 93 65 158v59h-68v85h68v125c0 152 84 251 234 251z" />
    <glyph glyph-name="_145" unicode="&#xffe5;" 
d="M686 344h-157l-1 -1v-61h158v-67h-158v-221h-139v221h-158v67h158v62h-158v67h119l-200 350h152l157 -284l156 284h153l-201 -350h119v-67z" />
    <glyph glyph-name="_146" unicode="&#x2642;" 
d="M396 592l-133 -180l-90 67l287 368l285 -368l-90 -67l-133 180v-225c108 -27 189 -123 189 -238c0 -134 -116 -243 -251 -243c-137 0 -253 109 -253 243c0 115 81 211 189 238v225zM332 129c0 -69 56 -126 128 -126c69 0 126 57 126 126c0 72 -57 129 -126 129
c-72 0 -128 -57 -128 -129z" />
    <glyph glyph-name="_147" unicode="&#x2640;" 
d="M748 522c0 -136 -97 -249 -224 -276v-99h124v-108h-124v-140h-128v140h-124v108h124v99c-128 27 -224 140 -224 276c0 156 130 282 288 282s288 -126 288 -282zM622 522c0 91 -73 164 -162 164s-162 -73 -162 -164c0 -92 73 -165 162 -165s162 73 162 165z" />
    <glyph glyph-name="_148" unicode="&#x2220;" 
d="M694 688l88 -81l-519 -496h572v-115h-769v92z" />
    <glyph glyph-name="_149" unicode="&#x22a5;" 
d="M527 722v-598h317v-116h-768v116h317v598h134z" />
    <glyph glyph-name="_150" unicode="&#x2312;" 
d="M460 827c188 0 339 -74 451 -187l-81 -81c-100 98 -215 154 -370 154s-270 -56 -370 -154l-81 81c112 113 263 187 451 187z" />
    <glyph glyph-name="_151" unicode="&#x2202;" 
d="M567 201l23 118c-27 27 -84 41 -130 41c-87 0 -149 -58 -163 -128l-6 -31c-14 -71 27 -127 114 -127s148 56 162 127zM769 503l-58 -298c-28 -147 -152 -256 -331 -256c-180 0 -260 109 -231 256l4 24c29 146 151 256 331 256c52 0 104 -18 130 -43l10 48
c21 110 -18 163 -101 163c-62 0 -118 -36 -151 -108l-136 24c62 125 173 210 315 210c166 0 250 -111 218 -276z" />
    <glyph glyph-name="_152" unicode="&#x2207;" 
d="M512 -38h-102l-330 686v88h760v-88zM236 620l224 -479l223 479h-447z" />
    <glyph glyph-name="_153" unicode="&#x2261;" horiz-adv-x="627" 
d="M568 488h-510v109h510v-109zM568 71h-510v109h510v-109zM568 279h-510v109h510v-109z" />
    <glyph glyph-name="_154" unicode="&#x2252;" horiz-adv-x="627" 
d="M568 392h-510v110h510v-110zM568 168h-510v109h510v-109zM228 688v-130h-126v130h126zM397 -18v128h126v-128h-126z" />
    <glyph glyph-name="_155" unicode="&#xa7;" 
d="M297 450c-39 33 -59 76 -59 137c0 113 83 189 212 189c117 0 205 -65 234 -171l-132 -20c-10 48 -46 77 -98 77c-49 0 -79 -27 -79 -75c0 -52 34 -77 95 -86c147 -30 223 -86 223 -229c0 -72 -28 -122 -69 -155c37 -33 57 -78 57 -138c0 -113 -83 -189 -212 -189
c-116 0 -205 65 -233 171l131 20c11 -47 46 -77 99 -77c49 0 79 28 79 75c0 56 -34 73 -95 86c-148 26 -223 90 -223 230c0 71 28 121 70 155zM515 167h1c27 24 40 58 40 104c0 82 -36 107 -152 128c-27 -23 -40 -57 -40 -104c0 -81 35 -107 151 -128z" />
    <glyph glyph-name="_156" unicode="&#x203b;" 
d="M766 741l73 -74l-305 -305l305 -305l-73 -73l-305 305l-305 -305l-73 73l305 305l-305 305l73 74l305 -306zM550 672c0 -50 -40 -90 -90 -90s-90 40 -90 90s40 90 90 90s90 -40 90 -90zM550 58c0 -50 -40 -90 -90 -90s-90 40 -90 90s40 90 90 90s90 -40 90 -90zM854 362
c0 -50 -41 -90 -91 -90c-49 0 -90 40 -90 90s41 90 90 90c50 0 91 -40 91 -90zM247 362c0 -50 -41 -90 -90 -90c-50 0 -91 40 -91 90s41 90 91 90c49 0 90 -40 90 -90z" />
    <glyph glyph-name="_157" unicode="&#x2606;" 
d="M435 819h50l103 -300h301l12 -46l-246 -188l125 -318l-39 -28l-281 207l-281 -207l-39 28l125 318l-246 188l12 46h301zM460 244l182 -140l-85 215l176 124h-211l-62 203l-62 -203h-211l176 -124l-85 -215z" />
    <glyph glyph-name="_158" unicode="&#x2605;" 
d="M435 819h50l103 -300h301l12 -46l-246 -188l125 -318l-39 -28l-281 207l-281 -207l-39 28l125 318l-246 188l12 46h301z" />
    <glyph glyph-name="_159" unicode="&#x25cb;" 
d="M894 362c0 -246 -188 -434 -434 -434c-247 0 -434 188 -434 434s188 434 434 434s434 -188 434 -434zM799 362c0 196 -142 345 -339 345s-338 -149 -338 -345c0 -197 141 -346 338 -346s339 149 339 346z" />
    <glyph glyph-name="_160" unicode="&#x25cf;" 
d="M894 362c0 -246 -188 -434 -434 -434c-247 0 -434 188 -434 434s188 434 434 434s434 -188 434 -434z" />
    <glyph glyph-name="_161" unicode="&#x25ce;" 
d="M171 361c0 164 129 289 289 289s289 -125 289 -289c0 -162 -129 -288 -289 -288s-289 126 -289 288zM661 361c0 122 -83 211 -201 211s-201 -89 -201 -211c0 -121 83 -210 201 -210s201 89 201 210zM894 362c0 -247 -186 -434 -434 -434c-249 0 -434 187 -434 434
s187 434 434 434s434 -187 434 -434zM807 362c0 200 -147 354 -347 354s-347 -154 -347 -354s147 -354 347 -354s347 154 347 354z" />
    <glyph glyph-name="_162" unicode="&#x25c7;" 
d="M784 361l-324 340l-326 -340l326 -338zM9 364l451 468l451 -468l-451 -468z" />
    <glyph glyph-name="_163" unicode="&#x25c6;" 
d="M9 364l451 468l451 -468l-451 -468z" />
    <glyph glyph-name="_164" unicode="&#x25a1;" 
d="M174 650v-578h572v578h-572zM844 743v-763h-768v763h768z" />
    <glyph glyph-name="_165" unicode="&#x25a0;" 
d="M844 743v-763h-768v763h768z" />
    <glyph glyph-name="_166" unicode="&#x25b3;" 
d="M4 -13l456 799l456 -799h-912zM753 77l-293 521l-293 -521h586z" />
    <glyph glyph-name="_167" unicode="&#x25b2;" 
d="M4 -13l456 799l456 -799h-912z" />
    <glyph glyph-name="_168" unicode="&#x25bd;" 
d="M4 746h912l-456 -799zM753 656h-586l293 -521z" />
    <glyph glyph-name="_169" unicode="&#x25bc;" 
d="M4 746h912l-456 -799z" />
    <glyph glyph-name="_170" unicode="&#x2192;" 
d="M670 283h-661v121h661l-56 186l296 -247l-296 -247z" />
    <glyph glyph-name="_171" unicode="&#x2190;" 
d="M250 404h660v-121h-660l55 -187l-296 247l296 247z" />
    <glyph glyph-name="_172" unicode="&#x2191;" 
d="M520 580v-661h-122v661l-185 -56l246 296l248 -296z" />
    <glyph glyph-name="_173" unicode="&#x2193;" 
d="M398 159v661h121v-661c62 18 124 37 187 55c-83 -98 -165 -195 -247 -294c-83 99 -165 196 -247 294c62 -18 123 -37 186 -55z" />
    <glyph glyph-name="_174" unicode="&#x2194;" 
d="M676 281h-433l56 -187l-290 248l290 246l-56 -186h433l-55 186l289 -246l-289 -248z" />
    <glyph glyph-name="_178" unicode="&#x221a;" 
d="M890 754h-313l-171 -791h-156l-143 344h-80v88h155l136 -330l168 777h404v-88z" />
    <glyph glyph-name="_179" unicode="&#x223d;" 
d="M844 340c0 -103 -73 -175 -184 -175c-37 0 -72 9 -109 30l51 75c17 -8 33 -11 50 -11c45 0 77 32 77 81c0 50 -32 81 -77 81s-82 -21 -162 -119c-90 -110 -160 -137 -231 -137c-111 0 -183 72 -183 175c0 104 73 176 184 176c36 0 72 -9 109 -30l-52 -75
c-17 7 -33 10 -50 10c-44 0 -77 -32 -77 -81c0 -50 33 -81 77 -81c46 0 83 21 162 119c91 111 160 138 231 138c111 0 184 -72 184 -176z" />
    <glyph glyph-name="_180" unicode="&#x221d;" 
d="M398 340c-51 64 -87 81 -131 81s-77 -31 -77 -81c0 -49 33 -81 77 -81s80 18 131 81zM76 340c0 104 73 175 184 175c66 0 129 -27 200 -108c70 81 135 108 201 108c29 0 55 -5 79 -14l-39 -97c-13 12 -30 17 -49 17c-42 0 -79 -17 -131 -81c52 -63 89 -81 131 -81
c19 0 36 6 49 17l39 -97c-24 -9 -50 -14 -79 -14c-66 0 -131 28 -201 109c-71 -81 -134 -109 -200 -109c-111 0 -184 72 -184 175z" />
    <glyph glyph-name="_181" unicode="&#x2235;" 
d="M534 196v-149h-148v149h148zM270 675v-149h-148v149h148zM650 526v149h148v-149h-148z" />
    <glyph glyph-name="_182" unicode="&#x222b;" 
d="M524 648v-554c0 -169 -56 -249 -211 -249c-30 0 -65 4 -98 12c5 35 8 70 12 105c28 -11 53 -14 76 -14c63 0 91 30 91 113v554c0 170 55 250 209 250c31 0 66 -4 99 -12l-12 -105c-27 11 -53 14 -76 14c-63 0 -90 -29 -90 -114z" />
    <glyph glyph-name="_183" unicode="&#x222c;" 
d="M362 648v-580c0 -152 -66 -223 -210 -223c-30 0 -65 4 -98 12l12 105c26 -11 52 -14 75 -14c64 0 91 30 91 113v581c0 152 67 223 210 223c31 0 66 -4 99 -12l-13 -105c-27 11 -52 14 -75 14c-63 0 -91 -29 -91 -114zM686 648v-580c0 -152 -67 -223 -211 -223
c-29 0 -65 4 -98 12l13 105c26 -11 52 -14 75 -14c63 0 91 30 91 113v581c0 152 66 223 209 223c30 0 65 -4 99 -12l-12 -105c-27 11 -53 14 -76 14c-63 0 -90 -29 -90 -114z" />
    <glyph glyph-name="_184" unicode="&#x2208;" 
d="M81 362c0 221 159 327 397 327h359v-121h-357c-162 0 -240 -58 -262 -143h609v-121h-610c19 -91 97 -151 263 -151h357v-119h-359c-238 0 -397 105 -397 328z" />
    <glyph glyph-name="_185" unicode="&#x220b;" 
d="M702 304h-610v122h608c-22 85 -100 142 -261 142h-357v123h359c238 0 397 -107 397 -329s-159 -330 -397 -330h-359v123h357c165 0 244 59 263 149z" />
    <glyph glyph-name="_186" unicode="&#x2286;" 
d="M840 76v-116h-732v116h732zM80 476c0 180 131 273 354 273h401v-120h-399c-152 0 -224 -50 -224 -153c0 -102 72 -152 224 -152h399v-120h-401c-223 0 -354 93 -354 272z" />
    <glyph glyph-name="_187" unicode="&#x2287;" 
d="M80 -40v116h732v-116h-732zM840 476c0 -179 -131 -272 -354 -272h-401v120h399c152 0 224 50 224 152c0 103 -72 153 -224 153h-399v120h401c223 0 354 -93 354 -273z" />
    <glyph glyph-name="_188" unicode="&#x2282;" 
d="M210 362c0 -123 70 -208 271 -208h357v-122h-360c-237 0 -396 107 -396 330c0 222 159 328 396 328h360v-122h-357c-201 0 -271 -85 -271 -206z" />
    <glyph glyph-name="_189" unicode="&#x2283;" 
d="M709 362c0 121 -70 206 -270 206h-357v122h359c238 0 397 -106 397 -328c0 -223 -159 -330 -397 -330h-359v122h357c200 0 270 85 270 208z" />
    <glyph glyph-name="_190" unicode="&#x222a;" 
d="M459 68c120 0 199 89 199 295v356h131v-359c0 -238 -107 -397 -330 -397c-222 0 -329 159 -329 397v359h131v-356c0 -206 79 -295 198 -295z" />
    <glyph glyph-name="_191" unicode="&#x2229;" 
d="M459 635c-119 0 -198 -89 -198 -295v-356h-131v359c0 238 107 397 329 397c223 0 330 -159 330 -397v-359h-131v356c0 206 -79 295 -199 295z" />
    <glyph glyph-name="_192" unicode="&#x2227;" 
d="M189 -36l-116 52l357 732h60l357 -732l-115 -52l-273 579z" />
    <glyph glyph-name="_193" unicode="&#x2228;" 
d="M490 -43h-60l-357 732l116 52l270 -579l273 579l115 -52z" />
    <glyph glyph-name="_194" unicode="&#xffe2;" 
d="M116 408v111h687v-357h-129v246h-558z" />
    <glyph glyph-name="_195" unicode="&#x21d2;" 
d="M21 285h659l65 58l-62 52h-662v97h555l-95 84l68 72l347 -305l-346 -315l-69 71l97 89h-557v97z" />
    <glyph glyph-name="_196" unicode="&#x21d4;" 
d="M619 188h-320l92 -92l-72 -68l-319 315l320 305l71 -68l-90 -88h316l-90 88l72 68l319 -305l-318 -315l-73 68zM715 395h-511l-56 -52l59 -58h504l60 58z" />
    <glyph glyph-name="_197" unicode="&#x2200;" 
d="M530 -6h-142l-254 767h146l48 -160h260l50 160h145zM555 486h-193l97 -315z" />
    <glyph glyph-name="_198" unicode="&#x2203;" 
d="M207 761h483v-767h-483v121h344v189h-300v124h300v209h-344v124z" />
    <glyph glyph-name="_199" unicode="&#xb4;" horiz-adv-x="460" 
d="M335 792l-118 -184h-93l88 184h123z" />
    <glyph glyph-name="_201" unicode="&#x2c7;" horiz-adv-x="460" 
d="M34 791h105l90 -95l89 95h105l-141 -184h-107z" />
    <glyph glyph-name="_202" unicode="&#x2d8;" horiz-adv-x="460" 
d="M230 699c45 0 75 30 86 84l98 -17c-21 -106 -90 -155 -184 -155c-95 0 -164 49 -185 155l98 17c11 -54 40 -84 87 -84z" />
    <glyph glyph-name="_203" unicode="&#x2dd;" horiz-adv-x="460" 
d="M239 792l-109 -184h-86l79 184h116zM416 792l-121 -184h-90l94 184h117z" />
    <glyph glyph-name="_204" unicode="&#x2da;" horiz-adv-x="460" 
d="M186 698c0 -29 19 -46 44 -46s43 17 43 46c0 30 -18 48 -43 48s-44 -18 -44 -48zM106 698c0 76 55 121 124 121s124 -45 124 -121c0 -75 -55 -120 -124 -120s-124 45 -124 120z" />
    <glyph glyph-name="_205" unicode="&#x2d9;" horiz-adv-x="460" 
d="M289 765v-134h-119v134h119z" />
    <glyph glyph-name="_206" unicode="&#xb8;" horiz-adv-x="460" 
d="M257 -168c0 25 -33 43 -89 45l-9 13l42 92h95l-24 -53c57 -15 90 -52 90 -106c0 -68 -48 -117 -138 -117c-49 0 -97 20 -128 52l50 67c19 -17 44 -28 68 -28c25 0 43 16 43 35z" />
    <glyph glyph-name="_207" unicode="&#x2db;" horiz-adv-x="460" 
d="M183 -20h109c-65 -38 -92 -81 -92 -116v-6c0 -24 16 -43 44 -43c20 0 42 10 61 29l65 -66c-35 -40 -84 -61 -140 -61c-83 0 -140 49 -140 120v8c0 51 37 105 93 135z" />
    <glyph glyph-name="_208" unicode="&#xa1;" horiz-adv-x="345" 
d="M239 -103v-116h-136v116l20 415h95zM236 547v-136h-130v136h130z" />
    <glyph glyph-name="_209" unicode="&#xbf;" horiz-adv-x="576" 
d="M227 412v135h129v-135h-129zM227 332h129v-35c0 -81 -22 -125 -100 -190c-49 -37 -67 -70 -67 -116c0 -68 38 -108 99 -108c59 0 97 41 105 114l126 -10c-10 -128 -97 -219 -233 -219s-224 91 -224 219c0 85 33 138 97 194c49 42 68 71 68 125v26z" />
    <glyph glyph-name="_211" unicode="&#x222e;" 
d="M239 348c0 99 65 178 156 203v91c0 152 66 224 210 224c29 0 65 -5 98 -13l-12 -104c-27 10 -53 13 -76 13c-62 0 -91 -29 -91 -114v-96c91 -26 157 -105 157 -204c0 -100 -66 -179 -157 -204v-76c0 -153 -66 -225 -210 -225c-29 0 -65 5 -98 13l13 104
c26 -9 52 -14 75 -14c63 0 91 30 91 115v83c-91 26 -156 105 -156 204zM580 348c0 44 -22 80 -56 98v-196c34 18 56 53 56 98zM340 348c0 -44 21 -79 55 -97v194c-34 -18 -55 -53 -55 -97z" />
    <glyph glyph-name="_212" unicode="&#x2211;" 
d="M147 -113v108l230 353l-230 315v107h626v-105h-477l217 -295v-45l-217 -333h477v-105h-626z" />
    <glyph glyph-name="_213" unicode="&#x220f;" 
d="M141 762h635v-877h-140v764h-355v-764h-140v877z" />
    <glyph glyph-name="_214" unicode="&#xa4;" horiz-adv-x="743" 
d="M228 336c0 -89 61 -151 144 -151c81 0 143 62 143 151c0 91 -62 152 -143 152c-83 0 -144 -61 -144 -152zM112 336c0 54 14 102 44 142l-98 100l80 79l103 -104c37 23 83 36 131 36c47 0 93 -13 130 -36l103 104l79 -79l-97 -100c30 -40 45 -88 45 -142
c0 -53 -15 -101 -45 -142l97 -98l-79 -79l-103 103c-37 -22 -83 -36 -130 -36c-48 0 -94 14 -131 36l-103 -103l-80 79l98 98c-30 41 -44 89 -44 142z" />
    <glyph glyph-name="_215" unicode="&#x2109;" 
d="M520 -6h-137v767h452v-124h-315v-198h283v-126h-283v-319zM331 636c0 -78 -56 -132 -136 -132c-77 0 -134 54 -134 132s57 133 134 133c80 0 136 -55 136 -133zM248 636c0 35 -22 57 -53 57c-28 0 -52 -22 -52 -57c0 -33 24 -56 52 -56c31 0 53 23 53 56z" />
    <glyph glyph-name="_216" unicode="&#x2030;" horiz-adv-x="1283" 
d="M561 761h107l-315 -767h-107zM62 521v90c0 88 57 162 159 162c105 0 161 -74 161 -162v-90c0 -88 -56 -162 -161 -162c-102 0 -159 74 -159 162zM165 604v-77c0 -52 23 -77 56 -77c35 0 58 25 58 77v77c0 53 -23 79 -58 79c-33 0 -56 -26 -56 -79zM854 231v-89
c0 -88 -57 -161 -160 -161s-161 73 -161 161v89c0 87 58 162 161 162s160 -75 160 -162zM750 147v78c0 53 -22 78 -55 78c-35 0 -58 -25 -58 -78v-78c0 -53 23 -76 58 -76c33 0 55 23 55 76zM1219 231v-89c0 -88 -57 -161 -161 -161c-102 0 -160 73 -160 161v89
c0 87 58 162 160 162c104 0 161 -75 161 -162zM1115 147v78c0 53 -22 78 -57 78c-33 0 -56 -25 -56 -78v-78c0 -53 23 -76 56 -76c35 0 57 23 57 76z" />
    <glyph glyph-name="_217" unicode="&#x25c1;" 
d="M856 -90l-792 454l792 454v-908zM753 654l-508 -290l508 -290v580z" />
    <glyph glyph-name="_218" unicode="&#x25c0;" 
d="M856 -90l-792 454l792 454v-908z" />
    <glyph glyph-name="_219" unicode="&#x25b7;" 
d="M64 -90v908l792 -454zM167 654v-580l508 290z" />
    <glyph glyph-name="_220" unicode="&#x25b6;" 
d="M64 -90v908l792 -454z" />
    <glyph glyph-name="_221" unicode="&#x2664;" 
d="M33 359c0 83 61 165 143 237c80 69 187 138 284 195c98 -56 203 -124 283 -194c82 -72 144 -155 144 -238c0 -58 -26 -108 -61 -140c-36 -33 -91 -49 -141 -48c-62 0 -125 28 -159 72c12 -100 66 -181 174 -206v-68h-482v68c105 23 161 108 173 205
c-31 -44 -97 -71 -157 -71c-54 -1 -110 19 -145 50c-34 32 -56 80 -56 138zM437 401h47c4 -41 28 -83 66 -112c35 -27 87 -35 125 -35c75 0 115 44 115 116c0 60 -51 121 -116 177c-65 58 -146 117 -214 156c-70 -42 -151 -99 -219 -161c-67 -60 -110 -117 -110 -172
c0 -72 32 -122 113 -122c32 0 85 13 122 39c38 27 68 72 71 114zM351 31h216v4c-75 49 -101 148 -106 250h-4c-7 -104 -30 -200 -106 -250v-4z" />
    <glyph glyph-name="_222" unicode="&#x2660;" 
d="M32 358c0 160 236 317 428 431c184 -110 426 -268 426 -431c0 -117 -92 -192 -195 -192c-71 0 -141 33 -177 89c13 -105 76 -197 185 -222v-63h-481v63c105 25 169 116 183 219c-35 -50 -102 -86 -168 -86c-113 0 -201 71 -201 192z" />
    <glyph glyph-name="_223" unicode="&#x2661;" 
d="M460 526c31 108 119 184 225 184c110 0 201 -80 201 -219c0 -223 -221 -429 -426 -535c-210 108 -428 308 -428 535c0 135 90 219 202 219c102 0 190 -77 226 -184zM460 58c152 76 326 270 326 422c0 94 -41 145 -109 145c-100 0 -160 -105 -181 -197h-75
c-21 91 -84 197 -178 197c-67 0 -111 -51 -111 -145c0 -158 173 -337 328 -422z" />
    <glyph glyph-name="_224" unicode="&#x2665;" 
d="M460 526c31 108 119 184 225 184c110 0 201 -80 201 -219c0 -223 -221 -429 -426 -535c-210 108 -428 308 -428 535c0 135 90 219 202 219c102 0 190 -77 226 -184z" />
    <glyph glyph-name="_225" unicode="&#x2667;" 
d="M641 608c0 -97 -77 -180 -182 -180s-182 82 -182 180c0 97 77 180 182 180c103 0 182 -84 182 -180zM700 36v-68h-482v68c114 24 193 129 210 268h62c16 -143 94 -241 210 -268zM556 608c0 60 -42 102 -97 102c-57 0 -97 -42 -97 -102c0 -61 40 -103 97 -103
c56 0 97 42 97 103zM350 33h218v3c-55 23 -99 85 -107 152h-4c-9 -66 -56 -130 -107 -152v-3zM396 310c0 -98 -77 -180 -183 -180c-104 0 -182 81 -182 180c0 97 78 180 182 180s183 -84 183 -180zM311 310c0 60 -42 102 -98 102s-97 -42 -97 -102c0 -61 41 -103 97 -103
c57 0 98 42 98 103zM889 310c0 -98 -78 -180 -183 -180s-182 81 -182 180c0 97 77 180 182 180c103 0 183 -84 183 -180zM803 310c0 60 -42 102 -97 102c-57 0 -97 -42 -97 -102c0 -61 40 -103 97 -103c56 0 97 42 97 103z" />
    <glyph glyph-name="_226" unicode="&#x2663;" 
d="M641 608c0 -98 -80 -180 -182 -180c-105 0 -183 83 -183 180s81 180 183 180s182 -86 182 -180zM700 32v-64h-482v64c112 24 200 138 214 271h53c14 -137 101 -245 215 -271zM396 309c0 -97 -81 -179 -183 -179c-104 0 -182 83 -182 179c0 98 80 180 182 180
s183 -84 183 -180zM888 309c0 -97 -80 -179 -182 -179c-105 0 -183 83 -183 179c0 98 80 180 183 180c102 0 182 -85 182 -180z" />
    <glyph glyph-name="_228" unicode="&#x25c8;" 
d="M12 363l448 471l448 -471l-448 -471zM781 363l-321 339l-322 -339l322 -339zM262 362l197 206l197 -206l-197 -206z" />
    <glyph glyph-name="_229" unicode="&#x25a3;" 
d="M177 648v-574h566v574h-566zM841 740v-756h-762v756h762zM632 188h-344v347h344v-347z" />
    <glyph glyph-name="_230" unicode="&#x25d0;" 
d="M894 362c0 -246 -188 -434 -434 -434c-247 0 -434 188 -434 434s188 434 434 434s434 -188 434 -434zM799 362c0 196 -142 345 -339 345v-691c197 0 339 149 339 346z" />
    <glyph glyph-name="_231" unicode="&#x25d1;" 
d="M26 362c0 246 188 434 433 434c247 0 435 -188 435 -434s-187 -434 -435 -434c-246 0 -433 188 -433 434zM121 362c0 -197 142 -346 338 -346v691c-196 0 -338 -149 -338 -345z" />
    <glyph glyph-name="_232" unicode="&#x2592;" 
d="M491 51h-66v68h66v-68zM606 51v68h63v-68h-63zM580 119v-68h-65v68h65zM311 119v-68h-63v68h63zM222 119v-68h-65v68h65zM400 119v-68h-64v68h64zM694 51v68h65v-68h-65zM491 145h-66v65h66v-65zM606 145v65h63v-65h-63zM580 210v-65h-65v65h65zM311 210v-65h-63v65h63z
M222 210v-65h-65v65h65zM400 210v-65h-64v65h64zM694 145v65h65v-65h-65zM491 235h-66v66h66v-66zM606 235v66h63v-66h-63zM580 301v-66h-65v66h65zM311 301v-66h-63v66h63zM222 301v-66h-65v66h65zM400 301v-66h-64v66h64zM694 235v66h65v-66h-65zM491 325h-66v70h66v-70z
M606 325v70h63v-70h-63zM580 395v-70h-65v70h65zM311 395v-70h-63v70h63zM222 395v-70h-65v70h65zM400 395v-70h-64v70h64zM694 325v70h65v-70h-65zM491 420h-66v66h66v-66zM606 420v66h63v-66h-63zM580 486v-66h-65v66h65zM311 486v-66h-63v66h63zM222 486v-66h-65v66h65z
M400 486v-66h-64v66h64zM694 420v66h65v-66h-65zM491 510h-66v66h66v-66zM606 510v66h63v-66h-63zM580 576v-66h-65v66h65zM311 576v-66h-63v66h63zM222 576v-66h-65v66h65zM400 576v-66h-64v66h64zM694 510v66h65v-66h-65zM491 601h-66v68h66v-68zM606 601v68h63v-68h-63z
M580 669v-68h-65v68h65zM311 669v-68h-63v68h63zM222 669v-68h-65v68h65zM400 669v-68h-64v68h64zM694 601v68h65v-68h-65zM848 746v-769h-776v769h776zM132 692v-666h654v666h-654z" />
    <glyph glyph-name="_233" unicode="&#x25a4;" 
d="M848 746v-769h-776v769h776zM786 387h-654v-55h654v55zM786 176h-654v-52h654v52zM786 280h-654v-52h654v52zM786 490h-654v-52h654v52zM786 595h-654v-52h654v52zM132 72v-46h654v46h-654zM132 647h654v45h-654v-45z" />
    <glyph glyph-name="_234" unicode="&#x25a5;" 
d="M848 746v-769h-776v769h776zM281 692h-50v-666h50v666zM483 692h-49v-666h49v666zM686 692h-50v-666h50v666zM382 692h-49v-666h49v666zM584 692h-49v-666h49v666zM738 692v-666h48v666h-48zM180 692h-48v-666h48v666z" />
    <glyph glyph-name="_235" unicode="&#x25a8;" 
d="M848 746v-769h-776v769h776zM687 692l-554 -553v-70l623 623h-69zM787 654l-627 -628h66l561 561v67zM787 517l-490 -491h71l419 418v73zM546 692l-413 -412v-72l485 484h-72zM787 374l-348 -348h71l277 278v70zM409 692l-276 -275v-71l346 346h-70zM787 234l-206 -208
h71l135 136v72zM267 692l-134 -134v-71l205 205h-71zM197 692h-64v-65zM787 92l-64 -66h64v66z" />
    <glyph glyph-name="_236" unicode="&#x25a7;" 
d="M848 746v-769h-776v769h776zM164 692l623 -623v70l-554 553h-69zM133 587l561 -561h66l-627 628v-67zM133 444l419 -418h71l-490 491v-73zM302 692l485 -484v72l-413 412h-72zM133 304l277 -278h71l-348 348v-70zM441 692l346 -346v71l-276 275h-70zM133 162l135 -136h71
l-206 208v-72zM582 692l205 -205v71l-134 134h-71zM723 692l64 -65v65h-64zM133 92v-66h64z" />
    <glyph glyph-name="_237" unicode="&#x25a6;" 
d="M848 746v-769h-776v769h776zM485 389h-53v-59h53v59zM283 389h-54v-59h54v59zM688 389h-54v-59h54v59zM586 389h-53v-59h53v59zM384 389h-53v-59h53v59zM485 282h-53v-56h53v56zM485 178h-53v-56h53v56zM485 492h-53v-56h53v56zM485 597h-53v-56h53v56zM283 492h-54v-56
h54v56zM283 178h-54v-56h54v56zM283 282h-54v-56h54v56zM283 597h-54v-56h54v56zM688 178h-54v-56h54v56zM688 282h-54v-56h54v56zM688 492h-54v-56h54v56zM688 597h-54v-56h54v56zM586 178h-53v-56h53v56zM586 492h-53v-56h53v56zM586 597h-53v-56h53v56zM586 282h-53v-56
h53v56zM384 178h-53v-56h53v56zM384 282h-53v-56h53v56zM384 492h-53v-56h53v56zM384 597h-53v-56h53v56zM182 389h-50v-59h50v59zM786 389h-50v-59h50v59zM182 178h-50v-56h50v56zM182 492h-50v-56h50v56zM182 597h-50v-56h50v56zM786 282h-50v-56h50v56zM786 492h-50v-56
h50v56zM786 178h-50v-56h50v56zM786 597h-50v-56h50v56zM182 282h-50v-56h50v56zM485 74h-53v-48h53v48zM688 74h-54v-48h54v48zM283 74h-54v-48h54v48zM283 692h-54v-47h54v47zM485 692h-53v-47h53v47zM688 692h-54v-47h54v47zM586 74h-53v-48h53v48zM384 74h-53v-48h53v48
zM586 692h-53v-47h53v47zM384 692h-53v-47h53v47zM736 74v-48h50v48h-50zM182 74h-50v-48h50v48zM182 692h-50v-47h50v47zM736 645h50v47h-50v-47z" />
    <glyph glyph-name="_238" unicode="&#x25a9;" 
d="M848 746v-769h-776v769h776zM251 400l-38 -38l38 -38l38 38zM460 192l-38 -39l38 -37l38 38zM183 469l-39 -39l38 -37l38 38zM460 608l-38 -38l38 -38l38 38zM706 362l-38 38l-38 -38l38 -38zM775 430l-39 38l-37 -37l39 -38zM322 330l-39 -39l37 -37l39 39zM568 83
l-37 37l-38 -38l38 -37zM391 676l-38 -37l37 -38l38 38zM528 676l-37 -37l38 -38l37 37zM180 188l-38 -38l37 -37l38 38zM740 329l-38 -38l37 -37l38 38zM180 329l-37 -37l38 -38l37 37zM426 82l-37 38l-37 -37l37 -38zM777 150l-38 38l-36 -37l37 -38zM530 537l-38 -37
l37 -37l38 38zM635 291l-38 38l-36 -36l38 -38zM389 538l-37 -37l38 -38l37 37zM250 258l-37 -37l37 -37l37 37zM250 677l-37 -37l38 -37l36 36zM358 569l-38 37l-36 -36l37 -38zM670 677l-38 -38l37 -36l37 37zM496 430l-37 37l-36 -36l37 -37zM635 569l-36 37l-37 -37
l36 -37zM706 221l-37 37l-37 -37l37 -37zM566 222l-38 38l-35 -35l38 -38zM358 431l-38 38l-36 -36l38 -38zM392 260l-39 -39l35 -35l39 39zM289 500l-38 37l-35 -35l37 -38zM739 608l-38 -38l36 -35l37 37zM218 570l-37 38l-36 -36l38 -37zM599 468l-37 -38l35 -35l38 38z
M708 80l-38 38l-35 -36l38 -37zM285 83l-35 35l-38 -38l35 -35zM637 152l-37 37l-36 -36l37 -37zM668 537l-37 -37l35 -36l37 37zM427 361l-37 37l-35 -35l37 -37zM320 188l-37 -37l35 -35l37 37zM529 397l-36 -36l35 -35l36 36zM460 328l-35 -35l35 -35l35 35zM318 49
l-23 -23h46zM460 49l-23 -23h46zM602 49l-23 -23h46zM439 692l21 -21l21 21h-42zM741 47l-20 -21h41zM179 47l-21 -21h41zM300 692l20 -20l20 20h-40zM580 692l20 -20l20 20h-40zM739 673l19 19h-37zM162 692l18 -19l19 19h-37zM770 502l17 -17v34zM150 502l-17 17v-34z
M149 360l-16 16v-32zM771 360l16 -16v32zM148 640l-15 16v-31zM771 640l16 -15v31zM772 221l15 -15v30zM148 221l-15 15v-30zM773 80l14 -13v27zM146 80l-13 14v-27z" />
    <glyph glyph-name="_239" unicode="&#x2668;" 
d="M530 336c0 -70 -39 -149 -95 -195c-28 -22 -60 5 -46 32c24 38 37 93 38 143c1 42 -13 87 -28 129c-15 45 -30 94 -29 137c1 35 13 71 31 104c18 31 48 64 75 85c25 21 58 -3 37 -32c-29 -40 -39 -89 -39 -138c-1 -41 13 -86 27 -130s29 -91 29 -135zM370 336
c0 -79 -43 -146 -90 -183c-33 -25 -60 -1 -44 26c21 36 36 89 33 136c-2 31 -14 64 -29 97c-14 32 -27 73 -29 110c-4 83 42 151 95 197c29 25 64 2 40 -34c-29 -42 -36 -90 -33 -143c2 -36 13 -75 27 -104c15 -33 30 -67 30 -102zM214 303c25 3 30 -32 6 -37
c-55 -13 -90 -44 -90 -85c0 -64 177 -95 331 -95s330 35 330 98c0 37 -34 66 -76 74c-21 4 -12 39 6 37c101 -9 167 -67 167 -131c0 -125 -222 -188 -427 -188c-204 0 -430 58 -428 183c1 77 64 134 181 144zM690 336c0 -79 -43 -146 -90 -183c-33 -25 -60 -1 -44 26
c21 36 36 89 33 136c-2 31 -14 64 -29 97c-14 32 -27 73 -29 110c-4 83 42 151 95 197c29 25 64 2 40 -34c-29 -42 -36 -90 -33 -143c2 -36 13 -75 27 -104c15 -33 30 -67 30 -102z" />
    <glyph glyph-name="_240" unicode="&#x260f;" 
d="M231 687h460c145 -2 192 -126 199 -223c0 -24 -8 -36 -28 -34l-165 17c-26 3 -32 23 -32 47c0 14 0 28 -1 40c-2 20 -9 34 -31 34h-10v-89c27 -16 104 -89 150 -160c29 -45 49 -99 49 -145l-7 -86c-2 -26 -12 -40 -36 -40h-634c-26 0 -36 8 -38 33l-8 88
c0 127 143 278 199 310v89h-10c-33 0 -28 -30 -28 -66v-19c0 -21 -8 -34 -29 -36l-173 -17c-19 -2 -30 12 -30 34c5 99 54 221 203 223zM486 486v82h-51v-82h51zM724 517v-18l99 -12c-8 78 -52 148 -130 148h-465c-92 0 -127 -81 -131 -144l101 11v20c0 64 14 98 76 98h358
c75 0 92 -39 92 -103zM312 268c0 86 66 146 151 146c83 0 149 -64 149 -146c0 -85 -65 -146 -149 -146c-88 0 -151 58 -151 146zM166 167l4 -59h580l7 63c-2 102 -121 248 -193 280v117h-19v-133h-170v133h-18v-117c-76 -45 -187 -180 -191 -284zM549 268
c0 49 -36 91 -86 91c-53 0 -88 -40 -88 -91s34 -91 88 -91c51 0 86 40 86 91z" />
    <glyph glyph-name="_241" unicode="&#x260e;" 
d="M108 79l-8 89c0 68 43 146 91 206c46 56 90 94 123 106v99h-30c-15 0 -23 -14 -26 -37c-2 -17 -2 -45 -2 -62c0 -18 -8 -31 -25 -32l-171 -17c-23 -2 -32 7 -31 33c2 43 12 92 36 133c30 51 79 90 161 90h470c79 0 128 -42 157 -92c24 -40 35 -91 37 -131
c1 -27 -10 -35 -32 -33l-167 17c-18 2 -26 12 -26 28c0 18 -1 46 -4 66c-3 22 -11 37 -24 37h-29v-99c30 -10 77 -50 121 -105c49 -60 93 -137 93 -202l-8 -95c-2 -21 -16 -31 -34 -31h-638c-22 0 -32 12 -34 32zM590 266c0 70 -57 127 -127 127c-73 0 -128 -55 -128 -127
c0 -74 54 -128 128 -128c72 0 127 57 127 128zM410 483h102v96h-102v-96z" />
    <glyph glyph-name="_242" unicode="&#x261c;" 
d="M903 494v-373h-120v15h-44c-11 0 -15 5 -15 15v44c-38 2 -61 -17 -86 -34c-45 -31 -76 -43 -144 -43c-11 0 -21 1 -31 1h-26c-28 0 -72 5 -90 29c-32 5 -51 42 -51 62c0 5 1 10 3 14c-16 10 -25 33 -25 50c0 9 2 17 6 24c-15 10 -24 40 -24 53c0 2 0 5 1 6h-183
c-37 0 -57 29 -57 60c0 29 19 60 60 60h263c7 47 52 49 96 49h12c50 0 104 -3 144 -32c43 -31 77 -65 121 -65h11v36c0 10 4 16 16 16h43v13h120zM356 406c-1 -2 -1 -3 -1 -4c0 -6 9 -6 15 -6c26 0 46 14 54 40c3 10 11 15 18 15c8 0 15 -6 16 -19c3 -52 32 -90 77 -116
c9 -5 12 -13 12 -19c0 -9 -6 -17 -17 -17c-15 0 -39 14 -50 21c6 -24 11 -55 11 -82c0 -53 -20 -61 -71 -65c8 -2 19 -2 27 -2c22 0 43 3 56 3c27 0 52 5 80 20c13 7 29 18 45 28c42 27 66 31 96 30v156h-9c-48 0 -76 17 -115 51c-46 41 -90 47 -152 47h-30
c-26 0 -39 -3 -41 -21c-2 -21 -10 -40 -21 -60zM332 436v1h-249c-14 0 -26 -6 -26 -20c0 -15 9 -21 26 -21h231c0 12 18 40 18 40zM763 442v-267h20v267h-20zM438 276v2c-1 9 -9 12 -24 12c-23 -3 -45 -4 -66 -4h-20c-8 0 -12 -7 -12 -13c0 -18 12 -19 30 -19s47 2 68 5
c14 2 24 9 24 17zM397 359c-20 -2 -55 -2 -76 -1c-15 1 -21 -3 -21 -15c0 -14 11 -18 27 -18c26 0 49 1 66 4l13 2c8 1 13 9 13 16c-1 8 -8 12 -22 12zM450 206v4c-2 7 -8 11 -18 11c-21 -3 -42 -4 -64 -4h-20c-6 0 -9 -4 -9 -10c0 -18 11 -20 32 -20c14 0 37 1 54 3
c14 2 25 7 25 16z" />
    <glyph glyph-name="_243" unicode="&#x261e;" 
d="M137 136v-15h-120v373h120v-13h43c12 0 16 -6 16 -16v-36h11c44 0 78 34 121 65c40 29 94 32 144 32h12c44 0 89 -2 96 -49h263c41 0 60 -31 60 -60c0 -31 -20 -60 -57 -60h-183c1 -1 1 -4 1 -6c0 -13 -9 -43 -24 -53c4 -7 6 -15 6 -24c0 -17 -9 -40 -25 -50
c2 -4 3 -9 3 -14c0 -20 -19 -57 -51 -62c-18 -24 -62 -29 -90 -29h-26c-10 0 -20 -1 -31 -1c-68 0 -99 12 -144 43c-25 17 -48 36 -86 34v-44c0 -10 -4 -15 -15 -15h-44zM564 406c-11 20 -19 39 -21 60c-2 18 -15 21 -41 21h-30c-62 0 -106 -6 -152 -47
c-39 -34 -67 -51 -115 -51h-9v-156c30 1 54 -3 96 -30c16 -10 32 -21 45 -28c28 -15 53 -20 80 -20c13 0 34 -3 56 -3c8 0 19 0 27 2c-51 4 -71 12 -71 65c0 27 5 58 11 82c-11 -7 -35 -21 -50 -21c-11 0 -17 8 -17 17c0 6 3 14 12 19c45 26 74 64 77 116c1 13 8 19 16 19
c7 0 15 -5 18 -15c8 -26 28 -40 54 -40c6 0 15 0 15 6c0 1 0 2 -1 4zM837 437h-249v-1s18 -28 18 -40h231c17 0 26 6 26 21c0 14 -12 20 -26 20zM137 442v-267h20v267h-20zM482 278v-2c0 -8 10 -15 24 -17c21 -3 50 -5 68 -5s30 1 30 19c0 6 -4 13 -12 13h-20
c-21 0 -43 1 -66 4c-15 0 -23 -3 -24 -12zM523 359c-14 0 -21 -4 -22 -12c0 -7 5 -15 13 -16l13 -2c17 -3 40 -4 66 -4c16 0 27 4 27 18c0 12 -6 16 -21 15c-21 -1 -56 -1 -76 1zM470 210v-4c0 -9 11 -14 25 -16c17 -2 40 -3 54 -3c21 0 32 2 32 20c0 6 -3 10 -9 10h-20
c-22 0 -43 1 -64 4c-10 0 -16 -4 -18 -11z" />
    <glyph glyph-name="_244" unicode="&#xb6;" 
d="M448 764h282v-949h-108v848h-49v-848h-110v463h-12c-14 0 -28 2 -41 7c-128 11 -222 95 -222 236c0 157 111 243 260 243z" />
    <glyph glyph-name="_245" unicode="&#x2020;" 
d="M528 623h181v-101h-181v-710h-137v710h-180v101h180v195h137v-195z" />
    <glyph glyph-name="_246" unicode="&#x2021;" 
d="M528 109h181v-101h-181v-196h-137v196h-180v101h180v413h-180v101h180v195h137v-195h181v-101h-181v-413z" />
    <glyph glyph-name="_247" unicode="&#x2195;" 
d="M513 591v-445l193 55l-247 -282l-247 282l191 -55v445l-191 -56l247 284l247 -284z" />
    <glyph glyph-name="_248" unicode="&#x2197;" 
d="M673 448l-467 -467l-87 85l468 467l-171 92l384 35l-35 -384z" />
    <glyph glyph-name="_249" unicode="&#x2199;" 
d="M247 211l467 467l86 -85l-467 -467l171 -92l-385 -35l35 384z" />
    <glyph glyph-name="_250" unicode="&#x2196;" 
d="M503 625l-171 -93l468 -467l-86 -84l-468 466l-92 -171l-36 383z" />
    <glyph glyph-name="_251" unicode="&#x2198;" 
d="M205 678l467 -467l93 172l35 -384l-385 35l171 92l-467 467z" />
    <glyph glyph-name="_252" unicode="&#x266d;" 
d="M270 819h73v-499c29 57 79 105 154 105c89 0 153 -73 153 -177c0 -168 -186 -307 -380 -305v876zM343 167v-160c108 8 198 118 198 227c0 84 -25 121 -73 121c-68 0 -125 -84 -125 -188z" />
    <glyph glyph-name="_253" unicode="&#x2669;" 
d="M557 120v701h70v-755c0 -114 -101 -191 -227 -191c-62 0 -108 34 -108 93c0 87 102 162 199 162c25 0 50 -4 66 -10z" />
    <glyph glyph-name="_254" unicode="&#x266a;" 
d="M498 558v-491c0 -114 -101 -191 -227 -191c-62 0 -108 34 -108 93c0 87 101 163 199 163c25 0 49 -4 66 -12v699h53c-1 -102 49 -151 127 -210c80 -60 148 -141 148 -247c0 -104 -46 -195 -98 -263h-34c40 67 64 150 64 225c0 116 -83 199 -190 234z" />
    <glyph glyph-name="_255" unicode="&#x266c;" 
d="M364 530l455 107v72l-455 -104v-75zM819 524l-455 -107v-351c0 -113 -102 -190 -227 -190c-62 0 -108 34 -108 93c0 88 101 161 198 161c26 0 50 -4 67 -11v589l595 133v-666c0 -114 -102 -189 -227 -189c-62 0 -108 34 -108 91c0 87 101 162 198 162c26 0 50 -3 67 -10
v295z" />
    <glyph glyph-name="_256" unicode="&#x327f;" 
d="M404 609v-200l44 31c60 42 81 78 81 156v13h104v-13c0 -111 -30 -165 -101 -214l146 -262h-114l-113 206l-47 -31v-175h-104v489h104zM864 426h-61c-23 172 -159 295 -344 295c-203 0 -332 -146 -341 -328h133v-52h-199c-2 272 179 437 407 437c209 0 380 -143 405 -352z
M55 303h61c22 -171 159 -295 344 -295c203 0 332 146 341 328h-133v52h199c2 -272 -179 -437 -407 -437c-209 0 -380 143 -405 352z" />
    <glyph glyph-name="_257" unicode="&#x321c;" 
d="M725 222h-211v-177h-109v177h-210v91h530v-91zM666 553h-151c20 -63 101 -109 190 -128c-17 -28 -33 -56 -50 -84c-75 17 -155 58 -195 111c-41 -53 -121 -94 -196 -111c-16 28 -32 56 -50 84c89 19 170 65 190 128h-151v92h413v-92zM42 370c0 143 53 282 138 399h61
c-80 -119 -133 -263 -133 -399c0 -137 53 -280 133 -399h-61c-85 117 -138 255 -138 399zM878 370c0 -144 -53 -282 -138 -399h-61c80 119 132 262 132 399c0 136 -52 280 -132 399h61c85 -117 138 -256 138 -399z" />
    <glyph glyph-name="_258" unicode="&#x2116;" horiz-adv-x="1001" 
d="M73 761h119c65 -155 131 -309 195 -463v463h128v-767h-117c-65 152 -131 306 -196 461v-461h-129v767zM583 -6v89h353v-89h-353zM759 129c-111 0 -188 70 -188 179v85c0 108 77 179 188 179s190 -71 190 -179v-85c0 -109 -79 -179 -190 -179zM759 233c44 0 64 35 64 84
v67c0 48 -20 83 -64 83c-47 0 -63 -44 -63 -96v-54c0 -49 20 -84 63 -84z" />
    <glyph glyph-name="_259" unicode="&#x33c7;" 
d="M877 135v-141h-98v141h98zM64 197v357c0 129 58 219 177 219c127 0 167 -95 179 -239l-113 -9c-9 87 -17 134 -66 134c-53 0 -63 -59 -63 -155v-299c0 -70 24 -112 63 -112c50 0 57 48 66 134l113 -9c-12 -142 -52 -237 -179 -237c-119 0 -177 90 -177 216zM754 379v-226
c0 -110 -56 -172 -151 -172c-94 0 -150 62 -150 172v226c0 113 55 175 150 175s151 -62 151 -175zM650 151v206c0 63 -6 100 -47 100c-39 0 -47 -39 -47 -100v-181c0 -63 9 -101 47 -101c35 0 47 26 47 76z" />
    <glyph glyph-name="_260" unicode="&#x2122;" horiz-adv-x="725" 
d="M329 763h77l104 -195l103 195h77v-382h-93v199l-57 -111h-60l-59 111v-199h-92v382zM300 763v-84h-96v-298h-92v298h-98v84h286z" />
    <glyph glyph-name="_261" unicode="&#x33c2;" 
d="M655 -6h-98v420c0 29 -6 41 -23 41s-28 -16 -31 -43v-418h-97v547h97v-52c9 39 35 65 70 65c38 0 62 -22 73 -60c13 37 40 60 76 60c57 0 85 -40 85 -130v-430h-97v420c0 29 -7 41 -25 41c-16 0 -26 -16 -30 -42v-419zM178 459c-23 0 -30 -24 -31 -64l-91 9
c3 94 40 150 123 150c78 0 117 -47 117 -154v-406h-92v40c-8 -33 -30 -51 -69 -51c-63 0 -98 53 -98 153v16c0 106 51 164 146 164h21v99c0 32 -8 44 -26 44zM165 80c20 0 36 16 39 44v99h-20c-39 0 -57 -25 -57 -71v-9c0 -42 9 -63 38 -63zM896 135v-141h-70v141h70z
M386 135v-141h-70v141h70z" />
    <glyph glyph-name="_262" unicode="&#x33d8;" 
d="M655 -6h-98v420c0 29 -6 41 -23 41c-16 0 -28 -16 -31 -43v-418h-97v547h97v-52c9 39 35 65 70 65c39 0 63 -22 73 -60c14 37 40 60 76 60c58 0 85 -40 85 -130v-430h-97v420c0 29 -7 41 -24 41s-27 -16 -31 -42v-419zM135 43v-288h-92v784h92v-49c10 38 34 62 75 62
c51 0 85 -39 85 -132v-309c0 -91 -34 -130 -85 -130c-41 0 -65 24 -75 62zM135 407v-283c4 -28 17 -44 36 -44c22 0 33 11 33 50v271c0 40 -11 52 -33 52c-19 0 -32 -18 -36 -46zM896 135v-141h-70v141h70zM386 135v-141h-70v141h70z" />
    <glyph glyph-name="_263" unicode="&#x2121;" 
d="M38 761h346v-106h-112v-661h-121v661h-113v106zM900 98v-104h-39c-104 0 -150 53 -150 165v614h111v-605c0 -50 15 -70 55 -70h23zM550 317v67c0 46 -19 71 -52 71c-31 0 -49 -23 -49 -71v-67h101zM498 -18c-109 0 -159 79 -159 197v194c0 112 61 181 159 181
c100 0 163 -69 163 -181v-145h-212v-79c0 -47 20 -68 49 -68c32 0 46 23 49 74l110 -5c-10 -108 -63 -168 -159 -168z" />
    <glyph glyph-name="_265" unicode="&#xff02;" 
d="M318 530l-17 232h123l-17 -232h-89zM512 530l-17 232h124l-18 -232h-89z" />
    <glyph glyph-name="_266" unicode="&#xff03;" 
d="M308 -6h-133l42 187h-100v112h125l35 166h-123v113h147l41 189h132l-40 -189h137l40 189h134l-43 -189h100v-113h-124l-35 -166h122v-112h-147l-40 -187h-132l40 187h-138zM546 459h-136l-37 -166h137z" />
    <glyph glyph-name="_267" unicode="&#xff04;" 
d="M739 209c0 -122 -80 -214 -225 -228v-81h-103v86c-116 20 -200 99 -231 224l140 22c15 -59 46 -97 91 -116v213c-140 29 -211 104 -211 222c0 104 70 205 211 221v83h103v-86c108 -21 184 -96 208 -209l-139 -21c-11 44 -33 79 -69 97v-200c161 -30 225 -111 225 -227z
M599 208c0 48 -26 81 -85 100v-201c53 13 85 49 85 101zM341 552c0 -42 21 -73 70 -93v186c-47 -15 -70 -52 -70 -93z" />
    <glyph glyph-name="_268" unicode="&#xff05;" 
d="M673 761l-318 -767h-110l318 767h110zM274 528v74c0 50 -19 78 -54 78s-53 -28 -53 -78v-74c0 -49 18 -77 53 -77s54 28 54 77zM382 611v-91c0 -88 -56 -163 -162 -163c-102 0 -160 75 -160 163v91c0 88 58 163 160 163c106 0 162 -75 162 -163zM645 223v-73
c0 -50 17 -78 53 -78c35 0 52 28 52 78v73c0 50 -17 78 -52 78c-36 0 -53 -28 -53 -78zM537 142v91c0 87 58 163 162 163s161 -76 161 -163v-91c0 -89 -57 -162 -161 -162s-162 73 -162 162z" />
    <glyph glyph-name="_269" unicode="&#xff06;" 
d="M169 192c0 91 45 161 148 234c-63 73 -86 117 -86 174c0 101 75 176 193 176c117 0 189 -73 189 -176c0 -72 -31 -127 -106 -194l115 -136c14 43 19 92 19 141l139 -9c-1 -96 -19 -183 -53 -252l140 -159h-176l-50 54c-53 -45 -125 -68 -213 -68c-159 0 -259 93 -259 215
zM432 101c49 0 89 18 120 46l-150 178c-60 -44 -86 -85 -86 -131c0 -53 45 -93 116 -93zM371 599c0 -27 17 -60 51 -96c34 28 53 59 53 96c0 32 -23 54 -51 54c-32 0 -53 -21 -53 -54z" />
    <glyph glyph-name="_270" unicode="&#xff07;" 
d="M416 530l-17 232h122l-17 -232h-88z" />
    <glyph glyph-name="_273" unicode="&#xff0a;" 
d="M412 267l-145 -93l-53 94l158 82l-158 79l53 96l145 -93l-12 167h122l-11 -167l144 93l51 -96l-155 -79l155 -82l-51 -94l-144 93l11 -167h-122z" />
    <glyph glyph-name="_274" unicode="&#xff0b;" 
d="M216 297v106h182v197h124v-197h181v-106h-181v-199h-124v199h-182z" />
    <glyph glyph-name="_276" unicode="&#xff0d;" 
d="M285 292v115h350v-115h-350z" />
    <glyph glyph-name="_278" unicode="&#xff0f;" 
d="M703 853l-350 -962h-136l351 962h135z" />
    <glyph glyph-name="_279" unicode="&#xff10;" 
d="M571 258v237c0 126 -51 162 -111 162c-61 0 -111 -36 -111 -162v-222c0 -138 47 -177 111 -177c60 0 111 35 111 162zM702 508v-265c0 -167 -96 -263 -242 -263s-243 96 -243 263v265c0 168 97 266 243 266s242 -98 242 -266z" />
    <glyph glyph-name="_280" unicode="&#xff11;" 
d="M699 -7h-430v114h150v515l-150 -63v125l170 78h112v-655h148v-114z" />
    <glyph glyph-name="_281" unicode="&#xff12;" 
d="M697 542c0 -79 -28 -126 -77 -182l-222 -254h299v-113h-475v96l297 342c35 39 45 72 45 110c0 79 -43 120 -104 120c-64 0 -106 -41 -106 -120v-26l-132 9v18c0 132 90 233 238 233c143 0 237 -101 237 -233z" />
    <glyph glyph-name="_282" unicode="&#xff13;" 
d="M459 377c-21 0 -38 -6 -54 -14l-65 71l177 214h-276v114h433v-108l-160 -189c119 -6 188 -94 188 -232c0 -145 -82 -254 -242 -254s-243 107 -243 253v3l132 8v-9c0 -97 46 -141 111 -141s111 44 111 141s-44 143 -112 143z" />
    <glyph glyph-name="_283" unicode="&#xff14;" 
d="M335 263h170v292zM720 263v-115h-83v-155h-132v155h-305v110l292 504h145v-499h83z" />
    <glyph glyph-name="_284" unicode="&#xff15;" 
d="M217 234l132 8v-4c0 -93 38 -145 111 -145c72 0 111 51 111 151c0 109 -45 151 -113 151c-33 0 -64 -17 -81 -43h-128v410h412v-114h-279v-179c25 26 61 41 103 41c125 0 218 -89 218 -267c0 -163 -87 -264 -243 -264c-157 0 -243 102 -243 255z" />
    <glyph glyph-name="_285" unicode="&#xff16;" 
d="M211 225c0 41 9 81 27 115l204 421h139l-143 -295c7 1 15 1 22 1c147 0 248 -107 248 -243s-100 -244 -248 -244c-149 0 -249 108 -249 245zM340 225c0 -82 48 -134 120 -134c70 0 119 52 119 134s-49 133 -119 133c-72 0 -120 -52 -120 -133z" />
    <glyph glyph-name="_286" unicode="&#xff17;" 
d="M223 648v114h473v-97l-247 -672h-138l239 655h-327z" />
    <glyph glyph-name="_287" unicode="&#xff18;" 
d="M460 -21c-149 0 -249 109 -249 246c0 85 43 159 110 192c-47 31 -82 87 -82 151c0 115 89 207 221 207s221 -92 221 -208c0 -64 -35 -120 -82 -150c66 -33 109 -108 109 -193c0 -137 -99 -245 -248 -245zM460 361c-71 0 -119 -57 -119 -136c0 -78 48 -133 119 -133
c72 0 120 55 120 133c0 79 -48 136 -120 136zM460 663c-56 0 -94 -42 -94 -97c0 -56 38 -97 94 -97s94 41 94 97c0 55 -38 97 -94 97z" />
    <glyph glyph-name="_288" unicode="&#xff19;" 
d="M709 528c0 -42 -10 -81 -27 -116l-204 -418h-139l142 293c-7 -1 -14 -2 -21 -2c-147 0 -249 107 -249 243c0 137 100 246 249 246c148 0 249 -109 249 -246zM580 528c0 82 -48 133 -120 133c-71 0 -120 -51 -120 -133s49 -133 120 -133c72 0 120 52 120 133z" />
    <glyph glyph-name="_295" unicode="&#xff20;" 
d="M348 228v56c0 124 63 226 198 226c64 0 114 -30 141 -69v11c0 134 -102 219 -227 219s-228 -85 -228 -220v-343c0 -133 103 -219 228 -219c42 0 81 10 114 29l52 -90c-51 -29 -108 -43 -166 -43c-180 0 -336 131 -336 301v387c0 172 156 302 336 302
c179 0 336 -130 336 -301v-217c0 -162 -79 -257 -225 -257c-148 0 -223 100 -223 228zM687 252v84c-21 40 -59 64 -106 64c-76 0 -112 -52 -112 -138v-14c0 -88 31 -137 113 -137c62 0 105 48 105 141z" />
    <glyph glyph-name="_296" unicode="&#xff21;" 
d="M588 151h-257l-49 -157h-149l255 767h143l256 -767h-149zM368 272h184l-92 304z" />
    <glyph glyph-name="_297" unicode="&#xff22;" 
d="M498 -6h-277v767h261c130 0 248 -65 248 -213c0 -76 -39 -131 -98 -155c72 -28 120 -91 120 -177c0 -157 -117 -222 -254 -222zM362 445h103c68 0 125 31 125 97c0 72 -54 97 -125 97h-103v-194zM362 328v-215h125c77 0 124 33 124 106s-52 109 -124 109h-125z" />
    <glyph glyph-name="_298" unicode="&#xff23;" 
d="M188 284v185c0 179 113 306 282 306c153 0 260 -100 282 -251l-139 -20c-16 96 -66 145 -141 145c-90 0 -144 -70 -144 -198v-149c0 -129 54 -199 144 -199c75 0 125 51 141 147l139 -22c-22 -151 -129 -249 -282 -249c-169 0 -282 126 -282 305z" />
    <glyph glyph-name="_299" unicode="&#xff24;" 
d="M205 -6v767h248c171 0 281 -112 281 -293v-184c0 -181 -110 -290 -281 -290h-248zM594 302v149c0 127 -55 185 -146 185h-103v-519h103c91 0 146 56 146 185z" />
    <glyph glyph-name="_300" unicode="&#xff25;" 
d="M248 -7v769h484v-125h-343v-187h298v-125h-298v-208h343v-124h-484z" />
    <glyph glyph-name="_301" unicode="&#xff26;" 
d="M247 -7v769h484v-126h-343v-197h309v-126h-309v-320h-141z" />
    <glyph glyph-name="_302" unicode="&#xff27;" 
d="M317 451v-149c0 -129 53 -200 143 -200c98 0 142 81 142 186h-142v116h283v-119c0 -183 -111 -305 -283 -305c-170 0 -283 124 -283 304v184c0 180 113 306 283 306c152 0 258 -99 280 -250l-139 -20c-16 95 -66 145 -141 145c-90 0 -143 -71 -143 -198z" />
    <glyph glyph-name="_303" unicode="&#xff28;" 
d="M589 -7v331h-258v-331h-141v769h141v-312h258v312h140v-769h-140z" />
    <glyph glyph-name="_304" unicode="&#xff29;" 
d="M530 762v-769h-140v769h140z" />
    <glyph glyph-name="_305" unicode="&#xff2a;" 
d="M549 252v510h140v-529c0 -166 -100 -254 -250 -254c-128 0 -224 73 -249 216l136 20c18 -84 64 -111 111 -111c60 0 112 36 112 148z" />
    <glyph glyph-name="_306" unicode="&#xff2b;" 
d="M720 762v-15c0 -150 -35 -251 -169 -344l241 -410h-156l-193 337l-95 -63v-274h-141v769h141v-334l74 48c136 88 158 159 158 271v15h140z" />
    <glyph glyph-name="_307" unicode="&#xff2c;" 
d="M262 -7v769h141v-644h343v-125h-484z" />
    <glyph glyph-name="_308" unicode="&#xff2d;" 
d="M407 189l-154 284v-480h-140v769h119l228 -422l228 422h119v-769h-140v480l-154 -284h-106z" />
    <glyph glyph-name="_309" unicode="&#xff2e;" 
d="M619 -7l-304 510v-510h-142v769h127l305 -511v511h141v-769h-127z" />
    <glyph glyph-name="_310" unicode="&#xff2f;" 
d="M460 774c172 0 283 -126 283 -306v-184c0 -180 -111 -304 -283 -304s-283 124 -283 304v184c0 180 111 306 283 306zM460 103c89 0 143 69 143 199v149c0 128 -54 198 -143 198c-88 0 -143 -70 -143 -198v-149c0 -130 55 -199 143 -199z" />
    <glyph glyph-name="_311" unicode="&#xff30;" 
d="M506 276h-141v-282h-141v767h281c123 0 250 -78 250 -243s-127 -242 -249 -242zM615 518c0 80 -54 118 -126 118h-124v-235h124c72 0 126 39 126 117z" />
    <glyph glyph-name="_312" unicode="&#xff31;" 
d="M782 41l-74 -82l-83 69c-44 -30 -100 -48 -165 -48c-172 0 -282 124 -282 304v184c0 180 110 306 282 306c173 0 284 -126 284 -306v-184c0 -66 -16 -125 -43 -172zM460 103c22 0 44 6 61 16l-69 60l75 85l63 -55c10 26 13 55 13 93v149c0 128 -53 198 -143 198
c-87 0 -142 -70 -142 -198v-149c0 -130 55 -199 142 -199z" />
    <glyph glyph-name="_313" unicode="&#xff32;" 
d="M448 287h-111v-293h-141v767h283c121 0 249 -76 249 -237c0 -115 -63 -185 -143 -217l178 -313h-155zM588 524c0 76 -55 112 -127 112h-124v-225h124c72 0 127 39 127 113z" />
    <glyph glyph-name="_314" unicode="&#xff33;" 
d="M739 209c0 -133 -93 -230 -263 -230c-148 0 -259 83 -296 231l140 22c21 -85 78 -129 156 -129c76 0 123 41 123 105c0 57 -37 93 -120 108l-61 12c-144 27 -218 104 -218 223c0 114 84 224 251 224c141 0 243 -80 271 -215l-139 -21c-16 67 -60 111 -132 111
s-110 -46 -110 -98c0 -51 32 -88 110 -103l63 -13c161 -30 225 -111 225 -227z" />
    <glyph glyph-name="_315" unicode="&#xff34;" 
d="M184 636v126h551v-126h-206v-643h-140v643h-205z" />
    <glyph glyph-name="_316" unicode="&#xff35;" 
d="M460 104c92 0 135 64 135 195v463h141v-486c0 -180 -102 -297 -276 -297s-277 117 -277 297v486h141v-463c0 -131 44 -195 136 -195z" />
    <glyph glyph-name="_317" unicode="&#xff36;" 
d="M531 -6h-143l-246 767h150l168 -555l168 555h150z" />
    <glyph glyph-name="_318" unicode="&#xff37;" 
d="M393 761h135l120 -530l101 530h147l-175 -767h-138l-122 546l-125 -546h-136l-175 767h146l101 -530z" />
    <glyph glyph-name="_319" unicode="&#xff38;" 
d="M778 -6h-154l-164 286l-164 -286h-154l230 395l-214 372h155l147 -265l148 265h154l-214 -372z" />
    <glyph glyph-name="_320" unicode="&#xff39;" 
d="M390 -6v345l-237 422h153l154 -286l154 286h153l-237 -422v-345h-140z" />
    <glyph glyph-name="_321" unicode="&#xff3a;" 
d="M213 98l324 538h-314v126h484v-107l-325 -537h325v-125h-494v105z" />
    <glyph glyph-name="_323" unicode="&#xffe6;" 
d="M36 420h66l-77 341h145l62 -341h87l74 341h135l74 -341h86l62 341h146l-77 -341h65v-69h-82l-81 -357h-138l-76 357h-94l-77 -357h-136l-82 357h-82v69zM461 557l-33 -137h63zM616 351l32 -136l28 136h-60zM245 351l27 -136l32 136h-59z" />
    <glyph glyph-name="_325" unicode="&#xff3e;" 
d="M346 522h-132l181 239h129l181 -239h-133l-112 144z" />
    <glyph glyph-name="_327" unicode="&#xff40;" 
d="M473 618l-119 176h126l85 -176h-92z" />
    <glyph glyph-name="_328" unicode="&#xff41;" 
d="M228 138v13c0 89 64 167 237 167h95v16c0 71 -37 108 -95 108c-45 0 -79 -24 -99 -65l-122 31c41 89 120 147 228 147c139 0 219 -88 219 -212v-350h-131v55c-31 -42 -82 -69 -149 -69c-110 0 -183 67 -183 159zM439 91c52 0 100 25 121 62v66h-121
c-48 0 -82 -26 -82 -64v-6c0 -32 27 -58 82 -58z" />
    <glyph glyph-name="_329" unicode="&#xff42;" 
d="M363 -6h-132v780h132v-286c26 39 78 66 138 66c126 0 198 -97 198 -225v-125c0 -130 -72 -224 -198 -224c-60 0 -112 26 -138 64v-50zM363 378v-224c20 -39 53 -62 96 -62c78 0 108 49 108 137v74c0 89 -30 137 -108 137c-43 0 -76 -24 -96 -62z" />
    <glyph glyph-name="_330" unicode="&#xff43;" 
d="M464 -20c-138 0 -239 104 -239 229v115c0 125 101 230 239 230c121 0 208 -80 230 -183l-132 -19c-12 59 -52 88 -98 88c-57 0 -106 -41 -106 -133v-82c0 -91 49 -132 106 -132c45 0 87 27 98 88l132 -19c-22 -103 -109 -182 -230 -182z" />
    <glyph glyph-name="_331" unicode="&#xff44;" 
d="M689 -6h-132v50c-26 -38 -78 -64 -138 -64c-126 0 -198 94 -198 224v125c0 128 72 225 198 225c60 0 112 -27 138 -66v286h132v-780zM557 154v224c-20 38 -52 62 -95 62c-79 0 -109 -48 -109 -137v-74c0 -88 30 -137 109 -137c43 0 75 23 95 62z" />
    <glyph glyph-name="_332" unicode="&#xff45;" 
d="M699 221h-346v-6c0 -81 44 -122 109 -122c46 0 81 21 95 64l134 -15c-29 -98 -112 -163 -229 -163c-146 0 -242 106 -242 230v116c0 124 98 230 240 230c141 0 239 -106 239 -228v-106zM353 318h213v6c0 76 -47 117 -106 117s-107 -41 -107 -117v-6z" />
    <glyph glyph-name="_333" unicode="&#xff46;" 
d="M292 428v114h76v14c0 160 51 219 219 219h41v-114h-44c-69 0 -85 -31 -85 -99v-20h129v-114h-129v-435h-131v435h-76z" />
    <glyph glyph-name="_334" unicode="&#xff47;" 
d="M557 44c-26 -38 -78 -64 -138 -64c-126 0 -198 94 -198 224v125c0 128 72 225 198 225c60 0 112 -26 138 -66v53h132v-558c0 -149 -81 -245 -228 -245c-104 0 -185 55 -219 150l125 30c17 -46 51 -67 94 -67c55 0 96 36 96 138v55zM557 154v224c-20 39 -52 62 -95 62
c-79 0 -108 -48 -108 -137v-74c0 -88 29 -137 108 -137c43 0 75 23 95 62z" />
    <glyph glyph-name="_335" unicode="&#xff48;" 
d="M695 331v-338h-133v318c0 84 -27 130 -102 130c-40 0 -85 -28 -103 -72v-376h-133v782h133v-296c27 44 81 76 148 76c121 0 190 -86 190 -224z" />
    <glyph glyph-name="_336" unicode="&#xff49;" 
d="M394 -7v549h132v-549h-132zM394 643v132h132v-132h-132z" />
    <glyph glyph-name="_337" unicode="&#xff4a;" 
d="M391 643v132h130v-132h-130zM391 -54v596h130v-608c0 -118 -57 -174 -181 -174h-59v113h47c42 0 63 26 63 73z" />
    <glyph glyph-name="_338" unicode="&#xff4b;" 
d="M648 541v-12c0 -110 -34 -169 -118 -233l178 -302h-143l-133 234l-79 -52v-182h-132v780h132v-455c119 73 165 119 165 209v13h130z" />
    <glyph glyph-name="_339" unicode="&#xff4c;" 
d="M481 775v-597c0 -47 20 -72 63 -72h27v-113h-41c-123 0 -181 55 -181 173v609h132z" />
    <glyph glyph-name="_340" unicode="&#xff4d;" 
d="M523 360c1 -14 2 -29 2 -44v-322h-132v316c0 84 -27 130 -101 130c-42 0 -86 -28 -105 -72v-374h-132v547h132v-62c27 43 82 75 149 75c76 0 129 -35 160 -94c37 52 100 94 177 94c121 0 191 -86 191 -225v-335h-133v316c0 85 -30 130 -102 130c-40 0 -81 -32 -106 -80z
" />
    <glyph glyph-name="_341" unicode="&#xff4e;" 
d="M695 331v-338h-133v318c0 84 -27 130 -102 130c-40 0 -85 -28 -103 -72v-376h-133v548h133v-62c27 44 81 76 148 76c121 0 190 -86 190 -224z" />
    <glyph glyph-name="_342" unicode="&#xff4f;" 
d="M353 309v-85c0 -90 50 -131 107 -131s107 41 107 131v85c0 92 -50 132 -107 132s-107 -40 -107 -132zM220 208v118c0 125 100 229 240 229c141 0 239 -104 239 -229v-118c0 -125 -98 -229 -239 -229c-140 0 -240 104 -240 229z" />
    <glyph glyph-name="_343" unicode="&#xff50;" 
d="M231 541h132v-53c26 39 78 66 138 66c126 0 198 -97 198 -225v-125c0 -130 -72 -224 -198 -224c-60 0 -112 26 -138 64v-290h-132v787zM363 378v-224c20 -39 53 -62 96 -62c78 0 108 49 108 137v74c0 89 -30 137 -108 137c-43 0 -76 -24 -96 -62z" />
    <glyph glyph-name="_344" unicode="&#xff51;" 
d="M557 541h132v-787h-132v290c-26 -38 -78 -64 -138 -64c-126 0 -198 94 -198 224v125c0 128 72 225 198 225c60 0 112 -27 138 -66v53zM557 154v224c-20 38 -52 62 -96 62c-78 0 -108 -48 -108 -137v-74c0 -88 30 -137 108 -137c44 0 76 23 96 62z" />
    <glyph glyph-name="_345" unicode="&#xff52;" 
d="M305 -7v549h132v-61c33 46 83 74 146 74c22 0 46 -4 64 -13v-114c-24 8 -47 13 -75 13c-56 0 -106 -28 -135 -75v-373h-132z" />
    <glyph glyph-name="_346" unicode="&#xff53;" 
d="M553 148c0 36 -21 58 -77 68l-47 8c-122 22 -178 76 -178 166c0 94 75 165 200 165c110 0 194 -59 222 -160l-128 -19c-9 42 -45 70 -90 70s-73 -25 -73 -55c0 -34 28 -53 78 -62l49 -10c130 -25 175 -78 175 -168c0 -100 -78 -172 -208 -172c-122 0 -209 62 -240 173
l128 20c20 -57 57 -84 110 -84c49 0 79 26 79 60z" />
    <glyph glyph-name="_347" unicode="&#xff54;" 
d="M501 428v-250c0 -46 20 -72 63 -72h74v-113h-87c-123 0 -181 55 -181 174v261h-76v114h76v156h131v-156h129v-114h-129z" />
    <glyph glyph-name="_348" unicode="&#xff55;" 
d="M225 203v339h132v-319c0 -84 27 -130 101 -130c42 0 85 27 104 72v377h133v-549h-133v62c-27 -44 -81 -76 -147 -76c-122 0 -190 86 -190 224z" />
    <glyph glyph-name="_349" unicode="&#xff56;" 
d="M527 -6h-134l-200 547h137l130 -380l130 380h137z" />
    <glyph glyph-name="_350" unicode="&#xff57;" 
d="M34 541h138l110 -369l114 369h127l114 -369l111 369h138l-181 -547h-130l-115 374l-115 -374h-131z" />
    <glyph glyph-name="_351" unicode="&#xff58;" 
d="M218 541h146l96 -172l96 172h146l-157 -267l169 -280h-147l-107 185l-106 -185h-148l169 280z" />
    <glyph glyph-name="_352" unicode="&#xff59;" 
d="M378 -67l29 86l-214 523h141l132 -351l120 351h140l-229 -649c-37 -108 -88 -133 -190 -133h-46v114h37c41 0 65 12 80 59z" />
    <glyph glyph-name="_353" unicode="&#xff5a;" 
d="M676 542v-97l-267 -339h278v-113h-454v96l267 339h-255v114h431z" />
    <glyph glyph-name="_358" unicode="&#x3131;" 
d="M153 512v119h604v-501h-135v382h-469z" />
    <glyph glyph-name="_359" unicode="&#x3132;" 
d="M113 512v119h319v-502h-136v383h-183zM474 512v119h323v-501h-135v382h-188z" />
    <glyph glyph-name="_360" unicode="&#x3133;" 
d="M86 511v119h315v-500h-136v381h-179zM621 259c-29 -56 -76 -106 -132 -141l-86 88c92 58 149 144 149 254v170h137v-170c0 -110 58 -196 149 -254l-86 -88c-56 35 -103 85 -131 141z" />
    <glyph glyph-name="_361" unicode="&#x3134;" 
d="M767 249v-119h-604v501h135v-382h469z" />
    <glyph glyph-name="_362" unicode="&#x3135;" 
d="M617 259c-28 -56 -76 -106 -132 -141l-68 70v-58h-307v500h137v-382h170v-30c80 56 132 138 132 242v51h-126v119h390v-119h-128v-51c0 -110 58 -196 150 -254l-85 -88c-57 35 -104 85 -133 141z" />
    <glyph glyph-name="_363" unicode="&#x3136;" 
d="M832 585v-107h-432v107h147v87h136v-87h149zM247 248h166v-118h-303v500h137v-382zM805 276c0 -99 -87 -164 -190 -164c-101 0 -189 65 -189 164s88 165 189 165c103 0 190 -66 190 -165zM543 276c0 -38 30 -63 73 -63s73 25 73 63c0 39 -30 64 -73 64s-73 -25 -73 -64z
" />
    <glyph glyph-name="_364" unicode="&#x3137;" 
d="M298 512v-263h469v-119h-604v501h594v-119h-459z" />
    <glyph glyph-name="_365" unicode="&#x3138;" 
d="M256 512v-263h197v382h334v-119h-198v-263h208v-119h-676v501h294v-119h-159z" />
    <glyph glyph-name="_366" unicode="&#x3139;" 
d="M303 326v-93h469v-113h-604v319h449v89h-449v113h584v-315h-449z" />
    <glyph glyph-name="_367" unicode="&#x313a;" 
d="M243 236h227v-106h-357v304h207v89h-207v107h337v-303h-207v-91zM485 630h324v-500h-136v381h-188v119z" />
    <glyph glyph-name="_368" unicode="&#x313b;" 
d="M493 130v500h316v-500h-316zM691 517h-80v-275h80v275zM244 236h212v-106h-342v304h192v89h-192v107h322v-303h-192v-91z" />
    <glyph glyph-name="_369" unicode="&#x313c;" 
d="M604 630v-151h83v151h122v-500h-327v500h122zM687 372h-83v-136h83v136zM244 236h206v-106h-336v304h186v89h-186v107h316v-303h-186v-91z" />
    <glyph glyph-name="_370" unicode="&#x313d;" 
d="M550 630h137v-170c0 -109 55 -196 146 -253l-85 -89c-56 35 -100 83 -129 140c-29 -57 -74 -105 -130 -140l-37 39v-27h-338v304h193v89h-193v107h323v-303h-193v-91h201c66 56 105 132 105 224v170z" />
    <glyph glyph-name="_371" unicode="&#x313e;" 
d="M629 327v-91h187v-106h-323v500h316v-107h-180v-89h170v-107h-170zM244 236h213v-106h-343v304h193v89h-193v107h323v-303h-193v-91z" />
    <glyph glyph-name="_372" unicode="&#x313f;" 
d="M660 517h-47v-275h47v275zM770 517v-275h42v-112h-351v112h41v275h-39v113h346v-113h-39zM243 236h197v-106h-326v304h176v89h-176v107h306v-303h-177v-91z" />
    <glyph glyph-name="_373" unicode="&#x3140;" 
d="M831 585v-107h-375v107h122v87h130v-87h123zM475 267v18c0 94 72 156 168 156s169 -62 169 -156v-18c0 -94 -73 -157 -169 -157s-168 63 -168 157zM695 268v16c0 32 -19 56 -52 56c-32 0 -52 -23 -52 -56v-10c0 -36 16 -62 52 -62c33 0 52 23 52 56zM244 236h201v-106
h-331v304h181v89h-181v107h311v-303h-181v-91z" />
    <glyph glyph-name="_374" unicode="&#x3141;" 
d="M163 130v501h594v-501h-594zM621 249v263h-322v-263h322z" />
    <glyph glyph-name="_375" unicode="&#x3142;" 
d="M299 631v-145h322v145h136v-501h-594v501h136zM621 246v124h-322v-124h322z" />
    <glyph glyph-name="_376" unicode="&#x3143;" 
d="M271 630v-147h124v147h129v-147h124v147h128v-500h-633v500h128zM271 370v-128h124v128h-124zM648 242v128h-124v-128h124z" />
    <glyph glyph-name="_377" unicode="&#x3144;" 
d="M619 258c-29 -57 -74 -105 -130 -140l-43 46v-34h-332v500h123v-150h86v150h123v-390c63 53 104 127 104 220v170h137v-170c0 -109 55 -196 146 -253l-85 -89c-56 35 -100 83 -129 140zM323 372h-86v-136h86v136z" />
    <glyph glyph-name="_378" unicode="&#x3145;" 
d="M461 325c-52 -88 -158 -164 -285 -204l-74 113c162 47 290 157 290 304v102h136v-102c0 -147 129 -257 291 -304l-74 -113c-127 40 -234 116 -284 204z" />
    <glyph glyph-name="_379" unicode="&#x3146;" 
d="M461 119c-62 36 -124 104 -158 171c-30 -64 -86 -125 -155 -169l-88 97c100 59 177 157 177 287v126h134v-123c0 -106 31 -188 90 -242c59 54 90 136 90 242v123h134v-126c0 -130 77 -228 177 -287l-88 -97c-69 44 -125 105 -155 169c-34 -67 -96 -135 -158 -171z" />
    <glyph glyph-name="_380" unicode="&#x3147;" 
d="M639 386c0 86 -69 145 -180 145s-180 -59 -180 -145s69 -145 180 -145s180 59 180 145zM143 386c0 157 139 265 316 265s316 -108 316 -265s-139 -265 -316 -265s-316 108 -316 265z" />
    <glyph glyph-name="_381" unicode="&#x3148;" 
d="M461 322c-53 -89 -158 -161 -285 -201l-74 113c146 45 267 129 285 276h-229v120h603v-120h-228c18 -146 130 -227 286 -276l-74 -113c-127 40 -234 113 -284 201z" />
    <glyph glyph-name="_382" unicode="&#x3149;" 
d="M550 511h-179c1 -103 27 -188 90 -246c62 58 88 143 89 246zM117 630h687v-119h-120c2 -133 72 -232 177 -294l-88 -96c-69 43 -125 104 -154 169c-34 -69 -97 -137 -158 -171c-62 34 -125 102 -158 171c-30 -65 -86 -126 -155 -169l-88 96c104 62 175 161 177 294h-120
v119z" />
    <glyph glyph-name="_383" unicode="&#x314a;" 
d="M392 588v107h136v-107h233v-120h-225c30 -115 136 -194 283 -234l-74 -113c-119 32 -233 102 -285 186c-53 -84 -166 -154 -284 -186l-75 113c147 40 254 119 283 234h-226v120h234z" />
    <glyph glyph-name="_384" unicode="&#x314b;" 
d="M153 512v119h604v-501h-135v157c-71 -7 -160 -9 -238 -9l-231 1v119h241c69 0 159 0 228 6v108h-469z" />
    <glyph glyph-name="_385" unicode="&#x314c;" 
d="M303 326v-93h469v-113h-604v521h584v-113h-449v-89h439v-113h-439z" />
    <glyph glyph-name="_386" unicode="&#x314d;" 
d="M796 130h-673v114h129l-8 271h-101v116h633v-116h-101l-8 -271h129v-114zM387 244h144l8 271h-159z" />
    <glyph glyph-name="_387" unicode="&#x314e;" 
d="M120 494v112h271v99h136v-99h273v-112h-680zM460 343c-114 0 -161 -24 -161 -68s47 -68 161 -68s161 24 161 68s-47 68 -161 68zM460 101c-198 0 -297 69 -297 174s99 174 297 174s297 -69 297 -174s-99 -174 -297 -174z" />
    <glyph glyph-name="_388" unicode="&#x314f;" 
d="M498 475h180v-120h-180v-442h-135v904h135v-342z" />
    <glyph glyph-name="_389" unicode="&#x3150;" 
d="M513 816h130v-903h-130v442h-109v-409h-130v859h130v-331h109v342z" />
    <glyph glyph-name="_390" unicode="&#x3151;" 
d="M498 310h179v-120h-179v-277h-136v903h136v-207h179v-119h-179v-180z" />
    <glyph glyph-name="_391" unicode="&#x3152;" 
d="M513 816h130v-903h-130v277h-109v-244h-130v859h130v-196h109v207zM404 490v-180h109v180h-109z" />
    <glyph glyph-name="_392" unicode="&#x3153;" 
d="M419 355h-178v119h178v342h136v-903h-136v442z" />
    <glyph glyph-name="_393" unicode="&#x3154;" 
d="M181 355v119h143v331h130v-859h-130v409h-143zM527 816h130v-903h-130v903z" />
    <glyph glyph-name="_394" unicode="&#x3155;" 
d="M419 190h-178v120h178v180h-178v119h178v207h136v-903h-136v277z" />
    <glyph glyph-name="_395" unicode="&#x3156;" 
d="M181 488v119h143v198h130v-859h-130v255h-143v119h143v168h-143zM527 816h130v-903h-130v903z" />
    <glyph glyph-name="_396" unicode="&#x3157;" 
d="M528 619v-347h369v-119h-874v119h368v347h137z" />
    <glyph glyph-name="_397" unicode="&#x3158;" 
d="M37 94v119h205v300h136v-300h30c75 0 166 9 226 29v574h136v-341h141v-120h-141v-442h-136v210c-60 -20 -159 -29 -246 -29h-351z" />
    <glyph glyph-name="_398" unicode="&#x3159;" 
d="M645 355v-409h-124v175c-59 -19 -146 -28 -227 -28h-257v120h155v297h136v-297c50 0 136 6 193 26v566h124v-331h82v342h124v-903h-124v442h-82z" />
    <glyph glyph-name="_399" unicode="&#x315a;" 
d="M825 816v-903h-136v209c-60 -19 -158 -28 -245 -28h-397v119h223v300h136v-300h58c78 0 166 10 225 28v575h136z" />
    <glyph glyph-name="_400" unicode="&#x315b;" 
d="M684 619v-349h212v-118h-875v118h213v349h136v-349h178v349h136z" />
    <glyph glyph-name="_401" unicode="&#x315c;" 
d="M22 427h874v-119h-369v-362h-135v362h-370v119z" />
    <glyph glyph-name="_402" unicode="&#x315d;" 
d="M699 816h136v-903h-136v175h-199v119h199v609zM408 301h-21v-327h-136v327h-214v119h417c62 1 131 8 186 20v-117c-63 -14 -152 -22 -232 -22z" />
    <glyph glyph-name="_403" unicode="&#x315e;" 
d="M727 816h124v-903h-124v903zM538 805h124v-859h-124v142h-146v119h146v598zM317 297h-5v-323h-135v323h-150v119h278c70 0 139 6 192 19v-118c-46 -10 -110 -17 -180 -20z" />
    <glyph glyph-name="_404" unicode="&#x315f;" 
d="M829 816v-903h-136v374c-60 -20 -157 -29 -245 -29h-42v-304h-135v304h-224v119h421c78 0 166 9 225 28v411h136z" />
    <glyph glyph-name="_405" unicode="&#x3160;" 
d="M21 427h875v-119h-202v-362h-136v362h-198v-362h-135v362h-204v119z" />
    <glyph glyph-name="_406" unicode="&#x3161;" 
d="M23 142v119h874v-119h-874z" />
    <glyph glyph-name="_407" unicode="&#x3162;" 
d="M825 816v-903h-136v247c-60 -19 -158 -28 -245 -28h-397v119h417c78 0 166 10 225 28v537h136z" />
    <glyph glyph-name="_408" unicode="&#x3163;" 
d="M392 817h137v-905h-137v905z" />
    <glyph glyph-name="_409" unicode="&#x3165;" 
d="M605 630v-382h198v-118h-334v500h136zM250 630v-382h188v-118h-324v500h136z" />
    <glyph glyph-name="_410" unicode="&#x3166;" 
d="M608 511v-263h191v-118h-327v500h321v-119h-185zM250 630v-382h188v-118h-324v500h136z" />
    <glyph glyph-name="_411" unicode="&#x3167;" 
d="M250 630v-382h167v-27c77 55 128 136 128 239v170h137v-170c0 -110 57 -196 149 -254l-85 -88c-56 35 -104 85 -133 141c-27 -56 -76 -106 -132 -141l-64 66v-54h-303v500h136z" />
    <glyph glyph-name="_412" unicode="&#x3168;" 
d="M250 630v-382h167v-118h-303v500h136zM569 228h110l-54 145zM827 130h-406l203 526z" />
    <glyph glyph-name="_413" unicode="&#x3169;" 
d="M773 630v-205c0 -101 42 -171 107 -222l-78 -83c-38 27 -72 68 -87 107c-16 -39 -49 -80 -88 -107l-62 66v-56h-118v381h-117v119h235v-413c56 49 91 115 91 208v205h117zM174 236h150v-106h-267v304h128v89h-128v107h247v-303h-130v-91z" />
    <glyph glyph-name="_414" unicode="&#x316a;" 
d="M493 630h316v-119h-180v-263h189v-118h-325v500zM244 236h213v-106h-343v304h193v89h-193v107h323v-303h-193v-91z" />
    <glyph glyph-name="_415" unicode="&#x316b;" 
d="M780 630v-205c0 -101 40 -171 106 -222l-79 -83c-37 27 -70 68 -86 107c-17 -39 -50 -80 -87 -107l-46 49v-39h-252v500h100v-151h54v151h98v-395c47 45 73 108 73 190v205h119zM174 236h142v-106h-259v304h122v89h-122v107h239v-303h-122v-91zM490 372h-54v-136h54v136z
" />
    <glyph glyph-name="_416" unicode="&#x316c;" 
d="M114 130v304h193v89h-193v107h323v-303h-193v-91h191v-70l189 490l203 -526h-713zM569 228h110l-54 145z" />
    <glyph glyph-name="_417" unicode="&#x316d;" 
d="M831 630v-107h-375v107h375zM244 236h201v-106h-331v304h181v89h-181v107h311v-303h-181v-91zM472 269v51c0 94 74 159 171 159c98 0 172 -65 172 -159v-51c0 -94 -74 -159 -172 -159c-97 0 -171 65 -171 159zM699 269v50c0 33 -21 58 -56 58c-34 0 -56 -25 -56 -58v-50
c0 -32 22 -57 56 -57c35 0 56 25 56 57z" />
    <glyph glyph-name="_418" unicode="&#x316e;" 
d="M606 630v-150h82v150h121v-500h-323v500h120zM688 372h-82v-136h82v136zM114 130v500h323v-500h-323zM319 517h-84v-275h84v275z" />
    <glyph glyph-name="_419" unicode="&#x316f;" 
d="M618 258c-29 -57 -74 -105 -130 -140l-51 54v-42h-323v500h323v-399c70 56 112 134 112 229v170h137v-170c0 -109 55 -196 146 -253l-85 -89c-56 35 -101 83 -129 140zM319 517h-84v-275h84v275z" />
    <glyph glyph-name="_420" unicode="&#x3170;" 
d="M114 130v500h324v-459l186 485l203 -526h-713zM320 517h-85v-274h85v274zM569 228h110l-54 145z" />
    <glyph glyph-name="_421" unicode="&#x3171;" 
d="M203 372v362h514v-362h-514zM580 475v146h-240v-146h240zM549 167c0 33 -30 58 -89 58s-89 -25 -89 -58c0 -34 30 -58 89 -58s89 24 89 58zM247 167c0 87 80 158 213 158s213 -71 213 -158s-80 -158 -213 -158s-213 71 -213 158z" />
    <glyph glyph-name="_422" unicode="&#x3172;" 
d="M237 630v-151h88v151h123v-500h-334v500h123zM325 372h-88v-136h88v136zM492 630h317v-500h-136v381h-181v119z" />
    <glyph glyph-name="_423" unicode="&#x3173;" 
d="M495 630h317v-119h-181v-263h188v-118h-324v500zM237 630v-151h86v151h123v-500h-332v500h123zM323 372h-86v-136h86v136z" />
    <glyph glyph-name="_424" unicode="&#x3174;" 
d="M539 630v-205c0 -101 41 -171 107 -222l-79 -83c-38 27 -71 68 -87 107c-15 -39 -49 -80 -87 -107l-58 62v-52h-265v500h104v-151h57v151h104v-410c53 49 87 115 87 205v205h117zM599 630h241v-500h-118v381h-123v119zM231 372h-57v-136h57v136z" />
    <glyph glyph-name="_425" unicode="&#x3175;" 
d="M174 630v-151h57v151h104v-402c49 47 79 111 79 197v205h118v-205c0 -86 30 -151 81 -198v403h227v-119h-110v-263h120v-118h-237v45l-53 -55c-38 27 -71 68 -87 107c-16 -39 -49 -80 -87 -107l-51 54v-44h-265v500h104zM231 372h-57v-136h57v136z" />
    <glyph glyph-name="_426" unicode="&#x3176;" 
d="M622 258c-28 -57 -72 -105 -127 -140l-60 61v-49h-322v500h122v-150h80v150h120v-406c75 57 119 138 119 236v57h-98v113h351v-113h-116v-57c0 -109 54 -196 145 -253l-85 -89c-56 35 -100 83 -129 140zM315 372h-80v-136h80v136z" />
    <glyph glyph-name="_427" unicode="&#x3177;" 
d="M631 327v-91h185v-106h-321v500h314v-107h-178v-89h168v-107h-168zM237 630v-150h86v150h123v-500h-332v500h123zM323 372h-86v-136h86v136z" />
    <glyph glyph-name="_428" unicode="&#x3178;" 
d="M549 167c0 33 -30 58 -89 58s-89 -25 -89 -58c0 -34 30 -58 89 -58s89 24 89 58zM247 167c0 87 80 158 213 158s213 -71 213 -158s-80 -158 -213 -158s-213 71 -213 158zM339 734v-84h242v84h136v-365h-514v365h136zM581 472v74h-242v-74h242z" />
    <glyph glyph-name="_429" unicode="&#x3179;" 
d="M301 733v-87h99v87h119v-87h98v87h119v-365h-553v365h118zM301 546v-77h99v77h-99zM617 469v77h-98v-77h98zM549 166c0 34 -30 59 -89 59c-61 0 -90 -25 -90 -59c0 -33 29 -58 90 -58c59 0 89 25 89 58zM246 166c0 87 80 158 214 158c132 0 212 -71 212 -158
s-80 -156 -212 -156c-134 0 -214 69 -214 156z" />
    <glyph glyph-name="_430" unicode="&#x317a;" 
d="M476 511v119h315v-500h-136v381h-179zM319 259c-29 -56 -76 -106 -132 -141l-86 88c92 58 149 144 149 254v170h137v-170c0 -110 58 -196 149 -254l-86 -88c-56 35 -102 85 -131 141z" />
    <glyph glyph-name="_431" unicode="&#x317b;" 
d="M312 258c-29 -57 -71 -105 -126 -140l-86 88c92 58 144 144 144 254v170h136v-170c0 -100 44 -178 116 -234v404h136v-382h171v-118h-307v48l-58 -60c-55 35 -97 83 -126 140z" />
    <glyph glyph-name="_432" unicode="&#x317c;" 
d="M307 258c-28 -57 -70 -105 -126 -140l-85 88c92 58 144 144 144 254v170h136v-170c0 -97 41 -173 109 -227v397h317v-119h-181v-263h188v-118h-324v41l-51 -53c-55 35 -97 83 -127 140z" />
    <glyph glyph-name="_433" unicode="&#x317d;" 
d="M308 258c-28 -57 -71 -105 -127 -140l-85 88c92 58 144 144 144 254v170h136v-170c0 -97 40 -176 113 -233v403h119v-151h82v151h119v-500h-320v44l-54 -56c-56 35 -99 83 -127 140zM690 372h-82v-136h82v136z" />
    <glyph glyph-name="_434" unicode="&#x317e;" 
d="M461 119c-63 34 -126 102 -158 171c-31 -65 -87 -126 -156 -169l-87 96c99 59 176 157 176 288v125h133v-109c0 -117 30 -201 92 -256c66 62 85 144 90 252h-124v113h381v-113h-124c1 -137 70 -237 177 -300l-88 -96c-69 43 -125 104 -154 169
c-34 -69 -97 -137 -158 -171z" />
    <glyph glyph-name="_435" unicode="&#x317f;" 
d="M123 130l335 546l338 -546h-673zM337 242h244l-123 199z" />
    <glyph glyph-name="_436" unicode="&#x3180;" 
d="M652 640c101 0 170 -72 170 -178v-163c0 -106 -69 -178 -170 -178c-100 0 -169 73 -169 179v161c0 106 69 179 169 179zM653 539c-33 0 -53 -27 -53 -73v-171c0 -46 20 -73 53 -73c32 0 53 27 53 73v171c0 46 -21 73 -53 73zM267 640c101 0 170 -73 170 -179v-161
c0 -106 -69 -179 -170 -179c-100 0 -169 72 -169 178v163c0 106 69 178 169 178zM267 539c-32 0 -53 -27 -53 -73v-171c0 -46 21 -73 53 -73c33 0 53 27 53 73v171c0 46 -20 73 -53 73z" />
    <glyph glyph-name="_437" unicode="&#x3181;" 
d="M143 331c0 128 104 219 248 239v135h136v-135c143 -20 248 -111 248 -239c0 -148 -139 -245 -316 -245s-316 97 -316 245zM639 331c0 75 -69 125 -180 125s-180 -50 -180 -125s69 -125 180 -125s180 50 180 125z" />
    <glyph glyph-name="_438" unicode="&#x3182;" 
d="M618 258c-29 -57 -74 -105 -130 -140l-73 77c-31 -47 -82 -74 -145 -74c-99 0 -172 70 -172 176v66c0 82 43 140 107 163v107h132v-107c64 -24 107 -83 107 -164v-64c0 -28 -6 -52 -15 -74c75 56 120 137 120 236v170h137v-170c0 -109 55 -196 146 -253l-85 -89
c-56 35 -101 83 -129 140zM271 438c-36 0 -57 -27 -57 -76v-63c0 -50 21 -77 57 -77c35 0 57 27 57 77v63c0 49 -22 76 -57 76z" />
    <glyph glyph-name="_439" unicode="&#x3183;" 
d="M98 364c0 81 44 140 108 163v106h131v-106c64 -24 108 -83 108 -164v-65c0 -106 -74 -177 -174 -177s-173 70 -173 176v67zM422 130l203 527l203 -527h-406zM272 439c-34 0 -58 -25 -58 -71v-75c0 -46 24 -71 58 -71c32 0 56 25 56 71v75c0 46 -24 71 -56 71zM679 228
l-53 146l-57 -146h110z" />
    <glyph glyph-name="_440" unicode="&#x3184;" 
d="M736 733v-110h-77l-6 -146h102v-109h-592v109h103l-6 146h-77v110h553zM390 477h139l5 146h-149zM549 166c0 34 -30 59 -89 59c-61 0 -90 -25 -90 -59c0 -33 29 -58 90 -58c59 0 89 25 89 58zM246 166c0 87 80 158 214 158c132 0 212 -71 212 -158s-80 -156 -212 -156
c-134 0 -214 69 -214 156z" />
    <glyph glyph-name="_441" unicode="&#x3185;" 
d="M820 585v-106h-347v106h109v88h130v-88h108zM646 442c96 0 166 -63 166 -157v-17c0 -94 -70 -157 -166 -157c-95 0 -165 63 -165 157v17c0 94 70 157 165 157zM646 340c-32 0 -49 -24 -49 -56v-15c0 -32 17 -56 49 -56c33 0 50 24 50 56v15c0 32 -18 56 -50 56zM446 585
v-106h-346v106h108v88h130v-88h108zM273 442c96 0 165 -63 165 -157v-17c0 -94 -69 -157 -165 -157s-165 63 -165 157v17c0 94 69 157 165 157zM273 340c-32 0 -50 -24 -50 -56v-15c0 -32 18 -56 50 -56c33 0 50 24 50 56v15c0 32 -18 56 -50 56z" />
    <glyph glyph-name="_442" unicode="&#x3186;" 
d="M147 531v112h626v-112h-626zM620 294c0 46 -43 77 -160 77c-118 0 -161 -31 -161 -77s43 -77 161 -77c117 0 160 31 160 77zM163 294c0 109 97 185 297 185c199 0 296 -76 296 -185s-97 -185 -296 -185c-200 0 -297 76 -297 185z" />
    <glyph glyph-name="_443" unicode="&#x3187;" 
d="M636 239v577h137v-210h138v-118h-138v-152h138v-119h-138v-304h-137v209c-58 -18 -147 -28 -234 -28h-365v119h120v300h129v-300h95v300h130v-297c47 1 92 8 125 23z" />
    <glyph glyph-name="_444" unicode="&#x3188;" 
d="M254 213h61v297h124v-289c29 2 58 7 82 18v566h124v-199h82v210h124v-903h-124v300h-82v-267h-124v175c-59 -19 -148 -28 -229 -28h-255v120h94v297h123v-297zM645 488v-156h82v156h-82z" />
    <glyph glyph-name="_445" unicode="&#x3189;" 
d="M455 94h-408v119h143v300h130v-300h99v300h130v-298c51 3 100 11 140 24v577h136v-903h-136v209c-58 -18 -147 -28 -234 -28z" />
    <glyph glyph-name="_446" unicode="&#x318a;" 
d="M149 -26v377h-112v119h417c62 0 131 8 186 20v-117c-43 -10 -100 -17 -157 -20v-379h-129v377h-76v-377h-129zM835 816v-903h-136v114h-159v106h159v63h-159v107h159v513h136z" />
    <glyph glyph-name="_447" unicode="&#x318b;" 
d="M113 -26v377h-86v119h288c70 0 139 6 192 19v-118c-28 -7 -62 -11 -101 -15v-382h-118v377h-57v-377h-118zM672 805v-859h-124v87h-101v105h101v60h-101v107h101v500h124zM727 816h124v-903h-124v903z" />
    <glyph glyph-name="_448" unicode="&#x318c;" 
d="M693 453v363h136v-903h-136v423c-38 -13 -88 -21 -143 -25v-357h-137v354h-100v-354h-136v354h-130v119h429c76 0 157 7 217 26z" />
    <glyph glyph-name="_449" unicode="&#x318d;" 
d="M533 467v-149h-147v149h147z" />
    <glyph glyph-name="_450" unicode="&#x318e;" 
d="M515 816h136v-903h-136v903zM410 466v-149h-147v149h147z" />
    <glyph glyph-name="_451" unicode="&#x2170;" 
d="M395 -6v548h130v-548h-130zM395 646v128h130v-128h-130z" />
    <glyph glyph-name="_452" unicode="&#x2171;" 
d="M264 -6v548h129v-548h-129zM264 646v128h129v-128h-129zM526 -6v548h130v-548h-130zM526 646v128h130v-128h-130z" />
    <glyph glyph-name="_453" unicode="&#x2172;" 
d="M178 -6v548h130v-548h-130zM178 646v128h130v-128h-130zM395 -6v548h130v-548h-130zM395 646v128h130v-128h-130zM611 -6v548h131v-548h-131zM611 646v128h131v-128h-131z" />
    <glyph glyph-name="_454" unicode="&#x2173;" 
d="M152 -6v547h130v-547h-130zM152 645v128h130v-128h-130zM642 -6h-134l-182 547h135l114 -368l114 368h135z" />
    <glyph glyph-name="_455" unicode="&#x2174;" 
d="M524 -6h-129l-201 548h134l132 -374l130 374h136z" />
    <glyph glyph-name="_456" unicode="&#x2175;" 
d="M766 541v-547h-130v547h130zM766 773v-128h-130v128h130zM410 -6h-133l-183 547h135l114 -368l114 368h135z" />
    <glyph glyph-name="_457" unicode="&#x2176;" 
d="M352 -6h-135l-137 547h126l78 -356l78 356h126zM645 541v-547h-124v547h124zM645 773v-128h-124v128h124zM818 541v-547h-125v547h125zM818 773v-128h-125v128h125z" />
    <glyph glyph-name="_458" unicode="&#x2177;" 
d="M540 541v-547h-113v547h113zM540 773v-127h-113v127h113zM293 -6h-133l-102 547h114l55 -357l54 357h114zM691 541v-547h-112v547h112zM691 773v-127h-112v127h112zM844 541v-547h-112v547h112zM844 773v-127h-112v127h112z" />
    <glyph glyph-name="_459" unicode="&#x2178;" 
d="M155 -6v547h131v-547h-131zM155 645v128h131v-128h-131zM474 -6h-144l155 281l-144 266h144l86 -173l88 173h142l-145 -266l158 -281h-143l-100 186z" />
    <glyph glyph-name="_460" unicode="&#x2179;" 
d="M349 -6h-144l169 281l-156 266h143l98 -173l99 173h142l-156 -266l169 -281h-143l-111 186z" />
    <glyph glyph-name="_461" unicode="&#x2160;" 
d="M306 637v124h306v-124h-83v-522h83v-121h-306v121h83v522h-83z" />
    <glyph glyph-name="_462" unicode="&#x2161;" 
d="M174 637v124h265v-124h-63v-522h63v-121h-265v121h63v522h-63zM479 637v124h266v-124h-64v-522h64v-121h-266v121h63v522h-63z" />
    <glyph glyph-name="_463" unicode="&#x2162;" 
d="M94 637v124h223v-124h-44v-522h44v-121h-223v121h44v522h-44zM347 637v124h224v-124h-45v-522h45v-121h-224v121h44v522h-44zM601 637v124h223v-124h-44v-522h44v-121h-223v121h44v522h-44z" />
    <glyph glyph-name="_464" unicode="&#x2163;" 
d="M701 -6h-168l-157 767h139l102 -541l102 541h139zM85 637v124h264v-124h-64v-522h64v-121h-264v121h63v522h-63z" />
    <glyph glyph-name="_465" unicode="&#x2164;" 
d="M532 -6h-144l-248 767h146l174 -564l173 564h146z" />
    <glyph glyph-name="_466" unicode="&#x2165;" 
d="M386 -6h-169l-157 767h139l102 -541l102 541h139zM833 761v-124h-63v-522h63v-121h-263v121h63v522h-63v124h263z" />
    <glyph glyph-name="_467" unicode="&#x2166;" 
d="M311 -6h-157l-118 767h123l74 -538l74 538h121zM455 644v117h192v-117h-33v-536h33v-114h-192v114h35v536h-35zM674 644v117h192v-117h-34v-536h34v-114h-192v114h34v536h-34z" />
    <glyph glyph-name="_468" unicode="&#x2167;" 
d="M250 -6h-133l-91 767h113l44 -509l44 509h113zM357 644v117h159v-117h-27v-536h27v-114h-159v114h26v536h-26zM539 644v117h160v-117h-27v-536h27v-114h-160v114h27v536h-27zM721 644v117h161v-117h-27v-536h27v-114h-161v114h27v536h-27z" />
    <glyph glyph-name="_469" unicode="&#x2168;" 
d="M374 761h147l93 -251l93 251h147l-147 -375l158 -392h-147l-104 268l-104 -268h-147l156 392zM75 637v124h264v-124h-63v-522h63v-121h-264v121h63v522h-63z" />
    <glyph glyph-name="_470" unicode="&#x2169;" 
d="M291 -6h-150l229 395l-212 372h150l152 -271l150 271h151l-213 -372l230 -395h-151l-167 293z" />
    <glyph glyph-name="_471" unicode="&#x391;" horiz-adv-x="667" 
d="M461 151h-258l-49 -157h-149l256 767h143l256 -767h-149zM240 272h185l-92 304z" />
    <glyph glyph-name="_472" unicode="&#x392;" horiz-adv-x="649" 
d="M352 -6h-279v767h262c131 0 249 -65 249 -213c0 -76 -39 -131 -98 -155c72 -28 120 -91 120 -177c0 -157 -117 -222 -254 -222zM215 445h103c68 0 126 31 126 97c0 72 -54 97 -126 97h-103v-194zM215 328v-215h124c79 0 126 33 126 106s-53 109 -125 109h-125z" />
    <glyph glyph-name="_473" unicode="&#x393;" horiz-adv-x="548" 
d="M74 757h454v-126h-312v-638h-142v764z" />
    <glyph glyph-name="_474" unicode="&#x394;" horiz-adv-x="667" 
d="M5 -7l257 769h143l256 -769h-656zM333 576l-141 -463h283z" />
    <glyph glyph-name="_475" unicode="&#x395;" horiz-adv-x="608" 
d="M74 -7v769h486v-125h-344v-187h299v-125h-299v-208h344v-124h-486z" />
    <glyph glyph-name="_476" unicode="&#x396;" horiz-adv-x="581" 
d="M43 98l325 538h-315v126h485v-107l-326 -537h326v-125h-495v105z" />
    <glyph glyph-name="_477" unicode="&#x397;" horiz-adv-x="691" 
d="M475 -7v331h-259v-331h-142v769h142v-312h259v312h140v-769h-140z" />
    <glyph glyph-name="_478" unicode="&#x398;" horiz-adv-x="673" 
d="M241 314v126h190v-126h-190zM335 774c173 0 284 -126 284 -306v-184c0 -180 -111 -304 -284 -304c-172 0 -283 124 -283 304v184c0 180 111 306 283 306zM335 103c90 0 144 69 144 199v149c0 128 -54 198 -144 198c-88 0 -143 -70 -143 -198v-149
c0 -130 55 -199 143 -199z" />
    <glyph glyph-name="_479" unicode="&#x399;" horiz-adv-x="298" 
d="M218 762v-769h-140v769h140z" />
    <glyph glyph-name="_480" unicode="&#x39a;" horiz-adv-x="661" 
d="M589 762v-15c0 -150 -36 -251 -169 -344l241 -410h-157l-193 337l-95 -63v-274h-142v769h142v-334l73 48c138 88 160 159 160 271v15h140z" />
    <glyph glyph-name="_481" unicode="&#x39b;" horiz-adv-x="667" 
d="M511 -6l-178 582l-178 -582h-150l256 767h144l256 -767h-150z" />
    <glyph glyph-name="_482" unicode="&#x39c;" horiz-adv-x="845" 
d="M368 189l-153 284v-480h-141v769h119l229 -422l228 422h119v-769h-140v480l-153 -284h-108z" />
    <glyph glyph-name="_483" unicode="&#x39d;" horiz-adv-x="723" 
d="M521 -7l-305 510v-510h-142v769h127l306 -511v511h141v-769h-127z" />
    <glyph glyph-name="_484" unicode="&#x39e;" horiz-adv-x="624" 
d="M46 636v126h526v-126h-526zM41 -7v125h536v-125h-536zM85 323v126h447v-126h-447z" />
    <glyph glyph-name="_485" unicode="&#x39f;" horiz-adv-x="673" 
d="M335 774c173 0 284 -126 284 -306v-184c0 -180 -111 -304 -284 -304c-172 0 -283 124 -283 304v184c0 180 111 306 283 306zM335 103c90 0 144 69 144 199v149c0 128 -54 198 -144 198c-88 0 -143 -70 -143 -198v-149c0 -130 55 -199 143 -199z" />
    <glyph glyph-name="_486" unicode="&#x3a0;" horiz-adv-x="680" 
d="M464 -7v643h-248v-643h-142v769h531v-769h-141z" />
    <glyph glyph-name="_487" unicode="&#x3a1;" horiz-adv-x="650" 
d="M357 276h-142v-282h-142v767h283c123 0 250 -78 250 -243s-127 -242 -249 -242zM466 518c0 80 -55 118 -128 118h-123v-235h123c73 0 128 39 128 117z" />
    <glyph glyph-name="_488" unicode="&#x3a3;" horiz-adv-x="598" 
d="M57 120l173 266l-173 243v128h497v-126h-331l158 -222v-47l-159 -244h332v-125h-497v127z" />
    <glyph glyph-name="_489" unicode="&#x3a4;" horiz-adv-x="580" 
d="M14 636v126h552v-126h-206v-643h-141v643h-205z" />
    <glyph glyph-name="_490" unicode="&#x3a5;" horiz-adv-x="645" 
d="M251 -6v345l-237 422h153l154 -286l155 286h152l-237 -422v-345h-140z" />
    <glyph glyph-name="_491" unicode="&#x3a6;" horiz-adv-x="800" 
d="M329 231v289c-91 -3 -145 -51 -145 -143c0 -93 54 -143 145 -146zM470 -6h-141v114c-165 12 -286 99 -286 269c0 169 121 256 286 269v115h141v-115c165 -13 286 -100 286 -269c0 -170 -121 -257 -286 -269v-114zM470 520v-287c91 3 145 51 145 144
c0 92 -54 140 -145 143z" />
    <glyph glyph-name="_492" unicode="&#x3a7;" horiz-adv-x="678" 
d="M656 -6h-154l-165 286l-164 -286h-154l230 395l-214 372h155l147 -265l149 265h154l-214 -372z" />
    <glyph glyph-name="_493" unicode="&#x3a8;" horiz-adv-x="766" 
d="M453 160v-166h-141v166c-167 23 -240 123 -240 286v315h141v-317c0 -98 35 -146 99 -157v474h141v-474c66 11 99 61 99 157v317h142v-315c0 -163 -75 -263 -241 -286z" />
    <glyph glyph-name="_494" unicode="&#x3a9;" horiz-adv-x="685" 
d="M342 649c-86 0 -142 -67 -142 -192v-154c0 -101 31 -165 106 -196v-114h-240v123h78c-51 34 -84 85 -84 177v182c0 178 112 300 282 300s282 -122 282 -300v-182c0 -92 -32 -143 -84 -177h78v-123h-239v114c75 31 105 95 105 196v154c0 125 -54 192 -142 192z" />
    <glyph glyph-name="_495" unicode="&#x3b1;" horiz-adv-x="609" 
d="M243 -20c-125 0 -197 94 -197 224v125c0 129 72 225 197 225c62 0 114 -27 140 -66v53h131v-397c0 -34 12 -45 40 -45h21v-109c-15 -2 -46 -4 -67 -4c-62 0 -100 22 -117 71c-26 -47 -79 -77 -148 -77zM178 303v-73c0 -89 31 -137 110 -137c43 0 74 23 95 62v223
c-21 38 -52 62 -95 62c-79 0 -110 -48 -110 -137z" />
    <glyph glyph-name="_496" unicode="&#x3b2;" horiz-adv-x="604" 
d="M528 561c0 -83 -53 -146 -139 -163c95 -14 171 -86 171 -195c0 -129 -82 -224 -213 -224c-72 0 -132 30 -164 78v-304h-132v785c0 143 87 237 240 237s237 -96 237 -214zM396 553c0 69 -39 108 -107 108s-106 -42 -106 -129v-308c0 -80 46 -131 124 -131
c74 0 121 47 121 123c0 75 -57 124 -140 124h-31v116h31c65 0 108 31 108 97z" />
    <glyph glyph-name="_497" unicode="&#x3b3;" horiz-adv-x="550" 
d="M208 -247v239l-202 550h138l129 -380l131 380h138l-202 -551v-238h-132z" />
    <glyph glyph-name="_498" unicode="&#x3b4;" horiz-adv-x="572" 
d="M274 647l171 -148c54 -48 80 -105 80 -173v-119c0 -124 -98 -227 -239 -227c-142 0 -240 103 -240 227v119c0 99 63 187 162 217l-122 105v113h410v-114h-222zM178 309v-85c0 -90 50 -131 108 -131c56 0 106 41 106 131v85c0 91 -50 131 -106 131
c-58 0 -108 -40 -108 -131z" />
    <glyph glyph-name="_499" unicode="&#x3b5;" horiz-adv-x="507" 
d="M250 445c-43 0 -65 -22 -65 -56c0 -38 30 -58 91 -58h44v-110h-47c-73 0 -106 -28 -106 -71c0 -37 29 -61 80 -61s84 29 100 78l129 -22c-34 -111 -121 -166 -231 -166c-133 0 -210 74 -210 169c0 60 37 107 95 126c-49 18 -78 63 -78 113c0 99 80 168 198 168
c102 0 181 -52 207 -153l-126 -21c-12 41 -41 64 -81 64z" />
    <glyph glyph-name="_500" unicode="&#x3b6;" horiz-adv-x="498" 
d="M396 96c46 -1 63 -20 63 -61c0 -63 -40 -164 -90 -232l-100 30c29 51 51 107 60 152c-200 6 -284 84 -284 231c0 176 108 323 272 432h-217v114h362v-118c-178 -112 -285 -248 -285 -415c0 -90 54 -128 219 -133z" />
    <glyph glyph-name="_501" unicode="&#x3b7;" horiz-adv-x="593" 
d="M63 -6v547h132v-62c27 43 82 75 148 75c121 0 190 -86 190 -225v-575h-132v534c0 97 -21 152 -101 152c-42 0 -86 -28 -105 -72v-374h-132z" />
    <glyph glyph-name="_502" unicode="&#x3b8;" horiz-adv-x="622" 
d="M311 -20c-160 0 -263 104 -263 330v133c0 226 103 331 263 331c158 0 261 -105 261 -331v-133c0 -226 -103 -330 -261 -330zM439 432v11c0 135 -34 216 -128 216c-95 0 -130 -81 -130 -216v-11h258zM311 93c94 0 128 81 128 216v9h-258v-9c0 -135 35 -216 130 -216z" />
    <glyph glyph-name="_503" unicode="&#x3b9;" horiz-adv-x="290" 
d="M194 541v-395c0 -34 12 -45 41 -45h19v-110c-14 -1 -44 -3 -66 -3c-84 0 -126 36 -126 130v423h132z" />
    <glyph glyph-name="_504" unicode="&#x3ba;" horiz-adv-x="550" 
d="M491 541v-12c0 -110 -33 -169 -117 -233l178 -302h-144l-134 234l-79 -52v-182h-132v547h132v-222c120 73 166 118 166 209v13h130z" />
    <glyph glyph-name="_505" unicode="&#x3bb;" horiz-adv-x="552" 
d="M222 515l-29 86c-15 47 -39 60 -79 60h-38v114h46c102 0 155 -26 192 -133l229 -649h-140l-120 350l-134 -350h-141z" />
    <glyph glyph-name="_506" unicode="&#x3bc;" horiz-adv-x="599" 
d="M195 541v-314c0 -87 27 -131 96 -131c42 0 90 19 110 69v376h133v-547h-133v63c-24 -48 -69 -77 -117 -77c-38 0 -69 14 -89 38v-264h-132v787h132z" />
    <glyph glyph-name="_507" unicode="&#x3bd;" horiz-adv-x="550" 
d="M404 541h137l-201 -547h-134l-201 547h139l129 -380z" />
    <glyph glyph-name="_508" unicode="&#x3be;" horiz-adv-x="526" 
d="M353 -15c-196 10 -307 93 -308 238c0 111 70 189 171 220c-82 14 -137 74 -137 157c0 102 79 175 198 175c102 0 181 -57 208 -156l-122 -17c-12 41 -40 62 -81 62c-43 0 -70 -30 -70 -67c0 -63 45 -93 112 -93h73v-114h-55c-91 0 -165 -60 -165 -150
c0 -92 71 -139 242 -144c47 -1 63 -23 63 -61c0 -59 -39 -161 -89 -232l-100 30c29 51 50 107 60 152z" />
    <glyph glyph-name="_509" unicode="&#x3bf;" horiz-adv-x="572" 
d="M179 309v-85c0 -90 50 -131 107 -131s107 41 107 131v85c0 91 -50 131 -107 131s-107 -40 -107 -131zM47 208v118c0 125 98 229 239 229s240 -104 240 -229v-118c0 -125 -99 -229 -240 -229s-239 104 -239 229z" />
    <glyph glyph-name="_510" unicode="&#x3c0;" horiz-adv-x="600" 
d="M234 428v-433h-133v433h-81v114h559v-114h-81v-433h-133v433h-131z" />
    <glyph glyph-name="_511" unicode="&#x3c1;" horiz-adv-x="580" 
d="M195 307v-152c21 -39 53 -62 96 -62c79 0 109 48 109 136v78c0 94 -35 137 -102 137s-103 -43 -103 -137zM299 554c137 0 234 -87 234 -236v-114c0 -129 -73 -225 -197 -225c-62 0 -115 26 -141 65v-291h-132v565c0 149 98 236 236 236z" />
    <glyph glyph-name="_512" unicode="&#x3c3;" horiz-adv-x="575" 
d="M47 208v104c0 125 98 230 239 230h283v-114h-97c35 -25 54 -69 54 -116v-104c0 -125 -99 -229 -240 -229s-239 104 -239 229zM179 296v-72c0 -90 50 -131 107 -131s107 41 107 131v72c0 91 -50 132 -107 132s-107 -41 -107 -132z" />
    <glyph glyph-name="_513" unicode="&#x3c4;" horiz-adv-x="482" 
d="M303 427v-281c0 -34 11 -45 40 -45h36v-110c-18 -2 -48 -3 -74 -3c-93 0 -135 37 -135 130v309h-146v114h436v-114h-157z" />
    <glyph glyph-name="_514" unicode="&#x3c5;" horiz-adv-x="583" 
d="M291 -21c-136 0 -230 87 -230 217v346h132v-337c0 -69 39 -112 98 -112c61 0 99 43 99 112v337h133v-346c0 -130 -94 -217 -232 -217z" />
    <glyph glyph-name="_515" unicode="&#x3c6;" horiz-adv-x="765" 
d="M448 426v-332c91 1 135 45 135 158v18c0 112 -44 155 -135 156zM181 270c0 -124 33 -175 134 -176v447h121c183 0 279 -105 279 -271v-19c0 -165 -98 -265 -267 -271v-226h-133v226c-175 6 -267 111 -267 271v19c0 139 64 236 192 264l21 -116c-55 -15 -80 -61 -80 -148z
" />
    <glyph glyph-name="_516" unicode="&#x3c7;" horiz-adv-x="561" 
d="M404 -247l-123 288l-125 -288h-148l184 404l-172 385h147l114 -269l113 269h147l-173 -385l184 -404h-148z" />
    <glyph glyph-name="_517" unicode="&#x3c8;" horiz-adv-x="741" 
d="M303 542h133v-449c68 4 109 46 109 120v329h132v-328c0 -141 -88 -223 -241 -234v-227h-133v227c-153 11 -240 93 -240 234v328h132v-329c0 -74 40 -116 108 -120v449z" />
    <glyph glyph-name="_518" unicode="&#x3c9;" horiz-adv-x="811" 
d="M338 435h132v-197c0 -105 24 -146 77 -146c47 0 76 39 76 146v19c0 87 -19 188 -56 284h133c37 -93 55 -192 55 -283v-19c0 -174 -71 -259 -191 -259c-78 0 -137 39 -159 110c-23 -71 -82 -110 -161 -110c-118 0 -190 85 -190 259v19c0 91 18 190 55 283h134
c-38 -96 -57 -197 -57 -284v-19c0 -107 29 -146 76 -146c53 0 76 41 76 146v197z" />
    <glyph glyph-name="_519" unicode="&#x2500;" 
d="M920 388h-920v-60h920v60z" />
    <glyph glyph-name="_520" unicode="&#x2502;" 
d="M430 -142v1000h60v-1000h-60z" />
    <glyph glyph-name="_521" unicode="&#x250c;" 
d="M490 -142h-60v530h490v-60h-430v-470z" />
    <glyph glyph-name="_522" unicode="&#x2510;" 
d="M0 388h490v-530h-60v470h-430v60z" />
    <glyph glyph-name="_523" unicode="&#x2518;" 
d="M430 858h60v-530h-490v60h430v470z" />
    <glyph glyph-name="_524" unicode="&#x2514;" 
d="M920 328h-490v530h60v-470h430v-60z" />
    <glyph glyph-name="_525" unicode="&#x251c;" 
d="M430 -142v1000h60v-470h430v-60h-430v-470h-60z" />
    <glyph glyph-name="_526" unicode="&#x252c;" 
d="M0 388h920v-60h-430v-470h-60v470h-430v60z" />
    <glyph glyph-name="_527" unicode="&#x2524;" 
d="M430 858h60v-1000h-60v470h-430v60h430v470z" />
    <glyph glyph-name="_528" unicode="&#x2534;" 
d="M920 388v-60h-920v60h430v470h60v-470h430z" />
    <glyph glyph-name="_529" unicode="&#x253c;" 
d="M430 388v470h60v-470h430v-60h-430v-470h-60v470h-430v60h430z" />
    <glyph glyph-name="_530" unicode="&#x2501;" 
d="M0 311v94h920v-94h-920zM0 311v94h920v-94h-920z" />
    <glyph glyph-name="_531" unicode="&#x2503;" 
d="M413 -142v1000h94v-1000h-94z" />
    <glyph glyph-name="_532" unicode="&#x250f;" 
d="M413 -142v547h507v-94h-413v-453h-94z" />
    <glyph glyph-name="_533" unicode="&#x2513;" 
d="M0 311v94h507v-547h-94v453h-413z" />
    <glyph glyph-name="_534" unicode="&#x251b;" 
d="M413 405v453h94v-547h-507v94h413z" />
    <glyph glyph-name="_535" unicode="&#x2517;" 
d="M413 311v547h94v-453h413v-94h-507z" />
    <glyph glyph-name="_536" unicode="&#x2523;" 
d="M413 -142v1000h94v-453h413v-94h-413v-453h-94z" />
    <glyph glyph-name="_537" unicode="&#x2533;" 
d="M413 311h-413v94h920v-94h-413v-453h-94v453z" />
    <glyph glyph-name="_538" unicode="&#x252b;" 
d="M413 311h-413v94h413v453h94v-1000h-94v453z" />
    <glyph glyph-name="_539" unicode="&#x253b;" 
d="M0 405h413v453h94v-453h413v-94h-920v94z" />
    <glyph glyph-name="_540" unicode="&#x254b;" 
d="M0 405h413v453h94v-453h413v-94h-413v-453h-94v453h-413v94z" />
    <glyph glyph-name="_541" unicode="&#x2520;" 
d="M507 376h413v-36h-413v-482h-94v1000h94v-482z" />
    <glyph glyph-name="_542" unicode="&#x252f;" 
d="M0 405h920v-94h-442v-453h-36v453h-442v94z" />
    <glyph glyph-name="_543" unicode="&#x2528;" 
d="M507 858v-1000h-94v482h-413v36h413v482h94z" />
    <glyph glyph-name="_544" unicode="&#x2537;" 
d="M0 405h442v453h36v-453h442v-94h-920v94z" />
    <glyph glyph-name="_545" unicode="&#x253f;" 
d="M0 405h442v453h36v-453h442v-94h-442v-453h-36v453h-442v94z" />
    <glyph glyph-name="_546" unicode="&#x251d;" 
d="M478 405h442v-94h-442v-453h-36v1000h36v-453z" />
    <glyph glyph-name="_547" unicode="&#x2530;" 
d="M0 376h920v-36h-413v-482h-94v482h-413v36z" />
    <glyph glyph-name="_548" unicode="&#x2525;" 
d="M0 405h442v453h36v-1000h-36v453h-442v94z" />
    <glyph glyph-name="_549" unicode="&#x2538;" 
d="M0 376h413v482h94v-482h413v-36h-920v36z" />
    <glyph glyph-name="_550" unicode="&#x2542;" 
d="M0 376h413v482h94v-482h413v-36h-413v-482h-94v482h-413v36z" />
    <glyph glyph-name="_551" unicode="&#x2512;" 
d="M413 -142v482h-413v36h507v-518h-94z" />
    <glyph glyph-name="_552" unicode="&#x2511;" 
d="M442 -142v453h-442v94h478v-547h-36z" />
    <glyph glyph-name="_553" unicode="&#x251a;" 
d="M0 376h413v482h94v-518h-507v36z" />
    <glyph glyph-name="_554" unicode="&#x2519;" 
d="M0 405h442v453h36v-547h-478v94z" />
    <glyph glyph-name="_555" unicode="&#x2516;" 
d="M507 858v-482h413v-36h-507v518h94z" />
    <glyph glyph-name="_556" unicode="&#x2515;" 
d="M478 858v-453h442v-94h-478v547h36z" />
    <glyph glyph-name="_557" unicode="&#x250e;" 
d="M920 340h-413v-482h-94v518h507v-36z" />
    <glyph glyph-name="_558" unicode="&#x250d;" 
d="M442 -142v547h478v-94h-442v-453h-36z" />
    <glyph glyph-name="_559" unicode="&#x251e;" 
d="M413 340v518h94v-482h413v-36h-442v-482h-36v482h-29z" />
    <glyph glyph-name="_560" unicode="&#x251f;" 
d="M442 376v482h36v-482h442v-36h-413v-482h-94v518h29z" />
    <glyph glyph-name="_561" unicode="&#x2521;" 
d="M478 -142h-36v453h-29v547h94v-453h413v-94h-442v-453z" />
    <glyph glyph-name="_562" unicode="&#x2522;" 
d="M507 -142h-94v547h29v453h36v-453h442v-94h-413v-453z" />
    <glyph glyph-name="_563" unicode="&#x2526;" 
d="M413 376v482h94v-518h-29v-482h-36v482h-442v36h413z" />
    <glyph glyph-name="_564" unicode="&#x2527;" 
d="M0 340v36h442v482h36v-482h29v-518h-94v482h-413z" />
    <glyph glyph-name="_565" unicode="&#x2529;" 
d="M442 311h-442v94h413v453h94v-547h-29v-453h-36v453z" />
    <glyph glyph-name="_566" unicode="&#x252a;" 
d="M413 311h-413v94h442v453h36v-453h29v-547h-94v453z" />
    <glyph glyph-name="_567" unicode="&#x252d;" 
d="M442 311h-442v94h478v-29h442v-36h-442v-482h-36v453z" />
    <glyph glyph-name="_568" unicode="&#x252e;" 
d="M442 340h-442v36h441v29h479v-94h-442v-453h-36v482z" />
    <glyph glyph-name="_569" unicode="&#x2531;" 
d="M413 311h-413v94h507v-29h413v-36h-413v-482h-94v453z" />
    <glyph glyph-name="_570" unicode="&#x2532;" 
d="M413 340h-413v36h413v29h507v-94h-413v-453h-94v482z" />
    <glyph glyph-name="_571" unicode="&#x2535;" 
d="M478 311h-478v94h442v453h36v-482h442v-36h-442v-29z" />
    <glyph glyph-name="_572" unicode="&#x2536;" 
d="M442 340h-442v36h442v482h36v-453h442v-94h-478v29z" />
    <glyph glyph-name="_573" unicode="&#x2539;" 
d="M507 311h-507v94h413v453h94v-482h413v-36h-413v-29z" />
    <glyph glyph-name="_574" unicode="&#x253a;" 
d="M413 340h-413v36h413v482h94v-453h413v-94h-507v29z" />
    <glyph glyph-name="_575" unicode="&#x253d;" 
d="M442 311h-442v94h442v453h36v-482h442v-36h-442v-482h-36v453z" />
    <glyph glyph-name="_576" unicode="&#x253e;" 
d="M442 858h36v-453h442v-94h-442v-453h-36v482h-442v36h442v482z" />
    <glyph glyph-name="_577" unicode="&#x2540;" 
d="M413 858h94v-482h413v-36h-442v-482h-36v482h-442v36h413v482z" />
    <glyph glyph-name="_578" unicode="&#x2541;" 
d="M442 858h36v-482h442v-36h-413v-482h-94v482h-413v36h442v482z" />
    <glyph glyph-name="_579" unicode="&#x2543;" 
d="M413 858h94v-482h413v-36h-413v-29h-29v-453h-36v453h-442v94h413v453z" />
    <glyph glyph-name="_580" unicode="&#x2544;" 
d="M478 311v-453h-36v453h-29v29h-413v36h413v482h94v-453h413v-94h-442z" />
    <glyph glyph-name="_581" unicode="&#x2545;" 
d="M442 858h36v-453h29v-29h413v-36h-413v-482h-94v453h-413v94h442v453z" />
    <glyph glyph-name="_582" unicode="&#x2546;" 
d="M442 858h36v-453h442v-94h-413v-453h-94v482h-413v36h413v29h29v453z" />
    <glyph glyph-name="_583" unicode="&#x2547;" 
d="M413 858h94v-453h413v-94h-442v-453h-36v453h-442v94h413v453z" />
    <glyph glyph-name="_584" unicode="&#x2548;" 
d="M442 858h36v-453h442v-94h-413v-453h-94v453h-413v94h442v453z" />
    <glyph glyph-name="_585" unicode="&#x2549;" 
d="M413 858h94v-482h413v-36h-413v-482h-94v453h-413v94h413v453z" />
    <glyph glyph-name="_586" unicode="&#x254a;" 
d="M413 858h94v-453h413v-94h-413v-453h-94v482h-413v36h413v482z" />
    <glyph glyph-name="_587" unicode="&#x3395;" 
d="M846 551c0 -164 -70 -280 -203 -360c0 -74 8 -109 50 -109c27 0 49 22 56 82l122 -25c-26 -105 -83 -158 -179 -158c-94 0 -157 53 -167 154c-13 -5 -25 -10 -38 -14l-23 108c20 7 40 13 60 22v325c0 121 57 197 163 197c100 0 159 -71 159 -193v-29zM207 522v-297
c0 -105 20 -142 58 -142c27 0 54 17 67 50v389h124v-528h-124v51c-12 -43 -39 -64 -70 -64c-26 0 -45 17 -55 41v-267h-123v767h123zM643 599v-273c57 57 85 130 85 224v50c0 49 -11 72 -43 72s-42 -26 -42 -73z" />
    <glyph glyph-name="_588" unicode="&#x3396;" 
d="M852 551c0 -166 -47 -285 -173 -364v-12c2 -69 13 -93 43 -93c26 0 43 19 47 82l107 -25c-19 -109 -70 -158 -154 -158c-83 0 -140 53 -149 153c-11 -4 -24 -10 -35 -13l-22 95v-222h-106v403c0 22 -9 33 -25 33s-28 -13 -34 -31v-405h-108v403c0 22 -9 33 -25 33
c-18 0 -29 -15 -34 -34v-402h-107v528h108v-46c11 36 41 59 80 59c40 0 67 -22 76 -58c14 33 44 58 88 58c52 0 87 -39 87 -116v-190c20 6 39 12 56 20v347c0 113 51 177 141 177c85 0 139 -58 139 -173v-49zM679 609v-276c48 53 65 124 65 217v52c0 48 -9 70 -32 70
c-21 0 -33 -19 -33 -63z" />
    <glyph glyph-name="_589" unicode="&#x3397;" 
d="M94 172v168c0 131 62 195 150 195c49 0 85 -22 102 -56v294h119v-779h-119v42c-17 -35 -53 -55 -102 -55c-88 0 -150 63 -150 191zM346 137v240c-14 32 -36 53 -68 53c-49 0 -64 -40 -64 -115v-118c0 -77 16 -112 64 -112c25 0 59 22 68 52zM646 606v-267
c49 52 74 122 74 211v44c0 55 -11 78 -37 78c-24 0 -37 -18 -37 -66zM696 82c26 0 41 19 46 82l120 -25c-20 -108 -76 -158 -169 -158c-92 0 -155 54 -165 154c-12 -5 -26 -10 -38 -14l-23 110c20 7 41 14 60 23v330c0 119 59 189 157 189c92 0 154 -63 154 -185v-37
c0 -163 -64 -279 -192 -359c0 -80 19 -110 50 -110z" />
    <glyph glyph-name="_590" unicode="&#x2113;" horiz-adv-x="600" 
d="M514 552c0 -169 -107 -293 -260 -366c5 -69 30 -98 78 -98c39 0 74 27 87 76l126 -24c-40 -108 -112 -160 -217 -160s-181 57 -199 161c-25 -7 -51 -14 -76 -19l-22 114c33 5 65 14 94 25v301c0 131 72 212 194 212c119 0 195 -78 195 -208v-14zM253 558v-238
c83 56 133 135 133 230v10c0 70 -23 105 -67 105c-45 0 -66 -39 -66 -107z" />
    <glyph glyph-name="_591" unicode="&#x3398;" 
d="M836 551c0 -163 -64 -279 -193 -359c0 -75 15 -110 47 -110c26 0 44 19 49 82c40 -9 80 -17 121 -25c-20 -108 -77 -158 -171 -158c-91 0 -154 54 -164 154c-12 -5 -25 -10 -38 -14l-23 110c21 7 41 14 60 23v330c0 119 60 189 156 189c93 0 156 -63 156 -185v-37z
M228 773v-453l44 37c48 40 64 71 64 135v30h119v-21c0 -96 -18 -145 -93 -211l135 -296h-124l-98 219l-47 -39v-180h-119v779h119zM643 606v-267c51 52 74 122 74 211v44c0 55 -12 78 -38 78c-23 0 -36 -18 -36 -66z" />
    <glyph glyph-name="_592" unicode="&#x33c4;" 
d="M85 182v152c0 127 73 201 182 201s175 -72 183 -182l-119 -9c-6 57 -24 86 -64 86c-41 0 -64 -32 -64 -92v-161c0 -59 23 -91 64 -91c40 0 58 29 64 85l119 -8c-8 -111 -74 -182 -183 -182s-182 73 -182 201zM479 182v152c0 127 73 201 181 201c110 0 176 -72 184 -182
l-119 -9c-6 57 -24 86 -65 86c-40 0 -63 -32 -63 -92v-161c0 -59 23 -91 63 -91c41 0 59 29 65 85l119 -8c-8 -111 -74 -182 -184 -182c-108 0 -181 73 -181 201z" />
    <glyph glyph-name="_593" unicode="&#x33a3;" 
d="M295 -6h-97v409c0 19 -6 29 -21 29c-11 0 -23 -11 -26 -31v-407h-98v528h99v-46c9 35 34 59 68 59c33 0 58 -20 66 -54c11 32 35 54 74 54c50 0 80 -38 80 -101v-440h-98v409c0 19 -6 29 -20 29c-11 0 -21 -10 -27 -28v-410zM722 -6h-98v409c0 19 -8 29 -20 29
c-13 0 -24 -11 -27 -31v-407h-98v528h98v-46c9 35 35 59 69 59c33 0 57 -20 65 -54c13 32 36 54 74 54c51 0 81 -38 81 -101v-440h-97v409c0 19 -8 29 -21 29s-22 -10 -26 -28v-410zM690 629l67 2c0 -11 8 -20 18 -20c11 0 19 8 19 22c0 15 -8 24 -21 24c-7 0 -14 -3 -20 -6
l-30 34l46 39h-70v48h153v-45l-46 -37c29 -3 55 -22 55 -58c0 -37 -30 -70 -87 -70c-49 0 -84 29 -84 67z" />
    <glyph glyph-name="_594" unicode="&#x33a4;" 
d="M680 481c15 31 41 54 81 54c57 0 88 -41 88 -107v-434h-104v404c0 21 -8 33 -24 33c-14 0 -25 -11 -31 -31v-406h-105v404c0 21 -7 33 -23 33c-14 0 -26 -13 -32 -32v-405h-102v528h103v-46c10 35 39 59 75 59c39 0 65 -21 74 -54zM66 177v160c0 128 60 198 163 198
c107 0 158 -74 164 -181l-113 -9c-3 59 -15 86 -51 86c-38 0 -50 -35 -50 -99v-165c0 -56 16 -82 50 -82c36 0 48 26 51 84l113 -9c-6 -107 -57 -179 -164 -179c-103 0 -163 68 -163 196zM673 629l67 2c0 -11 7 -20 18 -20s18 8 18 22c0 15 -7 24 -20 24c-8 0 -14 -3 -20 -6
l-31 34l46 39h-70v48h154v-45l-46 -37c29 -3 54 -22 54 -58c0 -37 -29 -70 -86 -70c-49 0 -84 29 -84 67z" />
    <glyph glyph-name="_595" unicode="&#x33a5;" 
d="M223 349v-355h-129v528h129v-66c24 44 69 79 139 79c64 0 113 -33 135 -83c32 52 83 83 153 83c109 0 176 -80 176 -206v-335h-129v325c0 72 -38 104 -81 104c-40 0 -75 -24 -92 -74v-355h-129v325c0 71 -34 104 -79 104c-42 0 -77 -24 -93 -74zM660 629l67 2
c0 -11 8 -20 19 -20c10 0 18 8 18 22c0 15 -8 24 -20 24c-8 0 -15 -3 -20 -6l-31 34l46 39h-70v48h154v-45l-47 -37c29 -3 55 -22 55 -58c0 -37 -30 -70 -86 -70c-49 0 -85 29 -85 67z" />
    <glyph glyph-name="_596" unicode="&#x33a6;" 
d="M374 498c0 -102 -23 -157 -79 -211l116 -293h-117l-80 214l-31 -28v-186h-109v779h109v-448l25 22c38 34 57 67 57 150v25h109v-24zM680 481c15 31 41 54 81 54c58 0 88 -41 88 -107v-434h-104v404c0 21 -8 33 -24 33c-14 0 -25 -11 -31 -31v-406h-105v404
c0 21 -6 33 -23 33c-14 0 -26 -13 -31 -32v-405h-103v528h104v-46c9 35 38 59 74 59c39 0 65 -21 74 -54zM673 629l67 2c0 -11 8 -20 18 -20c11 0 18 8 18 22c0 15 -7 24 -20 24c-7 0 -14 -3 -20 -6l-31 34l46 39h-70v48h154v-45l-46 -37c29 -3 55 -22 55 -58
c0 -37 -30 -70 -87 -70c-49 0 -84 29 -84 67z" />
    <glyph glyph-name="_597" unicode="&#x3399;" 
d="M663 -6h-111v402c0 23 -10 34 -27 34c-19 0 -30 -14 -35 -34v-402h-109v528h109v-46c12 36 45 59 87 59c38 0 66 -22 76 -59c13 33 46 59 89 59c56 0 93 -39 93 -116v-425h-109v402c0 23 -12 34 -28 34c-17 0 -29 -12 -35 -31v-405zM358 773v-105h-29
c-62 0 -79 -23 -79 -92v-54h108v-106h-108v-422h-120v422h-72v106h72v53c0 149 58 198 199 198h29z" />
    <glyph glyph-name="_598" unicode="&#x339a;" 
d="M378 -6h-112v394c0 28 -14 43 -37 43c-20 0 -38 -16 -46 -43v-394h-111v529h111v-45c14 34 46 57 91 57c63 0 104 -46 104 -127v-414zM680 481c15 31 41 54 81 54c58 0 88 -41 88 -106v-435h-104v405c0 21 -8 32 -24 32c-14 0 -24 -11 -30 -30v-407h-106v405
c0 21 -6 32 -23 32c-14 0 -26 -13 -30 -32v-405h-104v529h104v-47c9 35 39 59 75 59c39 0 64 -20 73 -54z" />
    <glyph glyph-name="_599" unicode="&#x339b;" 
d="M689 -6h-104v403c0 22 -7 33 -24 33c-14 0 -26 -13 -30 -31v-405h-104v528h105v-46c9 35 38 59 73 59c39 0 65 -21 74 -55c15 32 42 55 82 55c57 0 87 -42 87 -108v-433h-104v403c0 22 -7 33 -24 33c-14 0 -25 -11 -31 -30v-406zM183 522v-372c2 -49 17 -65 38 -65
c23 0 41 12 44 48v389h111v-528h-111v30c-5 -26 -22 -43 -44 -43c-19 0 -33 16 -38 38v-264h-111v767h111z" />
    <glyph glyph-name="_600" unicode="&#x339c;" 
d="M295 -6h-97v409c0 19 -6 29 -21 29c-11 0 -23 -11 -26 -31v-407h-98v528h99v-46c9 35 34 59 68 59c33 0 58 -20 66 -54c11 32 35 54 74 54c50 0 80 -38 80 -101v-440h-98v409c0 19 -6 29 -20 29c-11 0 -21 -10 -27 -28v-410zM722 -6h-98v409c0 19 -8 29 -20 29
c-13 0 -24 -11 -27 -31v-407h-98v528h98v-46c9 35 35 59 69 59c33 0 57 -20 65 -54c13 32 36 54 74 54c51 0 81 -38 81 -101v-440h-97v409c0 19 -8 29 -21 29s-22 -10 -26 -28v-410z" />
    <glyph glyph-name="_601" unicode="&#x339d;" 
d="M680 481c15 31 41 54 81 54c57 0 88 -41 88 -107v-434h-104v404c0 21 -8 33 -24 33c-14 0 -25 -11 -31 -31v-406h-105v404c0 21 -7 33 -23 33c-14 0 -26 -13 -32 -32v-405h-102v528h103v-46c10 35 39 59 75 59c39 0 65 -21 74 -54zM66 177v160c0 128 60 198 163 198
c107 0 158 -74 164 -181l-113 -9c-3 59 -15 86 -51 86c-38 0 -50 -35 -50 -99v-165c0 -56 16 -82 50 -82c36 0 48 26 51 84l113 -9c-6 -107 -57 -179 -164 -179c-103 0 -163 68 -163 196z" />
    <glyph glyph-name="_602" unicode="&#x339e;" 
d="M680 481c15 31 41 54 81 54c58 0 88 -41 88 -107v-434h-104v404c0 21 -8 33 -24 33c-14 0 -25 -11 -31 -31v-406h-105v404c0 21 -6 33 -23 33c-14 0 -26 -13 -31 -32v-405h-103v528h104v-46c9 35 38 59 74 59c39 0 65 -21 74 -54zM374 498c0 -102 -23 -157 -79 -211
l116 -293h-117l-80 214l-31 -28v-186h-109v779h109v-448l25 22c38 34 57 67 57 150v25h109v-24z" />
    <glyph glyph-name="_603" unicode="&#x339f;" 
d="M295 -6h-97v409c0 19 -6 29 -21 29c-11 0 -23 -11 -26 -31v-407h-98v528h99v-46c9 35 34 59 68 59c33 0 58 -20 66 -54c11 32 35 54 74 54c50 0 80 -38 80 -101v-440h-98v409c0 19 -6 29 -20 29c-11 0 -21 -10 -27 -28v-410zM722 -6h-98v409c0 19 -8 29 -20 29
c-13 0 -24 -11 -27 -31v-407h-98v528h98v-46c9 35 35 59 69 59c33 0 57 -20 65 -54c13 32 36 54 74 54c51 0 81 -38 81 -101v-440h-97v409c0 19 -8 29 -21 29s-22 -10 -26 -28v-410zM781 730c-10 0 -15 -7 -15 -18v-13l-66 2v8c0 38 26 69 81 69c53 0 81 -31 81 -69
c0 -27 -10 -41 -30 -60l-37 -34h67v-47h-159v44l76 69c13 12 16 20 16 31s-5 18 -14 18z" />
    <glyph glyph-name="_604" unicode="&#x33a0;" 
d="M765 730c-11 0 -16 -7 -16 -18v-13l-66 2v8c0 38 27 69 82 69c53 0 80 -31 80 -69c0 -27 -9 -41 -29 -60l-38 -34h67v-47h-158v44l76 69c12 12 15 20 15 31s-5 18 -13 18zM680 481c15 31 41 54 81 54c57 0 88 -41 88 -107v-434h-104v404c0 21 -8 33 -24 33
c-14 0 -25 -11 -31 -31v-406h-105v404c0 21 -7 33 -23 33c-14 0 -26 -13 -32 -32v-405h-102v528h103v-46c10 35 39 59 75 59c39 0 65 -21 74 -54zM66 177v160c0 128 60 198 163 198c107 0 158 -74 164 -181l-113 -9c-3 59 -15 86 -51 86c-38 0 -50 -35 -50 -99v-165
c0 -56 16 -82 50 -82c36 0 48 26 51 84l113 -9c-6 -107 -57 -179 -164 -179c-103 0 -163 68 -163 196z" />
    <glyph glyph-name="_605" unicode="&#x33a1;" 
d="M223 349v-355h-129v528h129v-66c24 44 69 79 139 79c64 0 113 -33 135 -83c32 52 83 83 153 83c109 0 176 -80 176 -206v-335h-129v325c0 72 -38 104 -81 104c-40 0 -75 -24 -92 -74v-355h-129v325c0 71 -34 104 -79 104c-42 0 -77 -24 -93 -74zM751 730
c-11 0 -16 -7 -16 -18v-13l-66 2v8c0 38 27 69 82 69c52 0 80 -31 80 -69c0 -27 -9 -41 -30 -60l-37 -34h67v-47h-158v44l76 69c12 12 15 20 15 31s-5 18 -13 18z" />
    <glyph glyph-name="_606" unicode="&#x33a2;" 
d="M680 481c15 31 41 54 81 54c58 0 88 -41 88 -107v-434h-104v404c0 21 -8 33 -24 33c-14 0 -25 -11 -31 -31v-406h-105v404c0 21 -6 33 -23 33c-14 0 -26 -13 -31 -32v-405h-103v528h104v-46c9 35 38 59 74 59c39 0 65 -21 74 -54zM374 498c0 -102 -23 -157 -79 -211
l116 -293h-117l-80 214l-31 -28v-186h-109v779h109v-448l25 22c38 34 57 67 57 150v25h109v-24zM765 730c-11 0 -15 -7 -15 -18v-13l-67 2v8c0 38 27 69 82 69c53 0 81 -31 81 -69c0 -27 -10 -41 -30 -60l-38 -34h68v-47h-159v44l76 69c12 12 15 20 15 31s-4 18 -13 18z" />
    <glyph glyph-name="_607" unicode="&#x33ca;" 
d="M433 -6h-119v368c0 46 -20 68 -52 68c-30 0 -55 -20 -64 -47v-389h-118v528h118v-51c17 34 55 64 107 64c76 0 128 -52 128 -161v-380zM657 79c33 0 57 19 69 56v74h-55c-42 0 -69 -25 -69 -65v-6c0 -37 18 -59 55 -59zM678 430c-27 0 -47 -21 -53 -63l-118 9
c15 90 60 159 171 159c100 0 166 -62 166 -165v-376h-118v42c-18 -36 -53 -55 -102 -55c-77 0 -138 56 -138 149v16c0 97 60 160 186 160h54v60c0 44 -24 64 -48 64z" />
    <glyph glyph-name="_608" unicode="&#x338d;" 
d="M493 154v206c0 117 55 175 136 175c42 0 77 -22 91 -53v40h118v-599c0 -116 -59 -179 -162 -179c-88 0 -152 56 -166 160l118 11c6 -47 23 -65 48 -65c29 0 44 17 44 64v119c-14 -31 -49 -52 -91 -52c-82 0 -136 57 -136 173zM198 522v-295c0 -105 16 -142 54 -142
c26 0 51 16 63 50v387h119v-528h-119v51c-11 -42 -35 -64 -66 -64c-25 0 -42 17 -51 41v-267h-118v767h118zM664 430c-38 0 -53 -29 -53 -94v-159c0 -58 21 -92 53 -92c26 0 45 13 56 42v258c-13 29 -31 45 -56 45z" />
    <glyph glyph-name="_609" unicode="&#x338e;" 
d="M514 154v206c0 117 55 175 137 175c43 0 78 -22 91 -53v40h118v-599c0 -116 -59 -179 -161 -179c-89 0 -154 56 -167 160l119 11c5 -47 22 -65 48 -65c27 0 43 17 43 64v119c-13 -31 -48 -52 -91 -52c-82 0 -137 57 -137 173zM308 -6h-98v408c0 19 -8 30 -24 30
s-27 -13 -32 -32v-406h-97v528h98v-46c9 35 38 59 74 59c37 0 61 -21 69 -54c14 32 41 54 78 54c53 0 84 -39 84 -103v-438h-97v408c0 19 -8 30 -24 30c-14 0 -26 -11 -31 -31v-407zM686 430c-39 0 -54 -31 -54 -94v-159c0 -60 22 -92 54 -92c26 0 44 13 56 42v258
c-10 26 -34 45 -56 45z" />
    <glyph glyph-name="_610" unicode="&#x338f;" 
d="M466 154v206c0 117 58 175 141 175c44 0 84 -22 96 -53v40h118v-599c0 -116 -60 -179 -163 -179c-89 0 -155 56 -168 160l118 11c6 -47 24 -65 50 -65c28 0 45 17 45 64v119c-12 -31 -52 -52 -96 -52c-85 0 -141 58 -141 173zM212 773v-442l19 17c53 48 68 83 68 148v26
h115v-24c0 -87 -22 -143 -80 -203l132 -301h-122l-96 222l-36 -30v-192h-114v779h114zM643 430c-41 0 -59 -32 -59 -94v-158c0 -63 19 -93 59 -93c23 0 51 19 60 42v258c-13 28 -32 45 -60 45z" />
    <glyph glyph-name="_611" unicode="&#x33cf;" 
d="M255 773v-442l24 22c47 43 63 77 63 143v26h116v-24c0 -87 -24 -142 -81 -203l132 -301h-122l-96 222l-36 -30v-192h-115v779h115zM698 522h118v-106h-118v-247c0 -50 21 -73 59 -73h67v-102h-94c-104 0 -150 54 -150 164v258h-75v106h75v159h118v-159z" />
    <glyph glyph-name="_612" unicode="&#x3388;" 
d="M171 360v-181c0 -70 8 -100 40 -100c29 0 39 21 43 83l104 -10v-2c-7 -107 -56 -169 -146 -169c-87 0 -142 65 -142 175v201c0 112 55 178 142 178c89 0 139 -65 146 -174l-104 -9c-4 57 -12 83 -43 83c-28 0 -40 -21 -40 -75zM896 96v-102h-34c-100 0 -136 50 -136 150
v629h109v-618c0 -44 13 -59 46 -59h15zM522 79c23 0 40 14 47 47v86h-30c-38 0 -55 -23 -55 -68v-8c0 -41 13 -57 38 -57zM535 435c-25 0 -34 -27 -37 -67l-99 9c10 101 49 158 138 158c81 0 136 -51 136 -141v-400h-104v37c-10 -31 -39 -50 -78 -50c-65 0 -108 51 -108 142
v26c0 101 58 155 151 155h35v84c0 34 -14 47 -34 47z" />
    <glyph glyph-name="_613" unicode="&#x3389;" 
d="M295 -6h-87l-44 209l-22 -29v-180h-85v779h85v-461l9 12c23 31 35 62 35 169v29h86v-29c0 -97 -10 -148 -44 -204zM641 441c-21 0 -21 -33 -21 -73l-86 7c0 102 30 160 107 160c70 0 103 -51 103 -141v-400h-83v31c-6 -25 -28 -44 -55 -44c-50 0 -86 43 -86 142v26
c0 104 52 155 120 155h19v99c0 29 -5 38 -18 38zM382 389v-266c0 -37 7 -49 20 -49c18 0 20 20 20 69v14l83 -8c0 -119 -28 -168 -103 -168c-66 0 -105 47 -105 154v243c0 109 39 157 105 157c75 0 103 -52 103 -172l-83 -6v13c0 52 -2 71 -20 71c-13 0 -20 -13 -20 -52z
M899 96v-102h-29c-76 0 -96 43 -96 150v629h88v-628c0 -39 2 -49 24 -49h13zM631 75c15 0 23 13 28 38v103h-15c-28 0 -39 -28 -39 -73v-30c2 -28 11 -38 26 -38z" />
    <glyph glyph-name="_614" unicode="&#x33c8;" 
d="M645 -6h-176v767h161c117 0 205 -70 205 -210c0 -78 -35 -132 -93 -159c65 -24 115 -92 115 -178c0 -151 -86 -220 -212 -220zM66 154v206c0 114 52 175 133 175c43 0 77 -22 90 -54v293h118v-780h-118v39c-13 -32 -47 -52 -90 -52c-81 0 -133 59 -133 173zM289 128v236
c-9 45 -23 66 -53 66c-38 0 -52 -35 -52 -97v-153c0 -63 14 -95 52 -95c26 0 43 13 53 43zM735 217c0 80 -31 119 -96 119h-47v-236h47c66 0 96 38 96 117zM592 437h35c57 0 88 26 88 107c0 83 -34 106 -92 106h-31v-213z" />
    <glyph glyph-name="_615" unicode="&#x33a7;" 
d="M273 -6h-89v413c0 17 -7 25 -17 25c-14 0 -19 -11 -23 -31v-407h-89v528h90v-43c7 33 31 56 61 56c31 0 53 -18 59 -52c11 31 32 52 66 52c42 0 71 -34 71 -97v-444h-89v413c0 17 -7 25 -17 25c-12 0 -19 -10 -23 -27v-411zM746 306l10 -4c91 -33 113 -68 113 -171
c0 -93 -53 -150 -130 -150c-96 0 -132 58 -140 168l98 10c3 -55 13 -80 40 -80c22 0 35 14 35 50c0 44 -9 69 -45 82l-10 4c-81 28 -114 65 -114 162v10c0 88 44 148 125 148c94 0 129 -66 131 -161l-99 -8c0 42 -6 70 -33 70c-19 0 -28 -16 -28 -48c0 -50 11 -69 47 -82z
M576 680h54l-207 -852h-54z" />
    <glyph glyph-name="_616" unicode="&#x33a8;" 
d="M273 -6h-89v413c0 17 -7 25 -17 25c-14 0 -19 -11 -23 -31v-407h-89v528h90v-43c7 33 31 56 61 56c31 0 53 -18 59 -52c11 31 32 52 66 52c42 0 71 -34 71 -97v-444h-89v413c0 17 -7 25 -17 25c-12 0 -19 -10 -23 -27v-411zM746 306l10 -4c91 -33 113 -68 113 -171
c0 -93 -53 -150 -130 -150c-96 0 -132 58 -140 168l98 10c3 -55 13 -80 40 -80c22 0 35 14 35 50c0 44 -9 69 -45 82l-10 4c-81 28 -114 65 -114 162v10c0 88 44 148 125 148c94 0 129 -66 131 -161l-99 -8c0 42 -6 70 -33 70c-19 0 -28 -16 -28 -48c0 -50 11 -69 47 -82z
M576 680h54l-207 -852h-54zM766 730c-11 0 -16 -7 -16 -18v-13l-66 2v8c0 38 27 69 82 69c53 0 80 -31 80 -69c0 -27 -9 -41 -29 -60l-38 -34h67v-47h-158v44l76 69c12 12 15 20 15 31s-5 18 -13 18z" />
    <glyph glyph-name="_617" unicode="&#x33b0;" 
d="M455 340v-168c0 -127 -57 -191 -145 -191c-49 0 -84 20 -102 55v-281h-119v767h119v-43c18 34 53 56 102 56c88 0 145 -65 145 -195zM275 430c-34 0 -56 -19 -67 -53v-240c9 -33 35 -52 67 -52c39 0 61 30 61 106v132c0 74 -22 107 -61 107zM737 142c0 36 -18 54 -58 65
l-33 9c-90 24 -138 77 -138 164c0 95 64 155 158 155c95 0 159 -52 178 -151l-112 -18c-9 45 -27 65 -58 65c-29 0 -46 -19 -46 -51c0 -36 21 -55 59 -65l32 -8c91 -24 137 -74 137 -165c0 -95 -63 -162 -168 -162c-102 0 -167 54 -192 164l115 18c11 -57 35 -78 73 -78
c31 0 53 20 53 58z" />
    <glyph glyph-name="_618" unicode="&#x33b1;" 
d="M737 142c0 36 -18 54 -58 65l-33 9c-90 24 -138 77 -138 164c0 95 64 155 158 155c95 0 159 -52 178 -151l-112 -18c-9 45 -27 65 -58 65c-29 0 -46 -19 -46 -51c0 -36 21 -55 59 -65l32 -8c91 -24 137 -74 137 -165c0 -95 -63 -162 -168 -162c-102 0 -167 54 -192 164
l115 18c11 -57 35 -78 73 -78c31 0 53 20 53 58zM454 -6h-118v364c0 48 -21 73 -59 73c-32 0 -59 -21 -69 -48v-389h-119v529h119v-52c19 35 59 64 113 64c79 0 133 -52 133 -164v-377z" />
    <glyph glyph-name="_619" unicode="&#x33b2;" 
d="M207 522v-298c0 -101 15 -139 58 -139c31 0 59 19 70 53v384h119v-528h-119v51c-13 -45 -39 -62 -71 -62c-27 0 -48 15 -57 39v-267h-119v767h119zM737 142c0 36 -18 54 -58 65l-33 9c-90 24 -138 77 -138 164c0 95 64 155 158 155s159 -52 178 -151l-112 -18
c-9 45 -27 65 -58 65c-29 0 -46 -19 -46 -51c0 -36 21 -55 59 -65l32 -8c91 -24 137 -74 137 -165c0 -95 -63 -162 -168 -162c-102 0 -168 54 -192 164l115 18c11 -57 35 -78 73 -78c31 0 53 20 53 58z" />
    <glyph glyph-name="_620" unicode="&#x33b3;" 
d="M323 481c14 31 40 54 80 54c58 0 88 -41 88 -106v-435h-104v405c0 21 -8 32 -24 32c-14 0 -24 -11 -30 -30v-407h-106v405c0 21 -6 32 -23 32c-14 0 -25 -13 -30 -32v-405h-105v529h106v-47c8 35 38 59 74 59c38 0 64 -20 74 -54zM752 139c0 35 -16 55 -52 66l-32 10
c-87 26 -129 78 -129 165c0 96 58 155 148 155c91 0 148 -52 166 -151l-106 -18c-8 45 -24 65 -52 65c-27 0 -42 -19 -42 -52c0 -34 19 -54 53 -64l30 -8c91 -25 129 -78 129 -167c0 -93 -58 -160 -158 -160c-95 0 -157 54 -180 164l108 18c11 -57 32 -78 68 -78
c28 0 49 20 49 55z" />
    <glyph glyph-name="_621" unicode="&#x33b4;" 
d="M455 340v-168c0 -127 -59 -191 -145 -191c-49 0 -85 20 -103 55v-281h-119v767h119v-43c18 34 54 56 103 56c86 0 145 -65 145 -195zM428 761h126l98 -560l99 560h127l-153 -767h-146zM273 430c-33 0 -54 -19 -66 -53v-240c10 -33 36 -52 66 -52c42 0 62 29 62 106v132
c0 74 -20 107 -62 107z" />
    <glyph glyph-name="_622" unicode="&#x33b5;" 
d="M453 -6h-118v363c0 45 -23 73 -60 73c-32 0 -58 -22 -69 -47v-389h-119v528h119v-51c19 35 60 64 113 64c79 0 134 -52 134 -165v-376zM428 761h126l98 -560l99 560h127l-153 -767h-146z" />
    <glyph glyph-name="_623" unicode="&#x33b6;" 
d="M428 761h125l99 -560l99 560h127l-153 -767h-147zM201 522v-295c0 -104 17 -142 55 -142c27 0 52 16 63 50v387h119v-528h-119v51c-10 -42 -35 -64 -67 -64c-24 0 -42 17 -51 41v-267h-118v767h118z" />
    <glyph glyph-name="_624" unicode="&#x33b7;" 
d="M326 -6h-99v403c0 23 -10 35 -27 35c-15 0 -28 -13 -32 -32v-406h-98v528h98v-46c10 35 39 59 74 59c38 0 65 -22 74 -55c14 32 43 55 80 55c56 0 87 -39 87 -104v-437h-98v403c0 23 -9 35 -26 35c-15 0 -27 -11 -33 -29v-409zM466 761h119l92 -560l97 560h114l-144 -767
h-135z" />
    <glyph glyph-name="_625" unicode="&#x33b8;" 
d="M424 761h125l100 -560l99 560h126l-152 -767h-146zM211 773v-442l30 27c41 37 61 75 61 138v26h115v-24c0 -87 -25 -140 -84 -203l133 -301h-123l-96 222l-36 -30v-192h-114v779h114z" />
    <glyph glyph-name="_626" unicode="&#x33b9;" 
d="M314 237h-68l-60 224v-467h-114v767h113l96 -338l94 338h111v-767h-111v467zM506 761h116l71 -511l74 511h116l-127 -767h-127z" />
    <glyph glyph-name="_627" unicode="&#x3380;" 
d="M422 360v-206c0 -114 -53 -173 -134 -173c-43 0 -77 20 -90 52v-278h-118v767h118v-41c13 32 47 54 90 54c81 0 134 -61 134 -175zM883 -6h-117l-34 177h-142l-34 -177h-120l158 767h129zM252 430c-32 0 -45 -21 -54 -64v-220c9 -44 23 -61 54 -61c37 0 52 31 52 92v140
c0 62 -13 113 -52 113zM607 278h106l-54 278z" />
    <glyph glyph-name="_628" unicode="&#x3381;" 
d="M883 -6h-117l-34 177h-142l-34 -177h-120l158 767h129zM422 -6h-118v346c0 59 -14 90 -48 90c-29 0 -48 -19 -58 -46v-390h-118v528h118v-51c17 35 49 64 101 64c78 0 123 -55 123 -166v-375zM607 278h106l-54 278z" />
    <glyph glyph-name="_629" unicode="&#x3382;" 
d="M883 -6h-117l-34 177h-142l-34 -177h-120l158 767h129zM198 522v-297c0 -103 16 -140 52 -140c23 0 43 15 54 48v389h118v-528h-118v49c-9 -43 -31 -62 -59 -62c-22 0 -38 15 -47 39v-265h-118v767h118zM607 278h106l-54 278z" />
    <glyph glyph-name="_630" unicode="&#x3383;" 
d="M587 -6h-115l140 767h132l142 -767h-118l-29 177h-122zM311 -6h-98v409c0 19 -6 29 -20 29c-12 0 -23 -11 -27 -31v-407h-96v528h97v-46c9 35 34 59 69 59c33 0 57 -20 65 -54c11 32 35 54 74 54c51 0 81 -38 81 -101v-440h-98v409c0 19 -7 29 -21 29
c-11 0 -21 -10 -26 -28v-410zM632 278h91l-45 271z" />
    <glyph glyph-name="_631" unicode="&#x3384;" 
d="M201 773v-441c55 46 91 91 91 164v26h114v-24c0 -87 -24 -140 -84 -203l120 -267l152 733h130l159 -767h-117l-34 177h-142l-33 -177h-224l-96 222l-36 -30v-192h-114v779h114zM607 278h106l-54 278z" />
    <glyph glyph-name="_632" unicode="&#x33ba;" 
d="M584 761h98l59 -493l44 493h103l-85 -767h-112l-59 496l-57 -496h-113l-84 767h102l45 -493zM386 361v-210c0 -111 -41 -170 -122 -170c-39 0 -71 21 -82 51v-277h-113v767h113v-40c11 30 43 53 82 53c81 0 122 -61 122 -174zM227 430c-30 0 -42 -28 -45 -62v-223
c3 -35 14 -60 45 -60c36 0 46 37 46 101v142c0 59 -10 102 -46 102z" />
    <glyph glyph-name="_633" unicode="&#x33bb;" 
d="M585 761h98l59 -493l45 493h103l-85 -767h-114l-57 497l-57 -497h-114l-84 767h102l45 -493zM383 -6h-112v382c0 38 -15 55 -41 55c-22 0 -40 -17 -48 -47v-390h-111v529h111v-49c13 36 47 61 92 61c67 0 109 -49 109 -139v-402z" />
    <glyph glyph-name="_634" unicode="&#x33bc;" 
d="M183 522v-340c1 -66 10 -97 39 -97c20 0 38 14 45 50v387h113v-528h-113v34c-5 -28 -24 -47 -46 -47c-19 0 -32 16 -38 38v-264h-111v767h111zM584 761h98l59 -493l44 493h103l-85 -767h-112l-59 496l-56 -496h-114l-84 767h102l45 -493z" />
    <glyph glyph-name="_635" unicode="&#x33bd;" 
d="M616 761h90l51 -482l36 482h95l-74 -767h-105l-48 486l-49 -486h-105l-74 767h95l36 -482zM295 -6h-96v410c0 19 -7 28 -21 28c-12 0 -21 -11 -25 -31v-407h-96v528h97v-46c8 35 33 59 68 59c33 0 56 -20 63 -53c13 32 37 53 73 53c48 0 79 -37 79 -101v-440h-97v410
c0 19 -6 28 -20 28c-12 0 -19 -9 -25 -27v-411z" />
    <glyph glyph-name="_636" unicode="&#x33be;" 
d="M584 761h98l60 -493l44 493h103l-85 -767h-113l-58 497l-57 -497h-113l-85 767h103l45 -493zM361 498c0 -95 -20 -141 -72 -204l119 -300h-115l-83 222l-31 -29v-193h-107v779h107v-449l28 27c30 28 45 65 45 146v25h109v-24z" />
    <glyph glyph-name="_637" unicode="&#x33bf;" 
d="M267 237h-59l-52 207v-450h-100v767h97l84 -336l85 336h96v-767h-100v450zM616 761h90l52 -482l36 482h94l-74 -767h-105l-48 486l-49 -486h-105l-74 767h94l37 -482z" />
    <glyph glyph-name="_638" unicode="&#x3390;" 
d="M89 -6v767h122v-319h139v319h122v-767h-122v336h-139v-336h-122zM532 -6v97l183 325h-173v106h311v-99l-186 -327h194v-102h-329z" />
    <glyph glyph-name="_639" unicode="&#x3391;" 
d="M349 -6v767h103v-325h62v325h103v-767h-103v342h-62v-342h-103zM339 -6h-105l-52 207l-18 -22v-185h-100v779h100v-438c39 38 50 83 50 158v29h99v-29c0 -88 -18 -146 -55 -198zM651 -6v83l110 350h-100v95h206v-84l-110 -351h117v-93h-223z" />
    <glyph glyph-name="_640" unicode="&#x3392;" 
d="M233 237h-51l-34 216v-459h-92v767h91l61 -327l61 327h92v-767h-93v459zM399 -6v767h93v-327h57v327h93v-767h-93v343h-57v-343h-93zM675 -6v78l99 360h-90v90h188v-80l-98 -359h106v-89h-205z" />
    <glyph glyph-name="_641" unicode="&#x3393;" 
d="M381 -6v767h94v-327h60v327h95v-767h-95v343h-60v-343h-94zM663 -6v78l95 360h-86v90h185v-80l-96 -359h103v-89h-201zM199 -19c-89 0 -139 69 -139 235v321c0 166 50 236 139 236c96 0 142 -78 142 -253c-32 -4 -64 -7 -95 -11v26c0 102 -20 136 -45 136
c-35 0 -46 -32 -46 -131v-326c0 -99 11 -131 46 -131c34 0 45 30 45 129v83h-48v97h143v-176c0 -166 -50 -235 -142 -235z" />
    <glyph glyph-name="_642" unicode="&#x3394;" 
d="M126 -6v665h-85v102h273v-102h-85v-665h-103zM642 -6v87l108 346h-101v95h207v-89l-110 -346h117v-93h-221zM339 -6v767h103v-318h61v318h103v-767h-103v347h-61v-347h-103z" />
    <glyph glyph-name="_643" unicode="&#x2126;" horiz-adv-x="720" 
d="M361 651c-87 0 -143 -65 -143 -186v-166c0 -97 34 -161 103 -193v-112h-237v117h82c-54 35 -87 93 -87 179v188c0 178 113 296 282 296c167 0 282 -118 282 -296v-188c0 -86 -35 -144 -89 -179h82v-117h-237v112c70 32 103 96 103 193v166c0 121 -56 186 -141 186z" />
    <glyph glyph-name="_644" unicode="&#x33c0;" 
d="M646 773c126 0 202 -89 202 -259v-221c0 -100 -26 -157 -82 -189h76v-110h-177v106c41 29 60 83 60 171v213c0 119 -17 172 -79 172c-61 0 -79 -53 -79 -172v-213c0 -88 20 -142 60 -171v-106h-176v110h75c-56 32 -81 90 -81 189v221c0 170 76 259 201 259zM196 773v-449
l28 28c32 32 52 64 52 144v26h110v-24c0 -95 -20 -148 -76 -208l117 -296h-116l-82 218l-33 -33v-185h-109v779h109z" />
    <glyph glyph-name="_645" unicode="&#x33c1;" 
d="M278 237h-61l-51 207v-450h-100v767h97l84 -336l84 336h97v-767h-100v450zM662 773c116 0 187 -81 187 -251v-255c0 -84 -29 -134 -79 -163h73v-110h-167v106c37 29 50 77 50 165v258c0 97 -28 133 -64 133c-47 0 -64 -38 -64 -133v-258c0 -88 12 -136 50 -165v-106h-168
v110h74c-51 29 -79 79 -79 163v255c0 170 70 251 187 251z" />
    <glyph glyph-name="_646" unicode="&#x338a;" 
d="M447 340v-168c0 -127 -59 -191 -146 -191c-49 0 -84 20 -102 55v-281h-119v767h119v-43c18 34 53 56 102 56c87 0 146 -65 146 -195zM512 -6v767h353v-113h-231v-216h207v-112h-207v-326h-122zM265 430c-33 0 -55 -19 -66 -53v-240c10 -33 35 -52 66 -52
c40 0 62 30 62 106v132c0 74 -22 107 -62 107z" />
    <glyph glyph-name="_647" unicode="&#x338b;" 
d="M513 -6v767h353v-112h-232v-216h208v-113h-208v-326h-121zM451 -6h-119v364c0 48 -21 73 -59 73c-32 0 -58 -21 -69 -48v-389h-118v529h118v-52c19 35 59 64 114 64c78 0 133 -52 133 -164v-377z" />
    <glyph glyph-name="_648" unicode="&#x338c;" 
d="M204 522v-298c0 -102 13 -139 57 -139c32 0 59 19 70 53v384h120v-528h-120v51c-12 -46 -41 -62 -71 -62c-25 0 -47 15 -56 39v-267h-119v767h119zM512 -6v767h353v-113h-231v-216h207v-113h-207v-325h-122z" />
    <glyph glyph-name="_649" unicode="&#x33d6;" 
d="M290 -6h-99v412c0 17 -5 26 -19 26c-13 0 -23 -12 -27 -31v-407h-97v528h98v-46c9 34 34 59 69 59c34 0 58 -20 66 -54c12 32 37 54 74 54c50 0 80 -38 80 -101v-440h-99v412c0 17 -7 26 -20 26s-22 -10 -26 -28v-410zM598 -19c-86 0 -126 62 -126 169v213
c0 110 40 172 126 172s127 -62 127 -172v-213c0 -107 -41 -169 -127 -169zM899 87v-101h-16c-85 0 -121 39 -121 133v654h98v-644c0 -29 8 -42 32 -42h7zM598 84c30 0 31 32 31 90v182c0 51 -7 76 -31 76c-32 0 -31 -38 -31 -93v-181c0 -56 5 -74 31 -74z" />
    <glyph glyph-name="_650" unicode="&#x33c5;" 
d="M468 172v168c0 131 62 195 148 195c49 0 84 -22 102 -56v294h116v-779h-116v42c-18 -34 -53 -55 -102 -55c-86 0 -148 63 -148 191zM650 85c33 0 56 16 68 52v240c-8 31 -40 53 -68 53c-48 0 -65 -40 -65 -108v-130c0 -71 16 -107 65 -107zM82 176v160
c0 128 67 199 169 199c104 0 164 -72 172 -182l-114 -9c-4 58 -20 86 -58 86c-42 0 -56 -44 -56 -118v-140c0 -56 23 -87 56 -87c38 0 54 27 58 84l114 -9c-8 -109 -68 -179 -172 -179c-102 0 -169 69 -169 195z" />
    <glyph glyph-name="_651" unicode="&#x33ad;" 
d="M564 151v210c0 113 44 174 115 174c38 0 66 -21 75 -52v291h108v-780h-108v38c-9 -32 -37 -51 -75 -51c-71 0 -115 59 -115 170zM406 435c-21 0 -31 -26 -31 -67l-91 7c7 99 37 160 123 160c70 0 120 -49 120 -138v-403h-94v31c-9 -25 -37 -44 -68 -44
c-56 0 -97 46 -97 142v26c0 102 57 155 132 155h33v86c0 33 -12 45 -27 45zM714 430c-34 0 -41 -46 -41 -102v-160c0 -54 12 -83 41 -83c23 0 34 16 40 54v235c-6 38 -18 56 -40 56zM268 526v-112c-6 4 -23 7 -37 7c-36 0 -63 -24 -71 -78v-349h-102v528h102v-66
c11 54 36 77 75 77c11 0 27 -3 33 -7zM395 79c17 0 34 14 38 38v95h-26c-26 0 -44 -23 -44 -68v-8c0 -44 9 -57 32 -57z" />
    <glyph glyph-name="_652" unicode="&#x33ae;" 
d="M226 639v-73c-6 3 -16 4 -26 4c-27 0 -48 -17 -54 -50v-154h-82v267h82v-34c7 25 27 43 56 43c10 0 19 -1 24 -3zM311 358c-45 0 -81 29 -81 81v8c0 56 41 83 119 83h19v21c0 18 -6 28 -23 28c-15 0 -22 -11 -26 -30l-79 7v2c10 47 42 84 108 84c65 0 102 -38 102 -90
v-186h-82v19c-9 -16 -29 -27 -57 -27zM335 419c15 0 33 10 33 27v26h-28c-21 -2 -30 -12 -30 -26v-4c0 -14 10 -23 25 -23zM475 465v69c0 70 38 107 90 107c27 0 49 -13 57 -30v154h81v-401h-81v23c-8 -16 -30 -28 -57 -28c-52 0 -90 36 -90 106zM590 425c15 0 28 9 32 26
v98c-4 14 -17 25 -32 25c-24 0 -33 -19 -33 -53v-42c0 -37 10 -54 33 -54zM723 67l-23 5c-51 13 -78 36 -78 86v2c0 43 38 81 100 81c60 0 104 -27 116 -83l-83 -4c-6 16 -16 23 -30 23c-12 0 -20 -8 -20 -16c0 -15 7 -21 34 -28l23 -6c54 -13 83 -36 83 -86v-1
c0 -48 -42 -84 -108 -84c-75 0 -110 36 -116 89l81 3c5 -21 15 -32 36 -32c17 0 25 9 25 22c0 14 -8 21 -40 29zM840 382l-738 -339l-15 35l738 339z" />
    <glyph glyph-name="_653" unicode="&#x33af;" 
d="M830 276c-5 0 -7 -5 -7 -12v-8l-43 1v5c0 26 17 48 50 48c34 0 51 -20 51 -46c0 -18 -5 -30 -20 -45l-22 -22h43v-32h-100v30l40 40c12 12 17 21 17 29c0 7 -2 12 -9 12zM217 639v-73c-6 3 -16 4 -26 4c-27 0 -48 -17 -54 -50v-154h-82v267h82v-34c7 25 27 43 56 43
c10 0 19 -1 24 -3zM301 358c-44 0 -80 29 -80 81v8c0 56 41 83 119 83h19v21c0 18 -6 28 -23 28c-15 0 -22 -11 -26 -30l-79 7v2c10 47 42 84 108 84c65 0 102 -38 102 -90v-186h-82v19c-10 -16 -29 -27 -58 -27zM326 419c15 0 33 10 33 27v26h-28c-21 -2 -30 -12 -30 -26
v-4c0 -14 10 -23 25 -23zM467 465v69c0 70 37 107 89 107c27 0 49 -13 57 -30v154h81v-401h-81v23c-8 -16 -30 -28 -57 -28c-52 0 -89 36 -89 106zM581 425c15 0 28 9 32 26v98c-4 14 -17 25 -32 25c-24 0 -33 -19 -33 -53v-42c0 -37 10 -54 33 -54zM656 67l-23 5
c-51 13 -79 36 -79 86v2c0 43 38 81 101 81c59 0 103 -27 115 -83l-83 -4c-5 16 -16 23 -29 23s-21 -8 -21 -16c0 -15 7 -21 34 -28l23 -6c55 -13 84 -36 84 -86v-1c0 -48 -43 -84 -109 -84c-75 0 -109 36 -116 89l82 3c4 -21 14 -32 35 -32c17 0 25 9 25 22
c0 14 -8 21 -39 29zM831 382l-738 -339l-15 35l738 339z" />
    <glyph glyph-name="_654" unicode="&#x33db;" 
d="M310 206l-26 7c-98 25 -150 72 -150 168c0 94 67 154 163 154s163 -52 181 -152l-112 -17c-9 44 -30 64 -62 64c-29 0 -49 -19 -49 -51c0 -34 21 -53 62 -64l26 -6c104 -27 148 -73 148 -170c0 -90 -67 -158 -176 -158c-105 0 -172 54 -194 163l123 17
c9 -47 28 -71 66 -71c31 0 52 21 52 53c0 36 -14 53 -52 63zM822 525v-112c-12 5 -31 8 -48 8c-53 0 -91 -34 -111 -80v-347h-122v527h122v-67c20 50 62 78 116 78c17 0 32 -3 43 -7z" />
    <glyph glyph-name="_655" unicode="&#x33a9;" 
d="M258 272h-50v-278h-120v767h170c126 0 223 -83 223 -245s-97 -244 -223 -244zM362 516c0 92 -46 129 -113 129h-41v-258h41c67 0 113 38 113 129zM654 79c32 0 56 19 69 56v74h-55c-44 0 -70 -25 -70 -65v-6c0 -37 18 -59 56 -59zM674 430c-29 0 -46 -23 -53 -63l-118 9
c14 95 70 159 172 159c101 0 166 -62 166 -165v-376h-118v42c-18 -36 -54 -55 -103 -55c-77 0 -137 56 -137 149v16c0 97 59 160 184 160h56v60c0 42 -18 64 -49 64z" />
    <glyph glyph-name="_656" unicode="&#x33aa;" 
d="M360 761h116c93 0 154 -67 154 -220v-24c0 -170 -55 -244 -154 -244h-15v-279h-101v767zM344 -6h-103l-52 207l-19 -22v-185h-100v779h100v-438c32 36 51 76 51 158v29h98v-29c0 -80 -14 -135 -54 -198zM749 441c-22 0 -19 -27 -22 -73l-84 7c0 105 34 160 106 160
c71 0 104 -51 104 -141v-400h-81v31c-7 -25 -34 -44 -59 -44c-51 0 -91 43 -91 142v26c0 104 55 155 124 155h23v99c0 29 -6 38 -20 38zM529 540c0 95 -21 117 -57 117h-11v-280h11c41 0 57 26 57 163zM736 75c15 0 29 13 33 37v104h-19c-30 0 -41 -25 -41 -69v-11
c0 -46 8 -61 27 -61z" />
    <glyph glyph-name="_657" unicode="&#x33ab;" 
d="M226 237h-50l-35 216v-459h-91v767h91l60 -327l61 327h92v-767h-93v459zM396 761h110c92 0 147 -67 147 -220v-24c0 -170 -51 -244 -147 -244h-16v-279h-94v767zM558 540c0 95 -22 117 -56 117h-12v-280h12c40 0 56 26 56 163zM761 71c16 0 27 13 30 36v109h-16
c-31 0 -42 -24 -42 -72v-10c0 -46 6 -63 28 -63zM771 445c-20 0 -22 -31 -22 -77l-79 7c0 103 31 160 102 160s103 -51 103 -141v-400h-81v31c-7 -25 -30 -44 -56 -44c-52 0 -89 43 -89 142v26c0 106 50 155 122 155h20v100c0 30 -6 41 -20 41z" />
    <glyph glyph-name="_658" unicode="&#x33ac;" 
d="M640 541v-36c0 -163 -52 -232 -147 -232h-15v-279h-93v767h108c93 0 147 -67 147 -220zM546 540c0 95 -21 117 -57 117h-11v-280h11c42 0 57 26 57 163zM750 71c16 0 26 13 29 36v109h-15c-32 0 -42 -24 -42 -72v-10c0 -46 5 -63 28 -63zM759 445c-20 0 -22 -31 -22 -77
l-79 7c7 104 26 160 102 160c71 0 104 -51 104 -141v-400h-82v31c-7 -25 -30 -44 -56 -44c-51 0 -89 43 -89 142v26c0 106 50 155 122 155h20v100c0 30 -5 41 -20 41zM243 212v83h-45v97h143v-176c0 -166 -50 -235 -141 -235c-90 0 -140 69 -140 235v321
c0 166 50 236 140 236c91 0 141 -70 141 -236v-17l-98 -11v32c0 104 -14 130 -43 130c-28 0 -42 -26 -42 -130v-329c0 -104 14 -129 42 -129c29 0 43 25 43 129z" />
    <glyph glyph-name="_659" unicode="&#x33dd;" 
d="M220 761h90l50 -485l37 485h95l-74 -767h-105l-49 488l-49 -488h-104l-75 767h96l36 -485zM749 169v167c0 61 -14 94 -53 94c-33 0 -48 -23 -54 -63v-220c6 -39 21 -62 54 -62c37 0 53 27 53 84zM862 360v-206c0 -114 -51 -173 -132 -173c-42 0 -75 20 -88 52v-39h-116
v780h116v-292c13 32 46 53 88 53c81 0 132 -60 132 -175z" />
    <glyph glyph-name="_660" unicode="&#x33d0;" 
d="M629 -6h-112v390c0 29 -14 46 -40 46c-19 0 -37 -16 -45 -36v-400h-111v528h111v-46c14 32 46 59 92 59s81 -24 93 -61c18 35 50 61 102 61c61 0 107 -45 107 -122v-419h-111v390c0 29 -13 46 -40 46c-19 0 -38 -14 -46 -36v-400zM282 100v-106h-41
c-100 0 -138 47 -138 152v627h113v-615c0 -40 11 -58 48 -58h18z" />
    <glyph glyph-name="_661" unicode="&#x33d3;" 
d="M478 -6h-127l165 270l-154 258h124l103 -172l103 172h126l-157 -258l167 -270h-127l-112 182zM321 100v-106h-41c-100 0 -138 47 -138 152v627h113v-615c0 -40 12 -58 48 -58h18z" />
    <glyph glyph-name="_662" unicode="&#x33c3;" 
d="M256 -6h-176v767h160c117 0 206 -70 206 -210c0 -78 -34 -132 -92 -159c64 -24 113 -92 113 -178c0 -151 -85 -220 -211 -220zM506 154v206c0 114 53 175 134 175c42 0 76 -22 88 -54v42h120v-768h-120v278c-12 -32 -46 -52 -88 -52c-81 0 -134 59 -134 173zM728 128v236
c-2 46 -23 66 -51 66c-38 0 -53 -36 -53 -97v-153c0 -62 15 -95 53 -95c26 0 42 13 51 43zM346 217c0 80 -30 119 -96 119h-47v-236h46c68 0 97 38 97 117zM203 437h34c59 0 90 26 90 107c0 83 -35 106 -93 106h-31v-213z" />
    <glyph glyph-name="_663" unicode="&#x33c9;" 
d="M278 -19c-131 0 -203 87 -203 255v280c0 170 72 257 202 257c123 0 199 -77 201 -253l-121 -16c-1 115 -27 152 -80 152c-54 0 -81 -38 -81 -153v-254c0 -114 27 -153 82 -153s81 39 81 153v40h-81v109h202v-162c0 -168 -72 -255 -202 -255zM613 -69l13 55l-134 536h119
l72 -333l75 333h120l-153 -603c-32 -126 -70 -157 -163 -157h-23v109h13c33 0 48 11 61 60z" />
    <glyph glyph-name="_664" unicode="&#x33dc;" 
d="M732 -6h-130l-136 528h123l78 -353l77 353h123zM281 443l33 -11c107 -34 157 -96 157 -214v-20c0 -140 -78 -217 -198 -217c-133 0 -188 73 -210 228l131 9c9 -91 35 -123 79 -123s71 28 71 99v17c0 58 -23 90 -87 110l-32 11c-104 33 -156 99 -156 210v18
c0 132 66 213 189 213c135 0 181 -84 199 -225l-130 -9c-6 81 -29 118 -69 118c-38 0 -61 -26 -61 -90v-17c0 -64 26 -88 84 -107z" />
    <glyph glyph-name="_665" unicode="&#x33c6;" 
d="M767 -22v33c-9 -16 -27 -28 -55 -28c-50 0 -85 33 -85 99v63c0 66 35 100 85 100c28 0 46 -12 55 -29v24h85v-259c0 -58 -41 -96 -106 -96c-54 0 -96 24 -109 69l79 15c6 -15 14 -21 28 -21c16 0 23 10 23 30zM609 230c0 -44 -7 -70 -44 -101l68 -141h-87l-45 97l-17 -12
v-85h-83v358h83v-193c30 18 41 39 41 73v14h84v-10zM654 729l-544 -738l-33 25l543 739zM767 72v82c-4 12 -15 19 -28 19c-21 0 -29 -17 -29 -45v-31c0 -27 10 -44 29 -44c9 0 24 9 28 19zM79 557v77c0 75 54 126 136 126c76 0 130 -44 135 -114l-90 -9c-3 31 -19 50 -45 50
c-30 0 -47 -20 -47 -58v-67c0 -37 17 -58 47 -58c26 0 42 20 45 50l90 -8c-5 -70 -59 -114 -135 -114c-82 0 -136 50 -136 125z" />
    <glyph glyph-name="_666" unicode="&#xc6;" horiz-adv-x="974" 
d="M440 150h-224l-76 -155h-154l374 767h566v-125h-346v-187h300v-125h-300v-208h346v-122h-486v155zM440 273v351l-167 -351h167z" />
    <glyph glyph-name="_667" unicode="&#xd0;" horiz-adv-x="664" 
d="M74 762h249c172 0 282 -112 282 -293v-184c0 -181 -110 -290 -282 -290h-249v334h-70v96h70v337zM335 329h-120v-211h103c91 0 147 56 147 185v149c0 127 -56 185 -147 185h-103v-212h120v-96z" />
    <glyph glyph-name="_668" unicode="&#xaa;" horiz-adv-x="450" 
d="M395 307v-91h-349v91h349zM38 467v11c0 70 56 121 172 121h73v15c0 44 -26 69 -67 69c-29 0 -52 -15 -66 -41l-100 21c26 61 85 108 172 108c114 0 167 -69 167 -150v-261h-106v32c-26 -28 -61 -43 -104 -43c-83 0 -141 50 -141 118zM201 438c33 0 63 14 82 36v45h-86
c-34 0 -53 -15 -53 -41v-3c0 -22 19 -37 57 -37z" />
    <glyph glyph-name="_669" unicode="&#x126;" horiz-adv-x="692" 
d="M681 558h-66v-563h-141v330h-259v-330h-141v563h-67v96h67v108h141v-108h259v108h141v-108h66v-96zM215 450h259v108h-259v-108z" />
    <glyph glyph-name="_670" unicode="&#x132;" horiz-adv-x="884" 
d="M218 763v-769h-140v769h140zM679 253v510h140v-529c0 -166 -100 -254 -251 -254c-127 0 -224 73 -249 216l137 20c18 -84 64 -111 111 -111c61 0 112 36 112 148z" />
    <glyph glyph-name="_671" unicode="&#x13f;" horiz-adv-x="576" 
d="M74 -6v769h142v-644h344v-125h-486zM490 474v-131h-131v131h131z" />
    <glyph glyph-name="_672" unicode="&#x141;" horiz-adv-x="576" 
d="M396 518v-95l-180 -96v-209h343v-124h-485v259l-71 -37v95l71 38v414h142v-341z" />
    <glyph glyph-name="_673" unicode="&#xd8;" horiz-adv-x="672" 
d="M66 -41l59 110c-47 53 -73 128 -73 216v184c0 179 111 306 283 306c56 0 106 -13 147 -38l33 60h90l-60 -112c47 -54 74 -129 74 -216v-184c0 -180 -111 -304 -284 -304c-55 0 -106 14 -147 37l-32 -59h-90zM335 104c90 0 144 69 144 199v149c0 32 -4 61 -13 87
l-216 -405c23 -21 52 -30 85 -30zM192 303c0 -35 4 -63 11 -87l217 405c-22 19 -51 29 -85 29c-88 0 -143 -70 -143 -198v-149z" />
    <glyph glyph-name="_674" unicode="&#x152;" horiz-adv-x="986" 
d="M335 -5c-171 0 -283 109 -283 290v184c0 180 112 293 283 293h601v-125h-343v-187h298v-125h-298v-207h343v-123h-601zM192 452v-149c0 -129 58 -185 147 -185h114v519h-114c-89 0 -147 -58 -147 -185z" />
    <glyph glyph-name="_675" unicode="&#xba;" horiz-adv-x="450" 
d="M398 308v-91h-347v91h347zM296 528v63c0 59 -30 88 -72 88s-71 -29 -71 -88v-63c0 -59 29 -89 71 -89s72 30 72 89zM406 603v-87c0 -92 -75 -167 -182 -167c-106 0 -180 75 -180 167v87c0 92 74 167 180 167c107 0 182 -75 182 -167z" />
    <glyph glyph-name="_676" unicode="&#xde;" horiz-adv-x="649" 
d="M74 762h141v-143h141c123 0 251 -78 251 -243s-128 -242 -250 -242h-142v-139h-141v767zM466 376c0 80 -55 117 -128 117h-123v-234h123c73 0 128 39 128 117z" />
    <glyph glyph-name="_677" unicode="&#x166;" horiz-adv-x="580" 
d="M480 331h-120v-336h-141v336h-121v96h121v209h-205v126h551v-126h-205v-209h120v-96z" />
    <glyph glyph-name="_678" unicode="&#x14a;" horiz-adv-x="723" 
d="M648 762v-828c0 -113 -55 -173 -186 -173h-56v124h44c39 0 57 25 57 67v65l-292 486v-508h-141v767h126l307 -510v510h141z" />
    <glyph glyph-name="_679" unicode="&#x3260;" 
d="M229 453v100h457v-377h-117v277h-340zM30 363c0 241 191 428 430 428s430 -187 430 -428s-191 -428 -430 -428s-430 187 -430 428zM86 363c0 -211 165 -376 374 -376s374 165 374 376s-165 376 -374 376s-374 -165 -374 -376z" />
    <glyph glyph-name="_680" unicode="&#x3261;" 
d="M690 276v-100h-457v377h117v-277h340zM30 363c0 241 191 428 430 428s430 -187 430 -428s-191 -428 -430 -428s-430 187 -430 428zM86 363c0 -211 165 -376 374 -376s374 165 374 376s-165 376 -374 376s-374 -165 -374 -376z" />
    <glyph glyph-name="_681" unicode="&#x3262;" 
d="M351 450v-175h336v-100h-453v375h446v-100h-329zM30 363c0 241 191 428 430 428s430 -187 430 -428s-191 -428 -430 -428s-430 187 -430 428zM86 363c0 -211 165 -376 374 -376s374 165 374 376s-165 376 -374 376s-374 -165 -374 -376z" />
    <glyph glyph-name="_682" unicode="&#x3263;" 
d="M352 318v-57h337v-93h-454v242h323v54h-323v93h440v-239h-323zM30 363c0 241 191 428 430 428s430 -187 430 -428s-191 -428 -430 -428s-430 187 -430 428zM86 363c0 -211 165 -376 374 -376s374 165 374 376s-165 376 -374 376s-374 -165 -374 -376z" />
    <glyph glyph-name="_683" unicode="&#x3264;" 
d="M236 175v375h446v-375h-446zM566 275v175h-213v-175h213zM30 363c0 241 191 428 430 428s430 -187 430 -428s-191 -428 -430 -428s-430 187 -430 428zM86 363c0 -211 165 -376 374 -376s374 165 374 376s-165 376 -374 376s-374 -165 -374 -376z" />
    <glyph glyph-name="_684" unicode="&#x3265;" 
d="M353 550v-101h213v101h116v-375h-446v375h117zM566 275v77h-213v-77h213zM30 363c0 241 191 428 430 428s430 -187 430 -428s-191 -428 -430 -428s-430 187 -430 428zM86 363c0 -211 165 -376 374 -376s374 165 374 376s-165 376 -374 376s-374 -165 -374 -376z" />
    <glyph glyph-name="_685" unicode="&#x3266;" 
d="M731 277l-61 -95c-91 27 -171 82 -211 147c-41 -65 -121 -120 -212 -147l-61 95c119 33 214 107 214 217v78h117v-78c0 -110 96 -184 214 -217zM30 363c0 241 191 428 430 428s430 -187 430 -428s-191 -428 -430 -428s-430 187 -430 428zM86 363
c0 -211 165 -376 374 -376s374 165 374 376s-165 376 -374 376s-374 -165 -374 -376z" />
    <glyph glyph-name="_686" unicode="&#x3267;" 
d="M222 363c0 118 99 198 237 198s237 -80 237 -198s-99 -198 -237 -198s-237 80 -237 198zM339 363c0 -58 46 -97 120 -97c73 0 119 39 119 97s-46 97 -119 97c-74 0 -120 -39 -120 -97zM30 363c0 241 191 428 430 428s430 -187 430 -428s-191 -428 -430 -428
s-430 187 -430 428zM86 363c0 -211 165 -376 374 -376s374 165 374 376s-165 376 -374 376s-374 -165 -374 -376z" />
    <glyph glyph-name="_687" unicode="&#x3268;" 
d="M30 363c0 241 191 428 430 428s430 -187 430 -428s-191 -428 -430 -428s-430 187 -430 428zM86 363c0 -211 165 -376 374 -376s374 165 374 376s-165 376 -374 376s-374 -165 -374 -376zM731 267l-61 -95c-91 27 -171 82 -211 147c-41 -65 -121 -120 -212 -147l-61 95
c107 30 195 93 211 186h-168v101h459v-101h-168c16 -93 104 -156 211 -186z" />
    <glyph glyph-name="_688" unicode="&#x3269;" 
d="M30 363c0 241 191 428 430 428s430 -187 430 -428s-191 -428 -430 -428s-430 187 -430 428zM86 363c0 -211 165 -376 374 -376s374 165 374 376s-165 376 -374 376s-374 -165 -374 -376zM731 267l-61 -95c-91 27 -167 74 -211 137c-45 -63 -121 -110 -212 -137l-61 95
c98 27 180 81 205 156h-162v101h171v78h117v-78h171v-101h-163c26 -75 108 -129 206 -156z" />
    <glyph glyph-name="_689" unicode="&#x326a;" 
d="M233 453v99h452v-376h-117v105c-51 -6 -122 -7 -185 -7l-148 1v99h154c60 0 128 0 179 5v74h-335zM30 363c0 241 191 428 430 428s430 -187 430 -428s-191 -428 -430 -428s-430 187 -430 428zM86 363c0 -211 165 -376 374 -376s374 165 374 376s-165 376 -374 376
s-374 -165 -374 -376z" />
    <glyph glyph-name="_690" unicode="&#x326b;" 
d="M355 318v-57h337v-93h-454v389h440v-93h-323v-54h315v-92h-315zM30 363c0 241 191 428 430 428s430 -187 430 -428s-191 -428 -430 -428s-430 187 -430 428zM86 363c0 -211 165 -376 374 -376s374 165 374 376s-165 376 -374 376s-374 -165 -374 -376z" />
    <glyph glyph-name="_691" unicode="&#x326c;" 
d="M712 176h-507v97h86l-7 181h-64v97h477v-97h-64l-7 -181h86v-97zM408 273h101l7 181h-115zM30 363c0 241 191 428 430 428s430 -187 430 -428s-191 -428 -430 -428s-430 187 -430 428zM86 363c0 -211 165 -376 374 -376s374 165 374 376s-165 376 -374 376
s-374 -165 -374 -376z" />
    <glyph glyph-name="_692" unicode="&#x326d;" 
d="M714 530v-97h-511v97h198v70h117v-70h196zM460 148c-148 0 -230 52 -230 133s82 133 230 133c147 0 228 -52 228 -133s-81 -133 -228 -133zM460 236c81 0 111 16 111 45s-30 44 -111 44c-82 0 -112 -15 -112 -44s30 -45 112 -45zM30 363c0 241 191 428 430 428
s430 -187 430 -428s-191 -428 -430 -428s-430 187 -430 428zM86 363c0 -211 165 -376 374 -376s374 165 374 376s-165 376 -374 376s-374 -165 -374 -376z" />
    <glyph glyph-name="_693" unicode="&#x326e;" 
d="M388 519v21h-173v93h284v-111c0 -168 -86 -285 -252 -351l-55 91c132 55 196 139 196 257zM671 657v-193h79v-94h-79v-306h-110v593h110zM30 363c0 241 191 428 430 428s430 -187 430 -428s-191 -428 -430 -428s-430 187 -430 428zM86 363c0 -211 165 -376 374 -376
s374 165 374 376s-165 376 -374 376s-374 -165 -374 -376z" />
    <glyph glyph-name="_694" unicode="&#x326f;" 
d="M431 210h-210v409h111v-315h99c49 0 95 6 130 17v336h110v-193h79v-94h-79v-306h-110v164c-34 -12 -82 -18 -130 -18zM30 363c0 241 191 428 430 428s430 -187 430 -428s-191 -428 -430 -428s-430 187 -430 428zM86 363c0 -211 165 -376 374 -376s374 165 374 376
s-165 376 -374 376s-374 -165 -374 -376z" />
    <glyph glyph-name="_695" unicode="&#x3270;" 
d="M430 205h-209v426h275v-94h-164v-239h98c49 0 96 6 131 18v341h110v-193h79v-94h-79v-306h-110v158c-35 -13 -81 -17 -131 -17zM30 363c0 241 191 428 430 428s430 -187 430 -428s-191 -428 -430 -428s-430 187 -430 428zM86 363c0 -211 165 -376 374 -376
s374 165 374 376s-165 376 -374 376s-374 -165 -374 -376z" />
    <glyph glyph-name="_696" unicode="&#x3271;" 
d="M316 364v-90h117c49 0 92 4 127 16v367h111v-193h79v-94h-79v-306h-111v140c-34 -12 -79 -17 -127 -17h-214v263h185v84h-185v88h281v-258h-184zM30 363c0 241 191 428 430 428s430 -187 430 -428s-191 -428 -430 -428s-430 187 -430 428zM86 363
c0 -211 165 -376 374 -376s374 165 374 376s-165 376 -374 376s-374 -165 -374 -376z" />
    <glyph glyph-name="_697" unicode="&#x3272;" 
d="M502 206h-284v421h284v-421zM400 293v246h-81v-246h81zM671 657v-193h79v-94h-79v-306h-110v593h110zM30 363c0 241 191 428 430 428s430 -187 430 -428s-191 -428 -430 -428s-430 187 -430 428zM86 363c0 -211 165 -376 374 -376s374 165 374 376s-165 376 -374 376
s-374 -165 -374 -376z" />
    <glyph glyph-name="_698" unicode="&#x3273;" 
d="M323 498h73v134h106v-429h-284v429h105v-134zM396 294v110h-73v-110h73zM671 657v-193h79v-94h-79v-306h-110v593h110zM30 363c0 241 191 428 430 428s430 -187 430 -428s-191 -428 -430 -428s-430 187 -430 428zM86 363c0 -211 165 -376 374 -376s374 165 374 376
s-165 376 -374 376s-374 -165 -374 -376z" />
    <glyph glyph-name="_699" unicode="&#x3274;" 
d="M30 363c0 241 191 428 430 428s430 -187 430 -428s-191 -428 -430 -428s-430 187 -430 428zM86 363c0 -211 165 -376 374 -376s374 165 374 376s-165 376 -374 376s-374 -165 -374 -376zM661 657v-193h79v-94h-79v-306h-110v593h110zM537 270l-72 -77
c-45 31 -89 78 -116 128c-24 -55 -63 -103 -110 -139l-77 74c84 67 132 156 132 254v122h111v-122c0 -99 48 -174 132 -240z" />
    <glyph glyph-name="_700" unicode="&#x3275;" 
d="M666 657v-193h79v-94h-79v-306h-110v593h110zM30 363c0 241 191 428 430 428s430 -187 430 -428s-191 -428 -430 -428s-430 187 -430 428zM86 363c0 -211 165 -376 374 -376s374 165 374 376s-165 376 -374 376s-374 -165 -374 -376zM350 271c34 0 50 29 50 81v119
c0 52 -16 81 -50 81s-50 -29 -50 -81v-119c0 -52 16 -81 50 -81zM350 183c-94 0 -152 70 -152 174v109c0 104 58 174 152 174s152 -70 152 -174v-109c0 -104 -58 -174 -152 -174z" />
    <glyph glyph-name="_701" unicode="&#x3276;" 
d="M546 270l-73 -79c-44 32 -86 79 -113 130c-25 -55 -63 -103 -110 -139l-77 74c84 66 131 154 131 253v25h-97v94h310v-94h-102v-13c0 -108 43 -183 131 -251zM671 657v-193h79v-94h-79v-306h-110v593h110zM30 363c0 241 191 428 430 428s430 -187 430 -428
s-191 -428 -430 -428s-430 187 -430 428zM86 363c0 -211 165 -376 374 -376s374 165 374 376s-165 376 -374 376s-374 -165 -374 -376z" />
    <glyph glyph-name="_702" unicode="&#x3277;" 
d="M547 270l-74 -79c-44 32 -87 79 -114 130c-25 -55 -64 -103 -110 -139l-78 74c81 69 129 150 131 242h-101v92h102v67h111v-67h106v-92h-106c2 -90 54 -167 133 -228zM671 657v-193h79v-94h-79v-306h-110v593h110zM30 363c0 241 191 428 430 428s430 -187 430 -428
s-191 -428 -430 -428s-430 187 -430 428zM86 363c0 -211 165 -376 374 -376s374 165 374 376s-165 376 -374 376s-374 -165 -374 -376z" />
    <glyph glyph-name="_703" unicode="&#x3278;" 
d="M388 519v19h-173v94h284v-85c0 -183 -72 -305 -252 -376l-54 89c72 29 120 66 152 111h-145v92h182c4 17 6 36 6 56zM671 657v-193h79v-94h-79v-306h-110v593h110zM30 363c0 241 191 428 430 428s430 -187 430 -428s-191 -428 -430 -428s-430 187 -430 428zM86 363
c0 -211 165 -376 374 -376s374 165 374 376s-165 376 -374 376s-374 -165 -374 -376z" />
    <glyph glyph-name="_704" unicode="&#x3279;" 
d="M671 657v-193h79v-94h-79v-306h-110v161c-35 -13 -79 -17 -130 -17h-210v419h275v-94h-164v-68h157v-92h-157v-74h78c61 0 112 4 151 18v340h110zM30 363c0 241 191 428 430 428s430 -187 430 -428s-191 -428 -430 -428s-430 187 -430 428zM86 363
c0 -211 165 -376 374 -376s374 165 374 376s-165 376 -374 376s-374 -165 -374 -376z" />
    <glyph glyph-name="_705" unicode="&#x327a;" 
d="M30 363c0 241 191 428 430 428s430 -187 430 -428s-191 -428 -430 -428s-430 187 -430 428zM86 363c0 -211 165 -376 374 -376s374 165 374 376s-165 376 -374 376s-374 -165 -374 -376zM671 657v-193h79v-94h-79v-306h-110v151c-21 -7 -47 -8 -73 -9h-289v91h50v236h-46
v93h331v-93h-46v-236c20 1 51 5 73 11v349h110zM346 297h45v236h-45v-236z" />
    <glyph glyph-name="_706" unicode="&#x327b;" 
d="M416 657v-67h110v-87h-332v87h110v67h112zM671 657v-193h79v-94h-79v-306h-110v593h110zM360 265c28 0 45 20 45 57v18c0 38 -17 58 -45 58c-30 0 -46 -20 -46 -58v-18c0 -37 17 -57 46 -57zM360 485c84 0 149 -55 149 -138v-31c0 -83 -65 -137 -149 -137
c-85 0 -150 54 -150 137v31c0 83 65 138 150 138zM30 363c0 241 191 428 430 428s430 -187 430 -428s-191 -428 -430 -428s-430 187 -430 428zM86 363c0 -211 165 -376 374 -376s374 165 374 376s-165 376 -374 376s-374 -165 -374 -376z" />
    <glyph glyph-name="_707" unicode="&#x24d0;" 
d="M441 237c33 0 59 14 71 42v45h-66c-41 0 -56 -22 -56 -47c0 -23 18 -40 51 -40zM454 491c-29 0 -49 -17 -63 -45l-100 25c29 65 88 108 168 108c101 0 164 -62 164 -157v-263h-111v40c-18 -32 -53 -49 -100 -49c-77 0 -133 49 -133 119v9c0 72 50 129 171 129h62v13
c0 42 -20 71 -58 71zM30 363c0 241 191 428 430 428s430 -187 430 -428s-191 -428 -430 -428s-430 187 -430 428zM86 363c0 -211 165 -376 374 -376s374 165 374 376s-165 376 -374 376s-374 -165 -374 -376z" />
    <glyph glyph-name="_708" unicode="&#x24d1;" 
d="M425 373v-143c10 -29 33 -47 62 -47c45 0 62 30 62 93v51c0 59 -16 92 -62 92c-29 0 -52 -18 -62 -46zM425 670v-202c19 26 53 44 93 44c87 0 141 -63 141 -165v-92c0 -101 -54 -165 -141 -165c-40 0 -74 18 -93 44v-34h-110v570h110zM30 363c0 241 191 428 430 428
s430 -187 430 -428s-191 -428 -430 -428s-430 187 -430 428zM86 363c0 -211 165 -376 374 -376s374 165 374 376s-165 376 -374 376s-374 -165 -374 -376z" />
    <glyph glyph-name="_709" unicode="&#x24d2;" 
d="M282 325v80c0 97 73 173 179 173c94 0 161 -63 177 -149l-111 -14c-7 46 -32 71 -66 71c-40 0 -68 -32 -68 -90v-63c0 -58 28 -90 68 -90c34 0 59 25 66 71l111 -14c-17 -86 -83 -149 -177 -149c-106 0 -179 76 -179 174zM30 363c0 241 191 428 430 428
s430 -187 430 -428s-191 -428 -430 -428s-430 187 -430 428zM86 363c0 -211 165 -376 374 -376s374 165 374 376s-165 376 -374 376s-374 -165 -374 -376z" />
    <glyph glyph-name="_710" unicode="&#x24d3;" 
d="M493 230v143c-10 28 -33 46 -62 46c-46 0 -62 -29 -62 -92v-51c0 -63 16 -93 62 -93c29 0 52 18 62 47zM493 468v202h110v-570h-110v34c-19 -26 -53 -44 -93 -44c-86 0 -141 64 -141 165v92c0 102 54 165 141 165c40 0 74 -18 93 -44zM30 363c0 241 191 428 430 428
s430 -187 430 -428s-191 -428 -430 -428s-430 187 -430 428zM86 363c0 -211 165 -376 374 -376s374 165 374 376s-165 376 -374 376s-374 -165 -374 -376z" />
    <glyph glyph-name="_711" unicode="&#x24d4;" 
d="M452 150c-107 0 -179 75 -179 173v79c0 99 71 175 179 175c107 0 178 -76 178 -175v-77h-247v-7c0 -48 24 -76 69 -76c30 0 54 20 63 51l112 -10c-23 -82 -88 -133 -175 -133zM451 485c-41 0 -68 -28 -68 -77v-3h136v3c0 49 -27 77 -68 77zM30 363c0 241 191 428 430 428
s430 -187 430 -428s-191 -428 -430 -428s-430 187 -430 428zM86 363c0 -211 165 -376 374 -376s374 165 374 376s-165 376 -374 376s-374 -165 -374 -376z" />
    <glyph glyph-name="_712" unicode="&#x24d5;" 
d="M571 650v-92h-46c-38 0 -49 -12 -49 -57v-13h95v-92h-95v-317h-111v317h-54v92h54v15c0 112 46 147 160 147h46zM30 363c0 241 191 428 430 428s430 -187 430 -428s-191 -428 -430 -428s-430 187 -430 428zM86 363c0 -211 165 -376 374 -376s374 165 374 376
s-165 376 -374 376s-374 -165 -374 -376z" />
    <glyph glyph-name="_713" unicode="&#x24d6;" 
d="M513 369v128c-10 28 -33 46 -62 46c-42 0 -63 -26 -63 -80v-60c0 -54 21 -81 63 -81c29 0 52 18 62 47zM420 229c-88 0 -142 65 -142 166v76c0 100 54 165 142 165c39 0 74 -18 93 -45v36h111v-393c0 -102 -56 -169 -171 -169c-78 0 -136 38 -167 113l103 24
c11 -30 33 -47 63 -47c38 0 61 24 61 82v37c-19 -27 -54 -45 -93 -45zM30 363c0 241 191 428 430 428s430 -187 430 -428s-191 -428 -430 -428s-430 187 -430 428zM86 363c0 -211 165 -376 374 -376s374 165 374 376s-165 376 -374 376s-374 -165 -374 -376z" />
    <glyph glyph-name="_714" unicode="&#x24d7;" 
d="M644 90h-112v222c0 70 -14 105 -62 105c-32 0 -56 -18 -68 -47v-280h-111v575h111v-205c18 30 52 50 100 50c85 0 142 -61 142 -166v-254zM30 363c0 241 191 428 430 428s430 -187 430 -428s-191 -428 -430 -428s-430 187 -430 428zM86 363c0 -211 165 -376 374 -376
s374 165 374 376s-165 376 -374 376s-374 -165 -374 -376z" />
    <glyph glyph-name="_715" unicode="&#x24d8;" 
d="M405 84v409h110v-409h-110zM405 552v107h110v-107h-110zM30 363c0 241 191 428 430 428s430 -187 430 -428s-191 -428 -430 -428s-430 187 -430 428zM86 363c0 -211 165 -376 374 -376s374 165 374 376s-165 376 -374 376s-374 -165 -374 -376z" />
    <glyph glyph-name="_716" unicode="&#x24d9;" 
d="M424 569v107h111v-107h-111zM424 188v322h111v-329c0 -95 -42 -134 -136 -134h-56v93h41c28 0 40 15 40 48zM30 363c0 241 191 428 430 428s430 -187 430 -428s-191 -428 -430 -428s-430 187 -430 428zM86 363c0 -211 165 -376 374 -376s374 165 374 376
s-165 376 -374 376s-374 -165 -374 -376z" />
    <glyph glyph-name="_717" unicode="&#x24da;" 
d="M30 363c0 241 191 428 430 428s430 -187 430 -428s-191 -428 -430 -428s-430 187 -430 428zM86 363c0 -211 165 -376 374 -376s374 165 374 376s-165 376 -374 376s-374 -165 -374 -376zM624 480c0 -78 -24 -124 -82 -166l129 -223h-122l-90 168l-49 -31v-137h-111v574
h112v-321l43 29c40 30 59 57 59 105v22h111v-20z" />
    <glyph glyph-name="_718" unicode="&#x24db;" 
d="M553 162v-93h-46c-94 0 -133 42 -133 133v442h111v-435c0 -31 12 -47 39 -47h29zM30 363c0 241 191 428 430 428s430 -187 430 -428s-191 -428 -430 -428s-430 187 -430 428zM86 363c0 -211 165 -376 374 -376s374 165 374 376s-165 376 -374 376s-374 -165 -374 -376z
" />
    <glyph glyph-name="_719" unicode="&#x24dc;" 
d="M578 484c-27 0 -45 -16 -58 -44c1 -14 1 -30 1 -43v-238h-111v257c0 44 -16 68 -51 68c-26 0 -47 -18 -56 -44v-281h-111v409h111v-42c17 30 52 50 96 50c42 0 80 -21 99 -55c21 32 58 56 106 56c86 0 136 -62 136 -160v-258h-111v257c0 42 -17 68 -51 68zM30 363
c0 241 191 428 430 428s430 -187 430 -428s-191 -428 -430 -428s-430 187 -430 428zM86 363c0 -211 165 -376 374 -376s374 165 374 376s-165 376 -374 376s-374 -165 -374 -376z" />
    <glyph glyph-name="_720" unicode="&#x24dd;" 
d="M639 159h-111v233c0 70 -22 96 -62 96c-32 0 -56 -19 -68 -49v-280h-111v411h111v-40c18 30 53 50 100 50c85 0 141 -62 141 -167v-254zM30 363c0 241 191 428 430 428s430 -187 430 -428s-191 -428 -430 -428s-430 187 -430 428zM86 363c0 -211 165 -376 374 -376
s374 165 374 376s-165 376 -374 376s-374 -165 -374 -376z" />
    <glyph glyph-name="_721" unicode="&#x24de;" 
d="M459 484c-41 0 -69 -31 -69 -87v-68c0 -56 28 -88 69 -88c40 0 69 32 69 88v68c0 56 -29 87 -69 87zM459 149c-107 0 -180 75 -180 175v79c0 99 73 174 180 174c106 0 179 -75 179 -174v-79c0 -100 -73 -175 -179 -175zM30 363c0 241 191 428 430 428s430 -187 430 -428
s-191 -428 -430 -428s-430 187 -430 428zM86 363c0 -211 165 -376 374 -376s374 165 374 376s-165 376 -374 376s-374 -165 -374 -376z" />
    <glyph glyph-name="_722" unicode="&#x24df;" 
d="M426 496v-144c10 -29 33 -47 61 -47c46 0 63 31 63 93v51c0 62 -17 93 -63 93c-28 0 -51 -18 -61 -46zM426 258v-201h-111v568h111v-35c18 27 53 45 92 45c87 0 142 -64 142 -165v-92c0 -101 -54 -166 -142 -166c-39 0 -74 18 -92 46zM30 363c0 241 191 428 430 428
s430 -187 430 -428s-191 -428 -430 -428s-430 187 -430 428zM86 363c0 -211 165 -376 374 -376s374 165 374 376s-165 376 -374 376s-374 -165 -374 -376z" />
    <glyph glyph-name="_723" unicode="&#x24e0;" 
d="M493 352v144c-10 28 -33 46 -62 46c-47 0 -62 -31 -62 -93v-51c0 -62 15 -93 62 -93c29 0 52 18 62 47zM493 57v201c-19 -28 -53 -46 -93 -46c-87 0 -141 65 -141 166v92c0 101 54 165 141 165c40 0 74 -18 93 -45v35h110v-568h-110zM30 363c0 241 191 428 430 428
s430 -187 430 -428s-191 -428 -430 -428s-430 187 -430 428zM86 363c0 -211 165 -376 374 -376s374 165 374 376s-165 376 -374 376s-374 -165 -374 -376z" />
    <glyph glyph-name="_724" unicode="&#x24e1;" 
d="M602 547v-95c-15 7 -38 10 -58 10c-40 0 -73 -19 -94 -53v-271h-111v409h111v-43c20 30 54 52 98 52c21 0 41 -3 54 -9zM30 363c0 241 191 428 430 428s430 -187 430 -428s-191 -428 -430 -428s-430 187 -430 428zM86 363c0 -211 165 -376 374 -376s374 165 374 376
s-165 376 -374 376s-374 -165 -374 -376z" />
    <glyph glyph-name="_725" unicode="&#x24e2;" 
d="M460 414l24 -5c99 -21 140 -56 140 -129c0 -75 -59 -131 -158 -131c-90 0 -155 43 -180 128l105 19c12 -40 39 -58 73 -58c36 0 51 16 51 38c0 20 -15 34 -58 43l-24 5c-93 19 -137 53 -137 128c0 72 58 124 151 124c86 0 147 -44 169 -121l-105 -16c-8 31 -30 49 -59 49
c-27 0 -46 -13 -46 -32c0 -22 14 -34 54 -42zM30 363c0 241 191 428 430 428s430 -187 430 -428s-191 -428 -430 -428s-430 187 -430 428zM86 363c0 -211 165 -376 374 -376s374 165 374 376s-165 376 -374 376s-374 -165 -374 -376z" />
    <glyph glyph-name="_726" unicode="&#x24e3;" 
d="M470 519h91v-93h-91v-175c0 -32 9 -47 39 -47h57v-93h-74c-95 0 -134 43 -134 132v183h-55v93h55v112h112v-112zM30 363c0 241 191 428 430 428s430 -187 430 -428s-191 -428 -430 -428s-430 187 -430 428zM86 363c0 -211 165 -376 374 -376s374 165 374 376
s-165 376 -374 376s-374 -165 -374 -376z" />
    <glyph glyph-name="_727" unicode="&#x24e4;" 
d="M279 565h111v-230c0 -62 17 -96 62 -96c33 0 56 16 68 46v280h111v-411h-111v40c-18 -29 -52 -50 -100 -50c-84 0 -141 62 -141 167v254zM30 363c0 241 191 428 430 428s430 -187 430 -428s-191 -428 -430 -428s-430 187 -430 428zM86 363c0 -211 165 -376 374 -376
s374 165 374 376s-165 376 -374 376s-374 -165 -374 -376z" />
    <glyph glyph-name="_728" unicode="&#x24e5;" 
d="M511 142h-103l-148 410h112l88 -257l87 257h112zM30 363c0 241 191 428 430 428s430 -187 430 -428s-191 -428 -430 -428s-430 187 -430 428zM86 363c0 -211 165 -376 374 -376s374 165 374 376s-165 376 -374 376s-374 -165 -374 -376z" />
    <glyph glyph-name="_729" unicode="&#x24e6;" 
d="M410 553h100l67 -243l67 243h115l-128 -412h-102l-69 252l-69 -252h-102l-128 412h115l67 -243zM30 363c0 241 191 428 430 428s430 -187 430 -428s-191 -428 -430 -428s-430 187 -430 428zM86 363c0 -211 165 -376 374 -376s374 165 374 376s-165 376 -374 376
s-374 -165 -374 -376z" />
    <glyph glyph-name="_730" unicode="&#x24e7;" 
d="M653 158h-120l-73 132l-74 -132h-121l122 211l-115 197h121l67 -121l65 121h121l-116 -197zM30 363c0 241 191 428 430 428s430 -187 430 -428s-191 -428 -430 -428s-430 187 -430 428zM86 363c0 -211 165 -376 374 -376s374 165 374 376s-165 376 -374 376
s-374 -165 -374 -376z" />
    <glyph glyph-name="_731" unicode="&#x24e8;" 
d="M400 186l17 52l-156 367h115l92 -229l79 229h115l-160 -449c-27 -77 -67 -100 -149 -100h-38v93h32c27 0 42 7 53 37zM30 363c0 241 191 428 430 428s430 -187 430 -428s-191 -428 -430 -428s-430 187 -430 428zM86 363c0 -211 165 -376 374 -376s374 165 374 376
s-165 376 -374 376s-374 -165 -374 -376z" />
    <glyph glyph-name="_732" unicode="&#x24e9;" 
d="M622 567v-74l-182 -242h189v-93h-340v74l181 242h-172v93h324zM30 363c0 241 191 428 430 428s430 -187 430 -428s-191 -428 -430 -428s-430 187 -430 428zM86 363c0 -211 165 -376 374 -376s374 165 374 376s-165 376 -374 376s-374 -165 -374 -376z" />
    <glyph glyph-name="_733" unicode="&#x2460;" 
d="M324 110v91h96v330l-96 -43v97l114 53h92v-437h93v-91h-299zM30 363c0 241 191 428 430 428s430 -187 430 -428s-191 -428 -430 -428s-430 187 -430 428zM86 363c0 -211 165 -376 374 -376s374 165 374 376s-165 376 -374 376s-374 -165 -374 -376z" />
    <glyph glyph-name="_734" unicode="&#x2461;" 
d="M453 555c-34 0 -55 -23 -55 -62v-26l-111 6v17c0 91 59 157 166 157c106 0 166 -66 166 -157c0 -53 -18 -90 -50 -127l-137 -159h187v-91h-331v82l187 215c24 28 33 51 33 83c0 35 -23 62 -55 62zM30 363c0 241 191 428 430 428s430 -187 430 -428s-191 -428 -430 -428
s-430 187 -430 428zM86 363c0 -211 165 -376 374 -376s374 165 374 376s-165 376 -374 376s-374 -165 -374 -376z" />
    <glyph glyph-name="_735" unicode="&#x2462;" 
d="M399 276v-13c0 -54 27 -86 60 -86c38 0 60 28 60 86c0 65 -24 83 -63 83c-12 0 -26 -4 -37 -10l-53 60l114 132h-175v93h306v-81l-102 -118c69 -7 121 -58 121 -159c0 -105 -64 -177 -171 -177c-110 0 -171 77 -171 185zM30 363c0 241 191 428 430 428s430 -187 430 -428
s-191 -428 -430 -428s-430 187 -430 428zM86 363c0 -211 165 -376 374 -376s374 165 374 376s-165 376 -374 376s-374 -165 -374 -376z" />
    <glyph glyph-name="_736" unicode="&#x2463;" 
d="M360 293h93v157zM615 293v-93h-52v-100h-110v100h-202v81l202 346h110v-334h52zM30 363c0 241 191 428 430 428s430 -187 430 -428s-191 -428 -430 -428s-430 187 -430 428zM86 363c0 -211 165 -376 374 -376s374 165 374 376s-165 376 -374 376s-374 -165 -374 -376z
" />
    <glyph glyph-name="_737" unicode="&#x2464;" 
d="M401 277v-9c0 -63 28 -91 61 -91c35 0 61 27 61 92c0 69 -27 95 -62 95c-22 0 -39 -12 -51 -28h-95v285h291v-93h-181v-90c15 11 37 18 60 18c86 0 148 -60 148 -187c0 -116 -66 -183 -171 -183c-104 0 -171 72 -171 183zM30 363c0 241 191 428 430 428
s430 -187 430 -428s-191 -428 -430 -428s-430 187 -430 428zM86 363c0 -211 165 -376 374 -376s374 165 374 376s-165 376 -374 376s-374 -165 -374 -376z" />
    <glyph glyph-name="_738" unicode="&#x2465;" 
d="M454 101c-106 0 -176 75 -176 169c0 32 8 61 21 87l141 280h109l-99 -199c103 0 179 -70 179 -168c0 -94 -71 -169 -175 -169zM454 189c41 0 66 33 66 81c0 49 -25 83 -66 83c-42 0 -69 -34 -69 -83c0 -48 27 -81 69 -81zM30 363c0 241 191 428 430 428
s430 -187 430 -428s-191 -428 -430 -428s-430 187 -430 428zM86 363c0 -211 165 -376 374 -376s374 165 374 376s-165 376 -374 376s-374 -165 -374 -376z" />
    <glyph glyph-name="_739" unicode="&#x2466;" 
d="M298 519v93h330v-77l-167 -450h-115l167 434h-215zM30 363c0 241 191 428 430 428s430 -187 430 -428s-191 -428 -430 -428s-430 187 -430 428zM86 363c0 -211 165 -376 374 -376s374 165 374 376s-165 376 -374 376s-374 -165 -374 -376z" />
    <glyph glyph-name="_740" unicode="&#x2467;" 
d="M460 547c-30 0 -53 -23 -53 -59c0 -35 23 -58 53 -58c29 0 51 23 51 58c0 36 -22 59 -51 59zM460 346c-43 0 -67 -34 -67 -83s23 -84 67 -84c43 0 66 35 66 84s-24 83 -66 83zM460 90c-106 0 -176 76 -176 172c0 55 27 103 70 129c-31 21 -50 58 -50 102
c0 82 64 142 156 142c91 0 155 -60 155 -142c0 -44 -19 -81 -50 -102c42 -26 69 -74 69 -129c0 -96 -69 -172 -174 -172zM30 363c0 241 191 428 430 428s430 -187 430 -428s-191 -428 -430 -428s-430 187 -430 428zM86 363c0 -211 165 -376 374 -376s374 165 374 376
s-165 376 -374 376s-374 -165 -374 -376z" />
    <glyph glyph-name="_741" unicode="&#x2468;" 
d="M466 625c104 0 174 -77 174 -171c0 -33 -8 -61 -21 -87l-141 -278h-108l99 198c-3 0 -5 -1 -8 -1c-98 0 -172 74 -172 168s71 171 177 171zM466 536c-42 0 -68 -34 -68 -82c0 -49 26 -83 68 -83c41 0 67 34 67 83c0 48 -26 82 -67 82zM30 363c0 241 191 428 430 428
s430 -187 430 -428s-191 -428 -430 -428s-430 187 -430 428zM86 363c0 -211 165 -376 374 -376s374 165 374 376s-165 376 -374 376s-374 -165 -374 -376z" />
    <glyph glyph-name="_742" unicode="&#x2469;" 
d="M207 110v89h55v324l-55 -25v87l75 34h86v-420h44v-89h-205zM631 269v179c0 59 -13 89 -46 89c-35 0 -47 -30 -47 -89v-170c0 -61 13 -89 47 -89c31 0 46 24 46 80zM736 460v-194c0 -103 -63 -165 -151 -165s-152 62 -152 165v194c0 103 64 165 152 165s151 -62 151 -165z
M30 363c0 241 191 428 430 428s430 -187 430 -428s-191 -428 -430 -428s-430 187 -430 428zM86 363c0 -211 165 -376 374 -376s374 165 374 376s-165 376 -374 376s-374 -165 -374 -376z" />
    <glyph glyph-name="_743" unicode="&#x246a;" 
d="M219 111v86h62v326l-62 -27v85l81 38h85v-422h56v-86h-222zM493 111v86h62v326l-62 -27v85l80 38h85v-422h56v-86h-221zM30 363c0 241 191 428 430 428s430 -187 430 -428s-191 -428 -430 -428s-430 187 -430 428zM86 363c0 -211 165 -376 374 -376s374 165 374 376
s-165 376 -374 376s-374 -165 -374 -376z" />
    <glyph glyph-name="_744" unicode="&#x246b;" 
d="M202 111v86h55v326l-55 -25v87l75 34h85v-422h45v-86h-205zM576 628c94 0 148 -60 148 -152c0 -46 -18 -86 -49 -127l-116 -152h165v-86h-294v77l155 207c23 31 34 58 34 88c0 34 -19 57 -43 57c-27 0 -42 -19 -42 -57v-32l-105 6v19c0 92 54 152 147 152zM30 363
c0 241 191 428 430 428s430 -187 430 -428s-191 -428 -430 -428s-430 187 -430 428zM86 363c0 -211 165 -376 374 -376s374 165 374 376s-165 376 -374 376s-374 -165 -374 -376z" />
    <glyph glyph-name="_745" unicode="&#x246c;" 
d="M201 111v86h56v326l-56 -25v87l76 34h85v-422h45v-86h-206zM529 286v-19c0 -58 23 -78 41 -78c26 0 40 22 40 78c0 73 -14 89 -41 89c-11 0 -22 -5 -32 -11l-55 58l96 128h-138v88h257v-77l-86 -114c72 -9 104 -66 104 -154c0 -108 -49 -173 -145 -173
c-97 0 -146 68 -146 180zM30 363c0 241 191 428 430 428s430 -187 430 -428s-191 -428 -430 -428s-430 187 -430 428zM86 363c0 -211 165 -376 374 -376s374 165 374 376s-165 376 -374 376s-374 -165 -374 -376z" />
    <glyph glyph-name="_746" unicode="&#x246d;" 
d="M728 294v-87h-42v-96h-99v96h-170v76l170 336h99v-325h42zM510 294h77v149zM202 111v86h55v326l-55 -25v87l75 34h86v-422h45v-86h-206zM30 363c0 241 191 428 430 428s430 -187 430 -428s-191 -428 -430 -428s-430 187 -430 428zM86 363c0 -211 165 -376 374 -376
s374 165 374 376s-165 376 -374 376s-374 -165 -374 -376z" />
    <glyph glyph-name="_747" unicode="&#x246e;" 
d="M424 280l105 6v-12c0 -68 24 -85 41 -85c27 0 40 23 40 88c0 82 -21 97 -42 97c-17 0 -28 -11 -35 -29h-88v274h241v-88h-136v-89c8 10 26 18 46 18c72 0 119 -52 119 -181c0 -111 -45 -178 -145 -178s-146 70 -146 179zM204 111v86h56v326l-56 -25v87l75 34h85v-422h45
v-86h-205zM30 363c0 241 191 428 430 428s430 -187 430 -428s-191 -428 -430 -428s-430 187 -430 428zM86 363c0 -211 165 -376 374 -376s374 165 374 376s-165 376 -374 376s-374 -165 -374 -376z" />
    <glyph glyph-name="_748" unicode="&#xbd;" 
d="M788 340c0 47 -25 68 -61 68c-35 0 -60 -23 -60 -68v-24l-113 7v18c0 92 69 160 173 160c102 0 174 -64 174 -159c0 -51 -21 -90 -55 -129l-136 -155h191v-94h-347v73l200 231c25 28 34 48 34 72zM363 244l221 520h89l-340 -800h-89l114 270h-302v94h97v316l-97 -43v103
l123 60h88v-436h96v-84z" />
    <glyph glyph-name="_749" unicode="&#x2153;" 
d="M550 139l112 6c0 -59 24 -96 66 -96c41 0 62 26 62 80c0 53 -26 85 -62 85c-14 0 -29 -2 -44 -11l-52 59l111 136h-177v94h316v-81l-103 -122c74 -12 124 -62 124 -161c0 -103 -65 -173 -175 -173c-115 0 -178 76 -178 184zM363 244l221 520h89l-340 -800h-89l114 270
h-302v94h97v316l-97 -43v103l123 60h88v-436h96v-84z" />
    <glyph glyph-name="_750" unicode="&#x2154;" 
d="M550 139l112 6c0 -59 24 -96 66 -96c41 0 62 26 62 80c0 53 -26 85 -62 85c-14 0 -29 -2 -44 -11l-52 59l111 136h-177v94h316v-81l-103 -122c74 -12 124 -62 124 -161c0 -103 -65 -173 -175 -173c-115 0 -178 76 -178 184zM368 256l216 508h89l-340 -800h-89l114 270
h-334v73l197 232c24 28 33 49 33 74c0 45 -25 66 -59 66c-36 0 -61 -23 -61 -68v-24l-110 7v18c0 93 66 161 171 161c102 0 173 -65 173 -159c0 -52 -21 -90 -55 -129l-136 -157h191v-72z" />
    <glyph glyph-name="_751" unicode="&#xbc;" 
d="M47 234v94h97v316l-97 -43v103l123 60h88v-436h96v-94h-307zM626 152h98v166zM893 152v-90h-56v-98h-113v98h-205v76l204 354h114v-340h56zM244 -36h89l340 800h-89z" />
    <glyph glyph-name="_752" unicode="&#xbe;" 
d="M626 152h98v166zM893 152v-90h-56v-98h-113v98h-205v76l204 354h114v-340h56zM18 410l111 6c0 -58 23 -97 66 -97c40 0 62 27 62 81c0 52 -26 86 -63 86c-13 0 -28 -3 -43 -11l-52 58l111 137h-176v94h315v-82l-103 -122c74 -11 123 -61 123 -161
c0 -104 -64 -173 -174 -173c-115 0 -177 75 -177 184zM244 -36h89l340 800h-89z" />
    <glyph glyph-name="_753" unicode="&#x215b;" 
d="M719 -45c-109 0 -180 74 -180 172c0 57 25 104 72 130c-31 20 -51 56 -51 100c0 84 64 144 159 144s158 -60 158 -144c0 -45 -19 -80 -49 -100c47 -26 72 -73 72 -130c0 -98 -72 -172 -181 -172zM719 210c-42 0 -71 -31 -71 -82c0 -50 29 -82 71 -82s72 32 72 82
c0 51 -30 82 -72 82zM719 291c33 0 57 25 57 61c0 37 -24 61 -57 61c-34 0 -58 -24 -58 -61c0 -36 24 -61 58 -61zM363 244l221 520h89l-340 -800h-89l114 270h-302v94h97v316l-97 -43v103l123 60h88v-436h96v-84z" />
    <glyph glyph-name="_754" unicode="&#x215c;" 
d="M18 410l111 6c0 -58 23 -97 66 -97c40 0 62 27 62 81c0 52 -26 86 -63 86c-13 0 -28 -3 -43 -11l-52 58l111 137h-176v94h315v-82l-103 -122c74 -11 123 -61 123 -161c0 -104 -64 -173 -174 -173c-115 0 -177 75 -177 184zM244 -36h89l340 800h-89zM719 -45
c-109 0 -180 74 -180 172c0 57 25 104 72 130c-31 20 -51 56 -51 100c0 84 64 144 159 144s158 -60 158 -144c0 -45 -19 -80 -49 -100c47 -26 72 -73 72 -130c0 -98 -72 -172 -181 -172zM719 210c-42 0 -71 -31 -71 -82c0 -50 29 -82 71 -82s72 32 72 82c0 51 -30 82 -72 82
zM719 291c33 0 57 25 57 61c0 37 -24 61 -57 61c-34 0 -58 -24 -58 -61c0 -36 24 -61 58 -61z" />
    <glyph glyph-name="_755" unicode="&#x215d;" 
d="M44 475v289h302v-93h-189v-90c15 10 36 16 56 16c89 0 160 -56 160 -187c0 -115 -65 -184 -176 -184c-102 0 -175 66 -175 179l113 5v-6c0 -56 31 -85 62 -85c36 0 63 24 63 92s-36 93 -63 93c-22 0 -42 -11 -55 -29h-98zM244 -36h89l340 800h-89zM719 -45
c-109 0 -180 74 -180 172c0 57 25 104 72 130c-31 20 -51 56 -51 100c0 84 64 144 159 144s158 -60 158 -144c0 -45 -19 -80 -49 -100c47 -26 72 -73 72 -130c0 -98 -72 -172 -181 -172zM719 210c-42 0 -71 -31 -71 -82c0 -50 29 -82 71 -82s72 32 72 82c0 51 -30 82 -72 82
zM719 291c33 0 57 25 57 61c0 37 -24 61 -57 61c-34 0 -58 -24 -58 -61c0 -36 24 -61 58 -61z" />
    <glyph glyph-name="_756" unicode="&#x215e;" 
d="M21 673v91h344v-70l-169 -460h-118l162 439h-219zM244 -36h89l340 800h-89zM719 -45c-109 0 -180 74 -180 172c0 57 25 104 72 130c-31 20 -51 56 -51 100c0 84 64 144 159 144s158 -60 158 -144c0 -45 -19 -80 -49 -100c47 -26 72 -73 72 -130c0 -98 -72 -172 -181 -172
zM719 210c-42 0 -71 -31 -71 -82c0 -50 29 -82 71 -82s72 32 72 82c0 51 -30 82 -72 82zM719 291c33 0 57 25 57 61c0 37 -24 61 -57 61c-34 0 -58 -24 -58 -61c0 -36 24 -61 58 -61z" />
    <glyph glyph-name="_757" unicode="&#xe6;" horiz-adv-x="900" 
d="M615 93c46 0 81 22 96 65l132 -16c-28 -98 -111 -161 -228 -161c-83 0 -146 34 -187 84c-48 -57 -118 -84 -201 -84c-115 0 -186 66 -186 156v15c0 88 64 166 238 166h94v19c0 70 -37 105 -95 105c-42 0 -80 -25 -101 -64l-120 30c39 87 116 147 226 147
c72 0 129 -27 165 -75c37 47 97 75 170 75c138 0 234 -102 234 -228v-106h-347v-2c0 -83 47 -126 110 -126zM252 91c50 0 97 21 121 63v65h-122c-47 0 -81 -25 -81 -64v-6c0 -32 26 -58 82 -58zM720 318c0 77 -48 123 -107 123c-66 0 -102 -47 -108 -123h215z" />
    <glyph glyph-name="_758" unicode="&#x111;" horiz-adv-x="580" 
d="M581 623h-66v-628h-131v50c-26 -38 -79 -64 -140 -64c-126 0 -198 94 -198 224v125c0 128 72 225 198 225c61 0 114 -27 140 -66v134h-138v91h138v61h131v-61h66v-91zM384 155v225c-21 38 -53 61 -96 61c-80 0 -111 -48 -111 -136v-77c0 -86 32 -135 111 -135
c43 0 75 23 96 62z" />
    <glyph glyph-name="_759" unicode="&#xf0;" horiz-adv-x="573" 
d="M46 203v128c0 121 95 223 228 223c13 0 24 -2 36 -5l-40 74c-40 -9 -80 -18 -121 -25c-5 23 -10 46 -16 69c35 7 69 15 104 22c-15 29 -28 57 -43 86h140c10 -20 20 -39 30 -59c38 8 76 16 114 25c5 -23 10 -46 16 -69c-33 -7 -63 -15 -96 -22l54 -99
c40 -76 74 -152 74 -244v-104c0 -120 -95 -222 -240 -222c-146 0 -240 102 -240 222zM286 441c-59 0 -108 -42 -108 -135v-78c0 -93 49 -135 108 -135c57 0 107 42 107 135v78c0 93 -50 135 -107 135z" />
    <glyph glyph-name="_760" unicode="&#x127;" horiz-adv-x="593" 
d="M63 623h-63v91h63v61h131v-61h137v-91h-137v-143c27 43 83 75 149 75c121 0 190 -86 190 -225v-335h-132v303c0 91 -23 143 -101 143c-42 0 -86 -28 -106 -72v-374h-131v628z" />
    <glyph glyph-name="_761" unicode="&#x131;" horiz-adv-x="282" 
d="M74 -6v549h133v-549h-133z" />
    <glyph glyph-name="_762" unicode="&#x133;" horiz-adv-x="578" 
d="M74 -6v549h133v-549h-133zM74 644v132h133v-132h-133zM372 644v132h132v-132h-132zM372 -53v596h132v-608c0 -118 -58 -175 -183 -175h-59v114h46c43 0 64 26 64 73z" />
    <glyph glyph-name="_763" unicode="&#x138;" horiz-adv-x="549" 
d="M491 542v-12c0 -110 -34 -169 -118 -233l179 -302h-144l-134 234l-79 -52v-182h-132v547h132v-222c120 73 166 119 166 209v13h130z" />
    <glyph glyph-name="_764" unicode="&#x140;" horiz-adv-x="445" 
d="M73 166v609h134v-596c0 -48 19 -72 62 -72h27v-112h-40c-124 0 -183 53 -183 171zM412 474v-131h-130v131h130z" />
    <glyph glyph-name="_765" unicode="&#x142;" horiz-adv-x="317" 
d="M74 280l-67 -36v96l67 36v400h132v-329l87 48v-95l-87 -48v-173c0 -47 21 -73 63 -73h28v-112h-41c-124 0 -182 54 -182 173v113z" />
    <glyph glyph-name="_766" unicode="&#xf8;" horiz-adv-x="572" 
d="M413 584h86l-49 -91c46 -40 74 -102 74 -167v-118c0 -125 -99 -227 -239 -227c-38 0 -71 8 -101 19l-27 -48h-85l48 88c-47 41 -74 101 -74 168v118c0 125 98 229 239 229c37 0 72 -7 101 -21zM285 441c-58 0 -107 -41 -107 -131v-84c0 -24 3 -44 9 -61l143 267
c-14 5 -29 9 -45 9zM392 231v71c0 23 -3 46 -10 66l-143 -266c14 -6 29 -9 46 -9c59 0 107 42 107 138z" />
    <glyph glyph-name="_767" unicode="&#x153;" horiz-adv-x="919" 
d="M739 319c-3 81 -50 122 -107 122c-58 0 -107 -43 -107 -123zM392 225v83c0 91 -50 133 -107 133c-58 0 -108 -42 -108 -133v-82c0 -91 50 -133 108 -133c57 0 107 42 107 132zM284 -19c-138 0 -238 103 -238 229v115c0 126 100 230 238 230c73 0 136 -28 174 -83
c39 55 102 83 174 83c138 0 238 -104 238 -229v-105h-345c0 -80 48 -128 109 -128c46 0 81 22 94 65l135 -16c-29 -98 -112 -161 -227 -161c-77 0 -139 27 -179 80c-37 -53 -101 -80 -173 -80z" />
    <glyph glyph-name="_768" unicode="&#xdf;" horiz-adv-x="646" 
d="M210 512v-517h-140v539c0 159 103 241 243 241c149 0 237 -99 237 -214v-13c0 -60 -35 -116 -94 -141c96 -28 161 -97 161 -208v-14c0 -130 -90 -204 -226 -204c-51 0 -102 11 -141 34l35 110c27 -15 60 -22 95 -22c52 0 98 32 98 89v8c0 83 -70 124 -173 124l-19 100
c80 24 122 61 123 121v6c0 51 -36 97 -97 97c-60 0 -102 -37 -102 -136z" />
    <glyph glyph-name="_769" unicode="&#xfe;" horiz-adv-x="580" 
d="M194 775v-286c26 39 79 66 140 66c125 0 197 -97 197 -225v-125c0 -130 -72 -224 -197 -224c-61 0 -114 26 -140 64v-290h-131v1020h131zM194 379v-224c21 -39 53 -62 96 -62c79 0 110 49 110 137v74c0 89 -31 137 -110 137c-43 0 -75 -24 -96 -62z" />
    <glyph glyph-name="_770" unicode="&#x167;" horiz-adv-x="397" 
d="M96 243h-66v92h66v93h-76v114h76v156h130v-156h130v-114h-130v-93h102v-92h-102v-64c0 -47 24 -73 63 -73h75v-111h-87c-120 0 -179 51 -181 160v88z" />
    <glyph glyph-name="_771" unicode="&#x14b;" horiz-adv-x="593" 
d="M402 -52v364c0 84 -32 128 -101 128c-42 0 -87 -25 -107 -71v-374h-131v547h131v-62c27 43 83 75 149 75c121 0 190 -85 190 -224v-395c0 -118 -58 -175 -182 -175h-60v115h47c45 0 64 25 64 72z" />
    <glyph glyph-name="_772" unicode="&#x149;" horiz-adv-x="661" 
d="M600 -5h-131v316c0 85 -30 130 -102 130c-42 0 -86 -28 -104 -72v-374h-133v547h133v-62c26 43 81 75 147 75c122 0 190 -86 190 -225v-335zM5 640v135h139v-133c0 -70 -46 -127 -139 -133v55c51 8 73 27 74 76h-74z" />
    <glyph glyph-name="_773" unicode="&#x3200;" 
d="M42 363c0 143 53 282 138 399h61c-80 -119 -133 -263 -133 -399c0 -137 53 -280 133 -399h-61c-85 117 -138 255 -138 399zM878 363c0 143 -53 282 -138 399h-61c80 -119 133 -263 133 -399c0 -137 -53 -280 -133 -399h61c85 117 138 255 138 399zM229 453v100h457v-377
h-117v277h-340z" />
    <glyph glyph-name="_774" unicode="&#x3201;" 
d="M42 363c0 143 53 282 138 399h61c-80 -119 -133 -263 -133 -399c0 -137 53 -280 133 -399h-61c-85 117 -138 255 -138 399zM878 363c0 143 -53 282 -138 399h-61c80 -119 133 -263 133 -399c0 -137 -53 -280 -133 -399h61c85 117 138 255 138 399zM690 276v-100h-457v377
h117v-277h340z" />
    <glyph glyph-name="_775" unicode="&#x3202;" 
d="M42 363c0 143 53 282 138 399h61c-80 -119 -133 -263 -133 -399c0 -137 53 -280 133 -399h-61c-85 117 -138 255 -138 399zM878 363c0 143 -53 282 -138 399h-61c80 -119 133 -263 133 -399c0 -137 -53 -280 -133 -399h61c85 117 138 255 138 399zM351 450v-175h336v-100
h-453v375h446v-100h-329z" />
    <glyph glyph-name="_776" unicode="&#x3203;" 
d="M42 363c0 143 53 282 138 399h61c-80 -119 -133 -263 -133 -399c0 -137 53 -280 133 -399h-61c-85 117 -138 255 -138 399zM878 363c0 143 -53 282 -138 399h-61c80 -119 133 -263 133 -399c0 -137 -53 -280 -133 -399h61c85 117 138 255 138 399zM352 318v-57h337v-93
h-454v242h323v54h-323v93h440v-239h-323z" />
    <glyph glyph-name="_777" unicode="&#x3204;" 
d="M42 363c0 143 53 282 138 399h61c-80 -119 -133 -263 -133 -399c0 -137 53 -280 133 -399h-61c-85 117 -138 255 -138 399zM878 363c0 143 -53 282 -138 399h-61c80 -119 133 -263 133 -399c0 -137 -53 -280 -133 -399h61c85 117 138 255 138 399zM236 175v375h446v-375
h-446zM566 275v175h-213v-175h213z" />
    <glyph glyph-name="_778" unicode="&#x3205;" 
d="M42 363c0 143 53 282 138 399h61c-80 -119 -133 -263 -133 -399c0 -137 53 -280 133 -399h-61c-85 117 -138 255 -138 399zM878 363c0 143 -53 282 -138 399h-61c80 -119 133 -263 133 -399c0 -137 -53 -280 -133 -399h61c85 117 138 255 138 399zM353 550v-101h213v101
h116v-375h-446v375h117zM566 275v77h-213v-77h213z" />
    <glyph glyph-name="_779" unicode="&#x3206;" 
d="M42 363c0 143 53 282 138 399h61c-80 -119 -133 -263 -133 -399c0 -137 53 -280 133 -399h-61c-85 117 -138 255 -138 399zM878 363c0 143 -53 282 -138 399h-61c80 -119 133 -263 133 -399c0 -137 -53 -280 -133 -399h61c85 117 138 255 138 399zM731 277l-61 -95
c-91 27 -171 82 -211 147c-41 -65 -121 -120 -212 -147l-61 95c119 33 214 107 214 217v78h117v-78c0 -110 96 -184 214 -217z" />
    <glyph glyph-name="_780" unicode="&#x3207;" 
d="M42 363c0 143 53 282 138 399h61c-80 -119 -133 -263 -133 -399c0 -137 53 -280 133 -399h-61c-85 117 -138 255 -138 399zM878 363c0 143 -53 282 -138 399h-61c80 -119 133 -263 133 -399c0 -137 -53 -280 -133 -399h61c85 117 138 255 138 399zM222 363
c0 118 99 198 237 198s237 -80 237 -198s-99 -198 -237 -198s-237 80 -237 198zM339 363c0 -58 46 -97 120 -97c73 0 119 39 119 97s-46 97 -119 97c-74 0 -120 -39 -120 -97z" />
    <glyph glyph-name="_781" unicode="&#x3208;" 
d="M731 267l-61 -95c-91 27 -171 82 -211 147c-41 -65 -121 -120 -212 -147l-61 95c107 30 195 93 211 186h-168v101h459v-101h-168c16 -93 104 -156 211 -186zM878 363c0 -144 -53 -282 -138 -399h-61c80 119 133 262 133 399c0 136 -53 280 -133 399h61
c85 -117 138 -256 138 -399zM42 363c0 143 53 282 138 399h61c-80 -119 -133 -263 -133 -399c0 -137 53 -280 133 -399h-61c-85 117 -138 255 -138 399z" />
    <glyph glyph-name="_782" unicode="&#x3209;" 
d="M731 267l-61 -95c-91 27 -167 74 -211 137c-45 -63 -121 -110 -212 -137l-61 95c98 27 180 81 205 156h-162v101h171v78h117v-78h171v-101h-163c26 -75 108 -129 206 -156zM878 363c0 -144 -53 -282 -138 -399h-61c80 119 133 262 133 399c0 136 -53 280 -133 399h61
c85 -117 138 -256 138 -399zM42 363c0 143 53 282 138 399h61c-80 -119 -133 -263 -133 -399c0 -137 53 -280 133 -399h-61c-85 117 -138 255 -138 399z" />
    <glyph glyph-name="_783" unicode="&#x320a;" 
d="M42 363c0 143 53 282 138 399h61c-80 -119 -133 -263 -133 -399c0 -137 53 -280 133 -399h-61c-85 117 -138 255 -138 399zM878 363c0 143 -53 282 -138 399h-61c80 -119 133 -263 133 -399c0 -137 -53 -280 -133 -399h61c85 117 138 255 138 399zM233 453v99h452v-376
h-117v105c-51 -6 -122 -7 -185 -7l-148 1v99h154c60 0 128 0 179 5v74h-335z" />
    <glyph glyph-name="_784" unicode="&#x320b;" 
d="M42 363c0 143 53 282 138 399h61c-80 -119 -133 -263 -133 -399c0 -137 53 -280 133 -399h-61c-85 117 -138 255 -138 399zM878 363c0 143 -53 282 -138 399h-61c80 -119 133 -263 133 -399c0 -137 -53 -280 -133 -399h61c85 117 138 255 138 399zM355 318v-57h337v-93
h-454v389h440v-93h-323v-54h315v-92h-315z" />
    <glyph glyph-name="_785" unicode="&#x320c;" 
d="M42 363c0 143 53 282 138 399h61c-80 -119 -133 -263 -133 -399c0 -137 53 -280 133 -399h-61c-85 117 -138 255 -138 399zM878 363c0 143 -53 282 -138 399h-61c80 -119 133 -263 133 -399c0 -137 -53 -280 -133 -399h61c85 117 138 255 138 399zM712 176h-507v97h86
l-7 181h-64v97h477v-97h-64l-7 -181h86v-97zM408 273h101l7 181h-115z" />
    <glyph glyph-name="_786" unicode="&#x320d;" 
d="M42 363c0 143 53 282 138 399h61c-80 -119 -133 -263 -133 -399c0 -137 53 -280 133 -399h-61c-85 117 -138 255 -138 399zM878 363c0 143 -53 282 -138 399h-61c80 -119 133 -263 133 -399c0 -137 -53 -280 -133 -399h61c85 117 138 255 138 399zM714 530v-97h-511v97
h198v70h117v-70h196zM460 148c-148 0 -230 52 -230 133s82 133 230 133c147 0 228 -52 228 -133s-81 -133 -228 -133zM460 236c81 0 111 16 111 45s-30 44 -111 44c-82 0 -112 -15 -112 -44s30 -45 112 -45z" />
    <glyph glyph-name="_787" unicode="&#x320e;" 
d="M42 363c0 143 53 282 138 399h61c-80 -119 -133 -263 -133 -399c0 -137 53 -280 133 -399h-61c-85 117 -138 255 -138 399zM878 363c0 143 -53 282 -138 399h-61c80 -119 133 -263 133 -399c0 -137 -53 -280 -133 -399h61c85 117 138 255 138 399zM388 519v21h-173v93
h284v-111c0 -168 -86 -285 -252 -351l-55 91c132 55 196 139 196 257zM671 657v-193h79v-94h-79v-306h-110v593h110z" />
    <glyph glyph-name="_788" unicode="&#x320f;" 
d="M42 363c0 143 53 282 138 399h61c-80 -119 -133 -263 -133 -399c0 -137 53 -280 133 -399h-61c-85 117 -138 255 -138 399zM878 363c0 143 -53 282 -138 399h-61c80 -119 133 -263 133 -399c0 -137 -53 -280 -133 -399h61c85 117 138 255 138 399zM431 210h-210v409h111
v-315h99c49 0 95 6 130 17v336h110v-193h79v-94h-79v-306h-110v164c-34 -12 -82 -18 -130 -18z" />
    <glyph glyph-name="_789" unicode="&#x3210;" 
d="M42 363c0 143 53 282 138 399h61c-80 -119 -133 -263 -133 -399c0 -137 53 -280 133 -399h-61c-85 117 -138 255 -138 399zM878 363c0 143 -53 282 -138 399h-61c80 -119 133 -263 133 -399c0 -137 -53 -280 -133 -399h61c85 117 138 255 138 399zM430 205h-209v426h275
v-94h-164v-239h98c49 0 96 6 131 18v341h110v-193h79v-94h-79v-306h-110v158c-35 -13 -81 -17 -131 -17z" />
    <glyph glyph-name="_790" unicode="&#x3211;" 
d="M42 363c0 143 53 282 138 399h61c-80 -119 -133 -263 -133 -399c0 -137 53 -280 133 -399h-61c-85 117 -138 255 -138 399zM878 363c0 143 -53 282 -138 399h-61c80 -119 133 -263 133 -399c0 -137 -53 -280 -133 -399h61c85 117 138 255 138 399zM316 364v-90h117
c49 0 92 4 127 16v367h111v-193h79v-94h-79v-306h-111v140c-34 -12 -79 -17 -127 -17h-214v263h185v84h-185v88h281v-258h-184z" />
    <glyph glyph-name="_791" unicode="&#x3212;" 
d="M42 363c0 143 53 282 138 399h61c-80 -119 -133 -263 -133 -399c0 -137 53 -280 133 -399h-61c-85 117 -138 255 -138 399zM878 363c0 143 -53 282 -138 399h-61c80 -119 133 -263 133 -399c0 -137 -53 -280 -133 -399h61c85 117 138 255 138 399zM502 206h-284v421h284
v-421zM400 293v246h-81v-246h81zM671 657v-193h79v-94h-79v-306h-110v593h110z" />
    <glyph glyph-name="_792" unicode="&#x3213;" 
d="M42 363c0 143 53 282 138 399h61c-80 -119 -133 -263 -133 -399c0 -137 53 -280 133 -399h-61c-85 117 -138 255 -138 399zM878 363c0 143 -53 282 -138 399h-61c80 -119 133 -263 133 -399c0 -137 -53 -280 -133 -399h61c85 117 138 255 138 399zM323 498h73v134h106
v-429h-284v429h105v-134zM396 294v110h-73v-110h73zM671 657v-193h79v-94h-79v-306h-110v593h110z" />
    <glyph glyph-name="_793" unicode="&#x3214;" 
d="M42 363c0 143 53 282 138 399h61c-80 -119 -133 -263 -133 -399c0 -137 53 -280 133 -399h-61c-85 117 -138 255 -138 399zM878 363c0 143 -53 282 -138 399h-61c80 -119 133 -263 133 -399c0 -137 -53 -280 -133 -399h61c85 117 138 255 138 399zM661 657v-193h79v-94
h-79v-306h-110v593h110zM537 270l-72 -77c-45 31 -89 78 -116 128c-24 -55 -63 -103 -110 -139l-77 74c84 67 132 156 132 254v122h111v-122c0 -99 48 -174 132 -240z" />
    <glyph glyph-name="_794" unicode="&#x3215;" 
d="M42 363c0 143 53 282 138 399h61c-80 -119 -133 -263 -133 -399c0 -137 53 -280 133 -399h-61c-85 117 -138 255 -138 399zM878 363c0 143 -53 282 -138 399h-61c80 -119 133 -263 133 -399c0 -137 -53 -280 -133 -399h61c85 117 138 255 138 399zM666 657v-193h79v-94
h-79v-306h-110v593h110zM350 271c34 0 50 29 50 81v119c0 52 -16 81 -50 81s-50 -29 -50 -81v-119c0 -52 16 -81 50 -81zM350 183c-94 0 -152 70 -152 174v109c0 104 58 174 152 174s152 -70 152 -174v-109c0 -104 -58 -174 -152 -174z" />
    <glyph glyph-name="_795" unicode="&#x3216;" 
d="M42 363c0 143 53 282 138 399h61c-80 -119 -133 -263 -133 -399c0 -137 53 -280 133 -399h-61c-85 117 -138 255 -138 399zM878 363c0 143 -53 282 -138 399h-61c80 -119 133 -263 133 -399c0 -137 -53 -280 -133 -399h61c85 117 138 255 138 399zM546 270l-73 -79
c-44 32 -86 79 -113 130c-25 -55 -63 -103 -110 -139l-77 74c84 66 131 154 131 253v25h-97v94h310v-94h-102v-13c0 -108 43 -183 131 -251zM671 657v-193h79v-94h-79v-306h-110v593h110z" />
    <glyph glyph-name="_796" unicode="&#x3217;" 
d="M42 363c0 143 53 282 138 399h61c-80 -119 -133 -263 -133 -399c0 -137 53 -280 133 -399h-61c-85 117 -138 255 -138 399zM878 363c0 143 -53 282 -138 399h-61c80 -119 133 -263 133 -399c0 -137 -53 -280 -133 -399h61c85 117 138 255 138 399zM547 270l-74 -79
c-44 32 -87 79 -114 130c-25 -55 -64 -103 -110 -139l-78 74c81 69 129 150 131 242h-101v92h102v67h111v-67h106v-92h-106c2 -90 54 -167 133 -228zM671 657v-193h79v-94h-79v-306h-110v593h110z" />
    <glyph glyph-name="_797" unicode="&#x3218;" 
d="M42 363c0 143 53 282 138 399h61c-80 -119 -133 -263 -133 -399c0 -137 53 -280 133 -399h-61c-85 117 -138 255 -138 399zM878 363c0 143 -53 282 -138 399h-61c80 -119 133 -263 133 -399c0 -137 -53 -280 -133 -399h61c85 117 138 255 138 399zM388 519v19h-173v94
h284v-85c0 -183 -72 -305 -252 -376l-54 89c72 29 120 66 152 111h-145v92h182c4 17 6 36 6 56zM671 657v-193h79v-94h-79v-306h-110v593h110z" />
    <glyph glyph-name="_798" unicode="&#x3219;" 
d="M42 363c0 143 53 282 138 399h61c-80 -119 -133 -263 -133 -399c0 -137 53 -280 133 -399h-61c-85 117 -138 255 -138 399zM878 363c0 143 -53 282 -138 399h-61c80 -119 133 -263 133 -399c0 -137 -53 -280 -133 -399h61c85 117 138 255 138 399zM671 657v-193h79v-94
h-79v-306h-110v161c-35 -13 -79 -17 -130 -17h-210v419h275v-94h-164v-68h157v-92h-157v-74h78c61 0 112 4 151 18v340h110z" />
    <glyph glyph-name="_799" unicode="&#x321a;" 
d="M671 657v-193h79v-94h-79v-306h-110v151c-21 -7 -47 -8 -73 -9h-289v91h50v236h-46v93h331v-93h-46v-236c20 1 51 5 73 11v349h110zM42 363c0 143 53 282 138 399h61c-80 -119 -133 -263 -133 -399c0 -137 53 -280 133 -399h-61c-85 117 -138 255 -138 399zM878 363
c0 143 -53 282 -138 399h-61c80 -119 133 -263 133 -399c0 -137 -53 -280 -133 -399h61c85 117 138 255 138 399zM346 297h45v236h-45v-236z" />
    </font>
</defs>
</svg>
